M48
; DRILL file {KiCad 5.1.5} date Fri 03 Apr 2020 07:56:21 PM PDT
; FORMAT={-:-/ absolute / metric / decimal}
; #@! TF.CreationDate,2020-04-03T19:56:21-07:00
; #@! TF.GenerationSoftware,Kicad,Pcbnew,5.1.5
; #@! TF.FileFunction,Plated,1,2,PTH
FMAT,2
METRIC
T1C0.400
T2C0.700
T3C1.000
T4C1.300
T5C1.400
T6C2.000
%
G90
G05
T1
X57.15Y-58.42
X62.23Y-54.61
X62.865Y-48.895
X65.405Y-48.895
X66.04Y-54.61
X66.04Y-57.15
X66.04Y-99.06
X68.58Y-54.61
X68.58Y-66.04
X69.088Y-49.276
X69.85Y-76.2
X69.85Y-83.82
X69.85Y-98.425
X70.358Y-93.218
X71.12Y-95.885
X73.025Y-93.345
X73.66Y-74.93
X75.04Y-63.864
X75.565Y-82.55
X76.12Y-62.785
X76.2Y-88.265
X76.2Y-91.44
X76.2Y-93.98
X78.74Y-77.47
X79.375Y-92.075
X79.375Y-98.425
X79.855Y-94.83
X80.01Y-67.31
X80.01Y-85.09
X81.34Y-93.345
X81.915Y-78.105
X83.82Y-78.74
X85.09Y-59.69
X85.725Y-52.705
X86.995Y-93.98
X88.9Y-80.01
X90.17Y-82.55
X90.424Y-89.06
X90.805Y-86.36
X91.186Y-90.678
X91.44Y-55.88
X91.44Y-92.075
X92.202Y-99.875
X92.71Y-79.375
X95.25Y-53.34
X96.52Y-59.69
X96.52Y-62.23
X96.52Y-64.77
X96.52Y-67.31
X96.52Y-69.85
X96.52Y-72.39
X96.52Y-74.93
X96.52Y-77.47
X97.028Y-87.376
X97.028Y-99.875
X98.298Y-93.218
X98.425Y-97.155
X109.22Y-93.345
T2
X44.45Y-63.5
X49.53Y-63.5
T3
X86.995Y-82.55
X86.995Y-85.09
X86.995Y-87.63
X86.995Y-90.17
X93.345Y-82.55
X95.885Y-82.55
X98.425Y-82.55
X100.965Y-82.55
X88.9Y-50.8
X91.44Y-50.8
X93.98Y-50.8
X96.52Y-50.8
X99.06Y-50.8
X101.6Y-50.8
X104.14Y-50.8
X106.68Y-50.8
X86.995Y-96.52
X89.535Y-96.52
X92.075Y-96.52
X94.615Y-96.52
X100.965Y-88.9
X100.965Y-91.44
X100.965Y-93.98
X100.965Y-96.52
X111.76Y-50.8
X114.3Y-50.8
X116.84Y-50.8
X119.38Y-50.8
X20.32Y-98.425
T4
X33.02Y-87.63
X55.52Y-87.63
X87.33Y-57.31
X87.33Y-61.31
X87.33Y-65.31
X87.33Y-69.31
X87.33Y-73.31
X87.33Y-77.31
X112.33Y-57.31
X112.33Y-61.31
X112.33Y-65.31
X112.33Y-69.31
X112.33Y-73.31
X112.33Y-77.31
X36.83Y-57.785
X36.83Y-80.285
T5
X27.94Y-58.42
X27.94Y-66.04
X27.94Y-73.66
X33.02Y-95.25
X40.64Y-95.25
X48.26Y-95.25
T6
X66.04Y-62.865
X66.04Y-72.865
T0
M30
