G04 #@! TF.GenerationSoftware,KiCad,Pcbnew,5.1.5*
G04 #@! TF.CreationDate,2020-04-03T19:56:18-07:00*
G04 #@! TF.ProjectId,EEP_2,4545505f-322e-46b6-9963-61645f706362,rev?*
G04 #@! TF.SameCoordinates,Original*
G04 #@! TF.FileFunction,Copper,L2,Bot*
G04 #@! TF.FilePolarity,Positive*
%FSLAX46Y46*%
G04 Gerber Fmt 4.6, Leading zero omitted, Abs format (unit mm)*
G04 Created by KiCad (PCBNEW 5.1.5) date 2020-04-03 19:56:18*
%MOMM*%
%LPD*%
G04 APERTURE LIST*
%ADD10R,4.000000X4.000000*%
%ADD11C,4.000000*%
%ADD12C,3.000000*%
%ADD13O,1.700000X1.700000*%
%ADD14R,1.700000X1.700000*%
%ADD15O,2.100000X3.600000*%
%ADD16C,0.100000*%
%ADD17O,3.600000X2.100000*%
%ADD18C,3.250000*%
%ADD19C,1.400000*%
%ADD20O,1.400000X1.400000*%
%ADD21C,2.000000*%
%ADD22C,0.800000*%
%ADD23C,0.250000*%
%ADD24C,0.500000*%
%ADD25C,1.000000*%
%ADD26C,1.500000*%
%ADD27C,0.750000*%
%ADD28C,0.254000*%
G04 APERTURE END LIST*
D10*
X66040000Y-62865000D03*
D11*
X66040000Y-72865000D03*
D12*
X33020000Y-87630000D03*
X55520000Y-87630000D03*
X36830000Y-80285000D03*
X36830000Y-57785000D03*
D13*
X86995000Y-90170000D03*
X86995000Y-87630000D03*
X86995000Y-85090000D03*
D14*
X86995000Y-82550000D03*
X86995000Y-96520000D03*
D13*
X89535000Y-96520000D03*
X92075000Y-96520000D03*
X94615000Y-96520000D03*
D14*
X100965000Y-82550000D03*
D13*
X98425000Y-82550000D03*
X95885000Y-82550000D03*
X93345000Y-82550000D03*
X100965000Y-88900000D03*
X100965000Y-91440000D03*
X100965000Y-93980000D03*
D14*
X100965000Y-96520000D03*
D13*
X119380000Y-50800000D03*
X116840000Y-50800000D03*
X114300000Y-50800000D03*
D14*
X111760000Y-50800000D03*
D15*
X48260000Y-95250000D03*
X40640000Y-95250000D03*
G04 #@! TA.AperFunction,ComponentPad*
D16*
G36*
X33844504Y-93451204D02*
G01*
X33868773Y-93454804D01*
X33892571Y-93460765D01*
X33915671Y-93469030D01*
X33937849Y-93479520D01*
X33958893Y-93492133D01*
X33978598Y-93506747D01*
X33996777Y-93523223D01*
X34013253Y-93541402D01*
X34027867Y-93561107D01*
X34040480Y-93582151D01*
X34050970Y-93604329D01*
X34059235Y-93627429D01*
X34065196Y-93651227D01*
X34068796Y-93675496D01*
X34070000Y-93700000D01*
X34070000Y-96800000D01*
X34068796Y-96824504D01*
X34065196Y-96848773D01*
X34059235Y-96872571D01*
X34050970Y-96895671D01*
X34040480Y-96917849D01*
X34027867Y-96938893D01*
X34013253Y-96958598D01*
X33996777Y-96976777D01*
X33978598Y-96993253D01*
X33958893Y-97007867D01*
X33937849Y-97020480D01*
X33915671Y-97030970D01*
X33892571Y-97039235D01*
X33868773Y-97045196D01*
X33844504Y-97048796D01*
X33820000Y-97050000D01*
X32220000Y-97050000D01*
X32195496Y-97048796D01*
X32171227Y-97045196D01*
X32147429Y-97039235D01*
X32124329Y-97030970D01*
X32102151Y-97020480D01*
X32081107Y-97007867D01*
X32061402Y-96993253D01*
X32043223Y-96976777D01*
X32026747Y-96958598D01*
X32012133Y-96938893D01*
X31999520Y-96917849D01*
X31989030Y-96895671D01*
X31980765Y-96872571D01*
X31974804Y-96848773D01*
X31971204Y-96824504D01*
X31970000Y-96800000D01*
X31970000Y-93700000D01*
X31971204Y-93675496D01*
X31974804Y-93651227D01*
X31980765Y-93627429D01*
X31989030Y-93604329D01*
X31999520Y-93582151D01*
X32012133Y-93561107D01*
X32026747Y-93541402D01*
X32043223Y-93523223D01*
X32061402Y-93506747D01*
X32081107Y-93492133D01*
X32102151Y-93479520D01*
X32124329Y-93469030D01*
X32147429Y-93460765D01*
X32171227Y-93454804D01*
X32195496Y-93451204D01*
X32220000Y-93450000D01*
X33820000Y-93450000D01*
X33844504Y-93451204D01*
G37*
G04 #@! TD.AperFunction*
D14*
X88900000Y-50800000D03*
D13*
X91440000Y-50800000D03*
X93980000Y-50800000D03*
X96520000Y-50800000D03*
X99060000Y-50800000D03*
X101600000Y-50800000D03*
X104140000Y-50800000D03*
X106680000Y-50800000D03*
G04 #@! TA.AperFunction,ComponentPad*
D16*
G36*
X29514504Y-57371204D02*
G01*
X29538773Y-57374804D01*
X29562571Y-57380765D01*
X29585671Y-57389030D01*
X29607849Y-57399520D01*
X29628893Y-57412133D01*
X29648598Y-57426747D01*
X29666777Y-57443223D01*
X29683253Y-57461402D01*
X29697867Y-57481107D01*
X29710480Y-57502151D01*
X29720970Y-57524329D01*
X29729235Y-57547429D01*
X29735196Y-57571227D01*
X29738796Y-57595496D01*
X29740000Y-57620000D01*
X29740000Y-59220000D01*
X29738796Y-59244504D01*
X29735196Y-59268773D01*
X29729235Y-59292571D01*
X29720970Y-59315671D01*
X29710480Y-59337849D01*
X29697867Y-59358893D01*
X29683253Y-59378598D01*
X29666777Y-59396777D01*
X29648598Y-59413253D01*
X29628893Y-59427867D01*
X29607849Y-59440480D01*
X29585671Y-59450970D01*
X29562571Y-59459235D01*
X29538773Y-59465196D01*
X29514504Y-59468796D01*
X29490000Y-59470000D01*
X26390000Y-59470000D01*
X26365496Y-59468796D01*
X26341227Y-59465196D01*
X26317429Y-59459235D01*
X26294329Y-59450970D01*
X26272151Y-59440480D01*
X26251107Y-59427867D01*
X26231402Y-59413253D01*
X26213223Y-59396777D01*
X26196747Y-59378598D01*
X26182133Y-59358893D01*
X26169520Y-59337849D01*
X26159030Y-59315671D01*
X26150765Y-59292571D01*
X26144804Y-59268773D01*
X26141204Y-59244504D01*
X26140000Y-59220000D01*
X26140000Y-57620000D01*
X26141204Y-57595496D01*
X26144804Y-57571227D01*
X26150765Y-57547429D01*
X26159030Y-57524329D01*
X26169520Y-57502151D01*
X26182133Y-57481107D01*
X26196747Y-57461402D01*
X26213223Y-57443223D01*
X26231402Y-57426747D01*
X26251107Y-57412133D01*
X26272151Y-57399520D01*
X26294329Y-57389030D01*
X26317429Y-57380765D01*
X26341227Y-57374804D01*
X26365496Y-57371204D01*
X26390000Y-57370000D01*
X29490000Y-57370000D01*
X29514504Y-57371204D01*
G37*
G04 #@! TD.AperFunction*
D17*
X27940000Y-66040000D03*
X27940000Y-73660000D03*
D18*
X112330000Y-73310000D03*
X112330000Y-77310000D03*
X112330000Y-69310000D03*
X112330000Y-65310000D03*
X112330000Y-61310000D03*
X112330000Y-57310000D03*
X87330000Y-77310000D03*
X87330000Y-73310000D03*
X87330000Y-69310000D03*
X87330000Y-65310000D03*
X87330000Y-61310000D03*
X87330000Y-57310000D03*
D19*
X49530000Y-63500000D03*
D20*
X44450000Y-63500000D03*
D21*
X20320000Y-98425000D03*
D22*
X79375000Y-98425000D03*
X90805000Y-86360000D03*
X76120000Y-62785000D03*
X75040500Y-63864500D03*
X86995000Y-93980000D03*
X90424000Y-89060000D03*
X97028000Y-87376000D03*
X66040000Y-99060000D03*
X69850000Y-98425000D03*
X81340000Y-93345000D03*
X98298000Y-93218000D03*
X98425000Y-97155000D03*
X96520000Y-77470000D03*
X96520000Y-74930000D03*
X96520000Y-72390000D03*
X96520000Y-69850000D03*
X96520000Y-67310000D03*
X96520000Y-64770000D03*
X96520000Y-62230000D03*
X96520000Y-59690000D03*
X95250000Y-53340000D03*
X91440000Y-55880000D03*
X66040000Y-54610000D03*
X66040000Y-57150000D03*
X68580000Y-54610000D03*
X69850000Y-76200000D03*
X80010000Y-67310000D03*
X80010000Y-85090000D03*
X78740000Y-77470000D03*
X69850000Y-83820000D03*
X79854999Y-94830001D03*
X88900000Y-80010000D03*
X90170000Y-82550000D03*
X71120000Y-95885000D03*
X73025000Y-93345000D03*
X76200000Y-88265000D03*
X75565000Y-82550000D03*
X83820000Y-78740000D03*
X62865000Y-48895000D03*
X65405000Y-48895000D03*
X69088000Y-49276000D03*
X85090000Y-59690000D03*
X79375000Y-92075000D03*
X91186000Y-90678000D03*
X97028000Y-99875001D03*
X68580000Y-66040000D03*
X73660000Y-74930000D03*
X76200000Y-91440000D03*
X92710000Y-79375000D03*
X85725000Y-52705000D03*
X57150000Y-58420000D03*
X62230000Y-54610000D03*
X81915000Y-78105000D03*
X76200000Y-93980000D03*
X70358000Y-93218000D03*
X92202000Y-99875001D03*
X91440000Y-92075000D03*
X109220000Y-93345000D03*
D23*
X89535000Y-96520000D02*
X87630000Y-98425000D01*
X87630000Y-98425000D02*
X79375000Y-98425000D01*
D24*
X89535000Y-87630000D02*
X89535000Y-96520000D01*
X90805000Y-86360000D02*
X89535000Y-87630000D01*
D25*
X77595000Y-61310000D02*
X87330000Y-61310000D01*
D24*
X66040000Y-72865000D02*
X56355000Y-72865000D01*
X56355000Y-72865000D02*
X53340000Y-69850000D01*
X31750000Y-66040000D02*
X27940000Y-66040000D01*
D25*
X66040000Y-72865000D02*
X76120000Y-62785000D01*
X76120000Y-62785000D02*
X77595000Y-61310000D01*
D24*
X88295001Y-86390001D02*
X88295001Y-92679999D01*
X86995000Y-85090000D02*
X88295001Y-86390001D01*
X88295001Y-92679999D02*
X86995000Y-93980000D01*
D23*
X90424000Y-89060000D02*
X92108000Y-87376000D01*
X92108000Y-87376000D02*
X97028000Y-87376000D01*
D25*
X66040000Y-99060000D02*
X69215000Y-99060000D01*
X69215000Y-99060000D02*
X69850000Y-98425000D01*
D24*
X69215000Y-97790000D02*
X69850000Y-98425000D01*
X81340000Y-93345000D02*
X79854999Y-94830001D01*
X74510001Y-94830001D02*
X73025000Y-93345000D01*
X71120000Y-91440000D02*
X69215000Y-91440000D01*
X69215000Y-91440000D02*
X69215000Y-97790000D01*
X79854999Y-94830001D02*
X74510001Y-94830001D01*
X73025000Y-93345000D02*
X71120000Y-91440000D01*
D26*
X40640000Y-90170000D02*
X40640000Y-95250000D01*
X31240000Y-66040000D02*
X31240000Y-66165000D01*
X31240000Y-66165000D02*
X33020000Y-67945000D01*
X27940000Y-66040000D02*
X31240000Y-66040000D01*
X33020000Y-82550000D02*
X40640000Y-90170000D01*
D24*
X53340000Y-69850000D02*
X41275000Y-69850000D01*
X38735000Y-72390000D02*
X33020000Y-72390000D01*
X41275000Y-69850000D02*
X38735000Y-72390000D01*
D26*
X33020000Y-67945000D02*
X33020000Y-72390000D01*
X33020000Y-72390000D02*
X33020000Y-82550000D01*
D27*
X100965000Y-88900000D02*
X100965000Y-82550000D01*
D24*
X91440000Y-52070000D02*
X91440000Y-50800000D01*
X83820000Y-58420000D02*
X83820000Y-57150000D01*
X85090000Y-59690000D02*
X83820000Y-58420000D01*
X86360000Y-54610000D02*
X88900000Y-54610000D01*
X83820000Y-57150000D02*
X86360000Y-54610000D01*
X88900000Y-54610000D02*
X91440000Y-52070000D01*
X86995000Y-90170000D02*
X81280000Y-90170000D01*
X81280000Y-90170000D02*
X79375000Y-92075000D01*
D23*
X91186000Y-90678000D02*
X97028000Y-96520000D01*
X97028000Y-96520000D02*
X97028000Y-99875001D01*
D24*
X85090000Y-59690000D02*
X74930000Y-59690000D01*
X74930000Y-59690000D02*
X68580000Y-66040000D01*
X73660000Y-74930000D02*
X73660000Y-88900000D01*
X73660000Y-88900000D02*
X76200000Y-91440000D01*
X87330000Y-77310000D02*
X90645000Y-77310000D01*
X90645000Y-77310000D02*
X92710000Y-79375000D01*
D25*
X115990001Y-51649999D02*
X116840000Y-50800000D01*
X115289999Y-52350001D02*
X115990001Y-51649999D01*
X105690001Y-52350001D02*
X115289999Y-52350001D01*
X104140000Y-50800000D02*
X105690001Y-52350001D01*
D24*
X86995000Y-52705000D02*
X88900000Y-50800000D01*
X85725000Y-52705000D02*
X86995000Y-52705000D01*
X57150000Y-58420000D02*
X58420000Y-58420000D01*
X58420000Y-58420000D02*
X62230000Y-54610000D01*
D27*
X87330000Y-69310000D02*
X81915000Y-74725000D01*
X81915000Y-74725000D02*
X81915000Y-78105000D01*
D24*
X86995000Y-87630000D02*
X82550000Y-87630000D01*
X82550000Y-87630000D02*
X76200000Y-93980000D01*
D23*
X86995000Y-96520000D02*
X73660000Y-96520000D01*
X73660000Y-96520000D02*
X70358000Y-93218000D01*
X92202000Y-96647000D02*
X92075000Y-96520000D01*
X92202000Y-99875001D02*
X92202000Y-96647000D01*
D24*
X94615000Y-95250000D02*
X94615000Y-96520000D01*
X91440000Y-92075000D02*
X94615000Y-95250000D01*
X100965000Y-93980000D02*
X108585000Y-93980000D01*
X108585000Y-93980000D02*
X109220000Y-93345000D01*
D28*
G36*
X87553709Y-49207247D02*
G01*
X87418341Y-49318341D01*
X87307247Y-49453709D01*
X87224697Y-49608149D01*
X87173864Y-49775726D01*
X87156699Y-49950000D01*
X87156699Y-50932512D01*
X86523212Y-51566000D01*
X86340504Y-51566000D01*
X86335570Y-51562703D01*
X86100987Y-51465535D01*
X85851955Y-51416000D01*
X85598045Y-51416000D01*
X85349013Y-51465535D01*
X85114430Y-51562703D01*
X84903310Y-51703768D01*
X84723768Y-51883310D01*
X84582703Y-52094430D01*
X84485535Y-52329013D01*
X84436000Y-52578045D01*
X84436000Y-52831955D01*
X84485535Y-53080987D01*
X84582703Y-53315570D01*
X84723768Y-53526690D01*
X84903310Y-53706232D01*
X85114430Y-53847297D01*
X85349013Y-53944465D01*
X85403840Y-53955371D01*
X83054169Y-56305043D01*
X83010710Y-56340709D01*
X82975044Y-56384168D01*
X82975040Y-56384172D01*
X82868374Y-56514144D01*
X82815492Y-56613080D01*
X82762610Y-56712015D01*
X82697480Y-56926717D01*
X82681000Y-57094045D01*
X82681000Y-57094055D01*
X82675490Y-57150000D01*
X82681000Y-57205945D01*
X82681000Y-58364055D01*
X82675490Y-58420000D01*
X82681000Y-58475945D01*
X82681000Y-58475954D01*
X82688391Y-58551000D01*
X74985944Y-58551000D01*
X74929999Y-58545490D01*
X74874054Y-58551000D01*
X74874045Y-58551000D01*
X74706717Y-58567480D01*
X74492015Y-58632610D01*
X74399907Y-58681843D01*
X74294143Y-58738374D01*
X74164171Y-58845040D01*
X74164168Y-58845043D01*
X74120709Y-58880709D01*
X74085043Y-58924168D01*
X68933301Y-64075911D01*
X68933301Y-60865000D01*
X68916136Y-60690726D01*
X68865303Y-60523149D01*
X68782753Y-60368709D01*
X68671659Y-60233341D01*
X68536291Y-60122247D01*
X68381851Y-60039697D01*
X68214274Y-59988864D01*
X68040000Y-59971699D01*
X64040000Y-59971699D01*
X63865726Y-59988864D01*
X63698149Y-60039697D01*
X63543709Y-60122247D01*
X63408341Y-60233341D01*
X63297247Y-60368709D01*
X63214697Y-60523149D01*
X63163864Y-60690726D01*
X63146699Y-60865000D01*
X63146699Y-64865000D01*
X63163864Y-65039274D01*
X63214697Y-65206851D01*
X63297247Y-65361291D01*
X63408341Y-65496659D01*
X63543709Y-65607753D01*
X63698149Y-65690303D01*
X63865726Y-65741136D01*
X64040000Y-65758301D01*
X67321780Y-65758301D01*
X67291000Y-65913045D01*
X67291000Y-66166955D01*
X67340535Y-66415987D01*
X67437703Y-66650570D01*
X67578768Y-66861690D01*
X67758310Y-67041232D01*
X67969430Y-67182297D01*
X68204013Y-67279465D01*
X68453045Y-67329000D01*
X68706955Y-67329000D01*
X68955987Y-67279465D01*
X69190570Y-67182297D01*
X69401690Y-67041232D01*
X69581232Y-66861690D01*
X69722297Y-66650570D01*
X69819465Y-66415987D01*
X69820623Y-66410165D01*
X75401789Y-60829000D01*
X84474496Y-60829000D01*
X84479430Y-60832297D01*
X84714013Y-60929465D01*
X84963045Y-60979000D01*
X85089508Y-60979000D01*
X85059381Y-61347885D01*
X85110401Y-61790133D01*
X85246719Y-62213930D01*
X85421001Y-62539988D01*
X85749360Y-62711035D01*
X87150395Y-61310000D01*
X87509605Y-61310000D01*
X88910640Y-62711035D01*
X89238999Y-62539988D01*
X89442277Y-62143927D01*
X89564381Y-61715818D01*
X89600619Y-61272115D01*
X89549599Y-60829867D01*
X89413281Y-60406070D01*
X89238999Y-60080012D01*
X88910640Y-59908965D01*
X87509605Y-61310000D01*
X87150395Y-61310000D01*
X87136253Y-61295858D01*
X87315858Y-61116253D01*
X87330000Y-61130395D01*
X88731035Y-59729360D01*
X88602768Y-59483125D01*
X88932581Y-59262751D01*
X89282751Y-58912581D01*
X89557878Y-58500825D01*
X89747388Y-58043307D01*
X89844000Y-57557607D01*
X89844000Y-57062393D01*
X89747388Y-56576693D01*
X89557878Y-56119175D01*
X89282751Y-55707419D01*
X89264894Y-55689562D01*
X89337985Y-55667390D01*
X89535856Y-55561626D01*
X89709291Y-55419291D01*
X89744962Y-55375826D01*
X92205833Y-52914956D01*
X92249291Y-52879291D01*
X92284957Y-52835832D01*
X92284960Y-52835829D01*
X92391626Y-52705857D01*
X92497389Y-52507986D01*
X92497390Y-52507985D01*
X92562520Y-52293283D01*
X92579000Y-52125955D01*
X92579000Y-52125936D01*
X92579614Y-52119703D01*
X92790769Y-51908548D01*
X92875418Y-51781862D01*
X92979731Y-51897588D01*
X93213080Y-52071641D01*
X93475901Y-52196825D01*
X93623110Y-52241476D01*
X93853000Y-52120155D01*
X93853000Y-50927000D01*
X93833000Y-50927000D01*
X93833000Y-50673000D01*
X93853000Y-50673000D01*
X93853000Y-49479845D01*
X93623110Y-49358524D01*
X93475901Y-49403175D01*
X93213080Y-49528359D01*
X92979731Y-49702412D01*
X92875418Y-49818138D01*
X92790769Y-49691452D01*
X92548548Y-49449231D01*
X92263725Y-49258918D01*
X92058715Y-49174000D01*
X95901285Y-49174000D01*
X95696275Y-49258918D01*
X95411452Y-49449231D01*
X95169231Y-49691452D01*
X95084582Y-49818138D01*
X94980269Y-49702412D01*
X94746920Y-49528359D01*
X94484099Y-49403175D01*
X94336890Y-49358524D01*
X94107000Y-49479845D01*
X94107000Y-50673000D01*
X94127000Y-50673000D01*
X94127000Y-50927000D01*
X94107000Y-50927000D01*
X94107000Y-52120155D01*
X94336890Y-52241476D01*
X94484099Y-52196825D01*
X94746920Y-52071641D01*
X94980269Y-51897588D01*
X95084582Y-51781862D01*
X95169231Y-51908548D01*
X95411452Y-52150769D01*
X95696275Y-52341082D01*
X96012752Y-52472171D01*
X96348723Y-52539000D01*
X96691277Y-52539000D01*
X97027248Y-52472171D01*
X97343725Y-52341082D01*
X97628548Y-52150769D01*
X97663000Y-52116317D01*
X97663000Y-80010000D01*
X97665440Y-80034776D01*
X97672667Y-80058601D01*
X97684403Y-80080557D01*
X97700197Y-80099803D01*
X97719443Y-80115597D01*
X97741399Y-80127333D01*
X97765224Y-80134560D01*
X97790000Y-80137000D01*
X106553000Y-80137000D01*
X106553000Y-92841000D01*
X102285317Y-92841000D01*
X102154317Y-92710000D01*
X102315769Y-92548548D01*
X102506082Y-92263725D01*
X102637171Y-91947248D01*
X102704000Y-91611277D01*
X102704000Y-91268723D01*
X102637171Y-90932752D01*
X102506082Y-90616275D01*
X102315769Y-90331452D01*
X102154317Y-90170000D01*
X102315769Y-90008548D01*
X102506082Y-89723725D01*
X102637171Y-89407248D01*
X102704000Y-89071277D01*
X102704000Y-88728723D01*
X102637171Y-88392752D01*
X102506082Y-88076275D01*
X102315769Y-87791452D01*
X102229000Y-87704683D01*
X102229000Y-84186739D01*
X102311291Y-84142753D01*
X102446659Y-84031659D01*
X102557753Y-83896291D01*
X102640303Y-83741851D01*
X102691136Y-83574274D01*
X102708301Y-83400000D01*
X102708301Y-81700000D01*
X102691136Y-81525726D01*
X102640303Y-81358149D01*
X102557753Y-81203709D01*
X102446659Y-81068341D01*
X102311291Y-80957247D01*
X102156851Y-80874697D01*
X101989274Y-80823864D01*
X101815000Y-80806699D01*
X100115000Y-80806699D01*
X99940726Y-80823864D01*
X99773149Y-80874697D01*
X99618709Y-80957247D01*
X99483341Y-81068341D01*
X99431746Y-81131209D01*
X99248725Y-81008918D01*
X98932248Y-80877829D01*
X98596277Y-80811000D01*
X98253723Y-80811000D01*
X97917752Y-80877829D01*
X97601275Y-81008918D01*
X97316452Y-81199231D01*
X97155000Y-81360683D01*
X96993548Y-81199231D01*
X96708725Y-81008918D01*
X96392248Y-80877829D01*
X96056277Y-80811000D01*
X95713723Y-80811000D01*
X95377752Y-80877829D01*
X95061275Y-81008918D01*
X94776452Y-81199231D01*
X94615000Y-81360683D01*
X94453548Y-81199231D01*
X94168725Y-81008918D01*
X93852248Y-80877829D01*
X93516277Y-80811000D01*
X93173723Y-80811000D01*
X92837752Y-80877829D01*
X92521275Y-81008918D01*
X92236452Y-81199231D01*
X91994231Y-81441452D01*
X91803918Y-81726275D01*
X91672829Y-82042752D01*
X91606000Y-82378723D01*
X91606000Y-82721277D01*
X91672829Y-83057248D01*
X91803918Y-83373725D01*
X91994231Y-83658548D01*
X92236452Y-83900769D01*
X92521275Y-84091082D01*
X92837752Y-84222171D01*
X93173723Y-84289000D01*
X93516277Y-84289000D01*
X93852248Y-84222171D01*
X94168725Y-84091082D01*
X94453548Y-83900769D01*
X94615000Y-83739317D01*
X94776452Y-83900769D01*
X95061275Y-84091082D01*
X95377752Y-84222171D01*
X95713723Y-84289000D01*
X96056277Y-84289000D01*
X96392248Y-84222171D01*
X96708725Y-84091082D01*
X96993548Y-83900769D01*
X97155000Y-83739317D01*
X97316452Y-83900769D01*
X97601275Y-84091082D01*
X97917752Y-84222171D01*
X98253723Y-84289000D01*
X98596277Y-84289000D01*
X98932248Y-84222171D01*
X99248725Y-84091082D01*
X99431746Y-83968791D01*
X99483341Y-84031659D01*
X99618709Y-84142753D01*
X99701001Y-84186739D01*
X99701000Y-87704683D01*
X99614231Y-87791452D01*
X99423918Y-88076275D01*
X99292829Y-88392752D01*
X99226000Y-88728723D01*
X99226000Y-89071277D01*
X99292829Y-89407248D01*
X99423918Y-89723725D01*
X99614231Y-90008548D01*
X99775683Y-90170000D01*
X99614231Y-90331452D01*
X99423918Y-90616275D01*
X99292829Y-90932752D01*
X99226000Y-91268723D01*
X99226000Y-91611277D01*
X99292829Y-91947248D01*
X99423918Y-92263725D01*
X99614231Y-92548548D01*
X99775683Y-92710000D01*
X99614231Y-92871452D01*
X99423918Y-93156275D01*
X99292829Y-93472752D01*
X99226000Y-93808723D01*
X99226000Y-94151277D01*
X99292829Y-94487248D01*
X99423918Y-94803725D01*
X99546209Y-94986746D01*
X99483341Y-95038341D01*
X99372247Y-95173709D01*
X99289697Y-95328149D01*
X99238864Y-95495726D01*
X99221699Y-95670000D01*
X99221699Y-97370000D01*
X99238864Y-97544274D01*
X99289697Y-97711851D01*
X99372247Y-97866291D01*
X99483341Y-98001659D01*
X99618709Y-98112753D01*
X99773149Y-98195303D01*
X99940726Y-98246136D01*
X100115000Y-98263301D01*
X101815000Y-98263301D01*
X101989274Y-98246136D01*
X102156851Y-98195303D01*
X102311291Y-98112753D01*
X102446659Y-98001659D01*
X102557753Y-97866291D01*
X102640303Y-97711851D01*
X102691136Y-97544274D01*
X102708301Y-97370000D01*
X102708301Y-95670000D01*
X102691136Y-95495726D01*
X102640303Y-95328149D01*
X102557753Y-95173709D01*
X102512854Y-95119000D01*
X106553000Y-95119000D01*
X106553000Y-100051000D01*
X98307245Y-100051000D01*
X98317000Y-100001956D01*
X98317000Y-99748046D01*
X98267465Y-99499014D01*
X98170297Y-99264431D01*
X98042000Y-99072420D01*
X98042000Y-96569804D01*
X98046905Y-96520000D01*
X98042000Y-96470196D01*
X98042000Y-96470188D01*
X98027328Y-96321221D01*
X98023132Y-96307389D01*
X97969346Y-96130081D01*
X97875189Y-95953926D01*
X97780228Y-95838216D01*
X97780227Y-95838215D01*
X97748475Y-95799525D01*
X97709784Y-95767772D01*
X92470517Y-90528506D01*
X92425465Y-90302013D01*
X92328297Y-90067430D01*
X92187232Y-89856310D01*
X92007690Y-89676768D01*
X91796570Y-89535703D01*
X91561987Y-89438535D01*
X91312955Y-89389000D01*
X91059045Y-89389000D01*
X90810013Y-89438535D01*
X90674000Y-89494874D01*
X90674000Y-88101788D01*
X91175166Y-87600623D01*
X91180987Y-87599465D01*
X91415570Y-87502297D01*
X91626690Y-87361232D01*
X91806232Y-87181690D01*
X91947297Y-86970570D01*
X92044465Y-86735987D01*
X92094000Y-86486955D01*
X92094000Y-86233045D01*
X92044465Y-85984013D01*
X91947297Y-85749430D01*
X91806232Y-85538310D01*
X91626690Y-85358768D01*
X91415570Y-85217703D01*
X91180987Y-85120535D01*
X90931955Y-85071000D01*
X90678045Y-85071000D01*
X90429013Y-85120535D01*
X90194430Y-85217703D01*
X89983310Y-85358768D01*
X89803768Y-85538310D01*
X89662703Y-85749430D01*
X89565535Y-85984013D01*
X89564377Y-85989834D01*
X88769173Y-86785039D01*
X88725709Y-86820709D01*
X88690040Y-86864172D01*
X88603661Y-86969425D01*
X88536082Y-86806275D01*
X88345769Y-86521452D01*
X88103548Y-86279231D01*
X87976862Y-86194582D01*
X88092588Y-86090269D01*
X88266641Y-85856920D01*
X88391825Y-85594099D01*
X88436476Y-85446890D01*
X88315155Y-85217000D01*
X87122000Y-85217000D01*
X87122000Y-85237000D01*
X86868000Y-85237000D01*
X86868000Y-85217000D01*
X85674845Y-85217000D01*
X85553524Y-85446890D01*
X85598175Y-85594099D01*
X85723359Y-85856920D01*
X85897412Y-86090269D01*
X86013138Y-86194582D01*
X85886452Y-86279231D01*
X85674683Y-86491000D01*
X82605944Y-86491000D01*
X82549999Y-86485490D01*
X82494054Y-86491000D01*
X82494045Y-86491000D01*
X82326717Y-86507480D01*
X82112015Y-86572610D01*
X82019907Y-86621843D01*
X81914143Y-86678374D01*
X81784171Y-86785040D01*
X81784168Y-86785043D01*
X81740709Y-86820709D01*
X81705043Y-86864168D01*
X77450371Y-91118841D01*
X77439465Y-91064013D01*
X77342297Y-90829430D01*
X77201232Y-90618310D01*
X77021690Y-90438768D01*
X76810570Y-90297703D01*
X76575987Y-90200535D01*
X76570166Y-90199377D01*
X74799000Y-88428212D01*
X74799000Y-81700000D01*
X85251699Y-81700000D01*
X85251699Y-83400000D01*
X85268864Y-83574274D01*
X85319697Y-83741851D01*
X85402247Y-83896291D01*
X85513341Y-84031659D01*
X85648709Y-84142753D01*
X85798245Y-84222682D01*
X85723359Y-84323080D01*
X85598175Y-84585901D01*
X85553524Y-84733110D01*
X85674845Y-84963000D01*
X86868000Y-84963000D01*
X86868000Y-84943000D01*
X87122000Y-84943000D01*
X87122000Y-84963000D01*
X88315155Y-84963000D01*
X88436476Y-84733110D01*
X88391825Y-84585901D01*
X88266641Y-84323080D01*
X88191755Y-84222682D01*
X88341291Y-84142753D01*
X88476659Y-84031659D01*
X88587753Y-83896291D01*
X88670303Y-83741851D01*
X88721136Y-83574274D01*
X88738301Y-83400000D01*
X88738301Y-81700000D01*
X88721136Y-81525726D01*
X88670303Y-81358149D01*
X88587753Y-81203709D01*
X88476659Y-81068341D01*
X88341291Y-80957247D01*
X88186851Y-80874697D01*
X88019274Y-80823864D01*
X87845000Y-80806699D01*
X86145000Y-80806699D01*
X85970726Y-80823864D01*
X85803149Y-80874697D01*
X85648709Y-80957247D01*
X85513341Y-81068341D01*
X85402247Y-81203709D01*
X85319697Y-81358149D01*
X85268864Y-81525726D01*
X85251699Y-81700000D01*
X74799000Y-81700000D01*
X74799000Y-77978045D01*
X80626000Y-77978045D01*
X80626000Y-78231955D01*
X80675535Y-78480987D01*
X80772703Y-78715570D01*
X80913768Y-78926690D01*
X81093310Y-79106232D01*
X81304430Y-79247297D01*
X81539013Y-79344465D01*
X81788045Y-79394000D01*
X82041955Y-79394000D01*
X82290987Y-79344465D01*
X82525570Y-79247297D01*
X82736690Y-79106232D01*
X82916232Y-78926690D01*
X83057297Y-78715570D01*
X83154465Y-78480987D01*
X83204000Y-78231955D01*
X83204000Y-77978045D01*
X83179000Y-77852360D01*
X83179000Y-75248565D01*
X84824952Y-73602613D01*
X84912612Y-74043307D01*
X85102122Y-74500825D01*
X85377249Y-74912581D01*
X85727419Y-75262751D01*
X85798132Y-75310000D01*
X85727419Y-75357249D01*
X85377249Y-75707419D01*
X85102122Y-76119175D01*
X84912612Y-76576693D01*
X84816000Y-77062393D01*
X84816000Y-77557607D01*
X84912612Y-78043307D01*
X85102122Y-78500825D01*
X85377249Y-78912581D01*
X85727419Y-79262751D01*
X86139175Y-79537878D01*
X86596693Y-79727388D01*
X87082393Y-79824000D01*
X87577607Y-79824000D01*
X88063307Y-79727388D01*
X88520825Y-79537878D01*
X88932581Y-79262751D01*
X89282751Y-78912581D01*
X89557878Y-78500825D01*
X89579345Y-78449000D01*
X90173212Y-78449000D01*
X91469377Y-79745166D01*
X91470535Y-79750987D01*
X91567703Y-79985570D01*
X91708768Y-80196690D01*
X91888310Y-80376232D01*
X92099430Y-80517297D01*
X92334013Y-80614465D01*
X92583045Y-80664000D01*
X92836955Y-80664000D01*
X93085987Y-80614465D01*
X93320570Y-80517297D01*
X93531690Y-80376232D01*
X93711232Y-80196690D01*
X93852297Y-79985570D01*
X93949465Y-79750987D01*
X93999000Y-79501955D01*
X93999000Y-79248045D01*
X93949465Y-78999013D01*
X93852297Y-78764430D01*
X93711232Y-78553310D01*
X93531690Y-78373768D01*
X93320570Y-78232703D01*
X93085987Y-78135535D01*
X93080166Y-78134377D01*
X91489962Y-76544174D01*
X91454291Y-76500709D01*
X91280856Y-76358374D01*
X91082985Y-76252610D01*
X90868283Y-76187480D01*
X90700955Y-76171000D01*
X90700945Y-76171000D01*
X90645000Y-76165490D01*
X90589055Y-76171000D01*
X89579345Y-76171000D01*
X89557878Y-76119175D01*
X89282751Y-75707419D01*
X88932581Y-75357249D01*
X88861868Y-75310000D01*
X88932581Y-75262751D01*
X89282751Y-74912581D01*
X89557878Y-74500825D01*
X89747388Y-74043307D01*
X89844000Y-73557607D01*
X89844000Y-73062393D01*
X89747388Y-72576693D01*
X89557878Y-72119175D01*
X89282751Y-71707419D01*
X88932581Y-71357249D01*
X88861868Y-71310000D01*
X88932581Y-71262751D01*
X89282751Y-70912581D01*
X89557878Y-70500825D01*
X89747388Y-70043307D01*
X89844000Y-69557607D01*
X89844000Y-69062393D01*
X89747388Y-68576693D01*
X89557878Y-68119175D01*
X89282751Y-67707419D01*
X88932581Y-67357249D01*
X88861868Y-67310000D01*
X88932581Y-67262751D01*
X89282751Y-66912581D01*
X89557878Y-66500825D01*
X89747388Y-66043307D01*
X89844000Y-65557607D01*
X89844000Y-65062393D01*
X89747388Y-64576693D01*
X89557878Y-64119175D01*
X89282751Y-63707419D01*
X88932581Y-63357249D01*
X88602768Y-63136875D01*
X88731035Y-62890640D01*
X87330000Y-61489605D01*
X85928965Y-62890640D01*
X86057232Y-63136875D01*
X85727419Y-63357249D01*
X85377249Y-63707419D01*
X85102122Y-64119175D01*
X84912612Y-64576693D01*
X84816000Y-65062393D01*
X84816000Y-65557607D01*
X84912612Y-66043307D01*
X85102122Y-66500825D01*
X85377249Y-66912581D01*
X85727419Y-67262751D01*
X85798132Y-67310000D01*
X85727419Y-67357249D01*
X85377249Y-67707419D01*
X85102122Y-68119175D01*
X84912612Y-68576693D01*
X84816000Y-69062393D01*
X84816000Y-69557607D01*
X84895443Y-69956992D01*
X81065124Y-73787311D01*
X81016893Y-73826893D01*
X80933287Y-73928768D01*
X80858939Y-74019362D01*
X80741567Y-74238949D01*
X80669290Y-74477213D01*
X80644885Y-74725000D01*
X80651000Y-74787087D01*
X80651001Y-77852356D01*
X80626000Y-77978045D01*
X74799000Y-77978045D01*
X74799000Y-75545504D01*
X74802297Y-75540570D01*
X74899465Y-75305987D01*
X74949000Y-75056955D01*
X74949000Y-74803045D01*
X74899465Y-74554013D01*
X74802297Y-74319430D01*
X74661232Y-74108310D01*
X74481690Y-73928768D01*
X74270570Y-73787703D01*
X74035987Y-73690535D01*
X73786955Y-73641000D01*
X73533045Y-73641000D01*
X73284013Y-73690535D01*
X73049430Y-73787703D01*
X72838310Y-73928768D01*
X72658768Y-74108310D01*
X72517703Y-74319430D01*
X72420535Y-74554013D01*
X72371000Y-74803045D01*
X72371000Y-75056955D01*
X72420535Y-75305987D01*
X72517703Y-75540570D01*
X72521000Y-75545504D01*
X72521001Y-88844045D01*
X72515490Y-88900000D01*
X72537481Y-89123283D01*
X72602611Y-89337985D01*
X72708374Y-89535856D01*
X72815040Y-89665828D01*
X72815044Y-89665832D01*
X72850710Y-89709291D01*
X72894169Y-89744957D01*
X74959377Y-91810166D01*
X74960535Y-91815987D01*
X75057703Y-92050570D01*
X75198768Y-92261690D01*
X75378310Y-92441232D01*
X75589430Y-92582297D01*
X75824013Y-92679465D01*
X75878841Y-92690371D01*
X75829835Y-92739377D01*
X75824013Y-92740535D01*
X75589430Y-92837703D01*
X75378310Y-92978768D01*
X75198768Y-93158310D01*
X75057703Y-93369430D01*
X74960535Y-93604013D01*
X74911000Y-93853045D01*
X74911000Y-94106955D01*
X74960535Y-94355987D01*
X75057703Y-94590570D01*
X75198768Y-94801690D01*
X75378310Y-94981232D01*
X75589430Y-95122297D01*
X75824013Y-95219465D01*
X76073045Y-95269000D01*
X76326955Y-95269000D01*
X76575987Y-95219465D01*
X76810570Y-95122297D01*
X77021690Y-94981232D01*
X77201232Y-94801690D01*
X77342297Y-94590570D01*
X77439465Y-94355987D01*
X77440623Y-94350165D01*
X78649970Y-93140818D01*
X78764430Y-93217297D01*
X78999013Y-93314465D01*
X79248045Y-93364000D01*
X79501955Y-93364000D01*
X79750987Y-93314465D01*
X79985570Y-93217297D01*
X80196690Y-93076232D01*
X80376232Y-92896690D01*
X80517297Y-92685570D01*
X80614465Y-92450987D01*
X80615623Y-92445165D01*
X81751789Y-91309000D01*
X85674683Y-91309000D01*
X85886452Y-91520769D01*
X86171275Y-91711082D01*
X86487752Y-91842171D01*
X86823723Y-91909000D01*
X87166277Y-91909000D01*
X87502248Y-91842171D01*
X87818725Y-91711082D01*
X88103548Y-91520769D01*
X88345769Y-91278548D01*
X88396000Y-91203372D01*
X88396001Y-94972146D01*
X88341291Y-94927247D01*
X88186851Y-94844697D01*
X88019274Y-94793864D01*
X87845000Y-94776699D01*
X86145000Y-94776699D01*
X85970726Y-94793864D01*
X85803149Y-94844697D01*
X85648709Y-94927247D01*
X85513341Y-95038341D01*
X85402247Y-95173709D01*
X85319697Y-95328149D01*
X85268864Y-95495726D01*
X85267852Y-95506000D01*
X74080013Y-95506000D01*
X71642517Y-93068505D01*
X71597465Y-92842013D01*
X71500297Y-92607430D01*
X71359232Y-92396310D01*
X71179690Y-92216768D01*
X70968570Y-92075703D01*
X70733987Y-91978535D01*
X70484955Y-91929000D01*
X70231045Y-91929000D01*
X69982013Y-91978535D01*
X69747430Y-92075703D01*
X69536310Y-92216768D01*
X69356768Y-92396310D01*
X69215703Y-92607430D01*
X69118535Y-92842013D01*
X69069000Y-93091045D01*
X69069000Y-93344955D01*
X69118535Y-93593987D01*
X69215703Y-93828570D01*
X69356768Y-94039690D01*
X69536310Y-94219232D01*
X69747430Y-94360297D01*
X69982013Y-94457465D01*
X70208505Y-94502517D01*
X72907777Y-97201789D01*
X72939525Y-97240475D01*
X72978210Y-97272223D01*
X72978215Y-97272228D01*
X73047747Y-97329291D01*
X73093926Y-97367189D01*
X73270082Y-97461346D01*
X73461221Y-97519328D01*
X73610188Y-97534000D01*
X73610198Y-97534000D01*
X73659999Y-97538905D01*
X73709800Y-97534000D01*
X78443078Y-97534000D01*
X78373768Y-97603310D01*
X78232703Y-97814430D01*
X78135535Y-98049013D01*
X78086000Y-98298045D01*
X78086000Y-98551955D01*
X78135535Y-98800987D01*
X78232703Y-99035570D01*
X78373768Y-99246690D01*
X78553310Y-99426232D01*
X78764430Y-99567297D01*
X78999013Y-99664465D01*
X79248045Y-99714000D01*
X79501955Y-99714000D01*
X79750987Y-99664465D01*
X79985570Y-99567297D01*
X80177581Y-99439000D01*
X87580199Y-99439000D01*
X87630000Y-99443905D01*
X87679801Y-99439000D01*
X87679812Y-99439000D01*
X87828779Y-99424328D01*
X88019918Y-99366346D01*
X88196074Y-99272189D01*
X88350475Y-99145475D01*
X88382232Y-99106779D01*
X89252196Y-98236816D01*
X89363723Y-98259000D01*
X89706277Y-98259000D01*
X90042248Y-98192171D01*
X90358725Y-98061082D01*
X90643548Y-97870769D01*
X90805000Y-97709317D01*
X90966452Y-97870769D01*
X91188001Y-98018803D01*
X91188000Y-99072419D01*
X91059703Y-99264431D01*
X90962535Y-99499014D01*
X90913000Y-99748046D01*
X90913000Y-100001956D01*
X90922755Y-100051000D01*
X67900102Y-100051000D01*
X67860161Y-100054934D01*
X67844430Y-100054824D01*
X67831729Y-100056069D01*
X67338723Y-100107886D01*
X67257578Y-100124543D01*
X67176202Y-100140066D01*
X67163985Y-100143755D01*
X66972596Y-100203000D01*
X63033978Y-100203000D01*
X62773984Y-100029277D01*
X62321014Y-99841651D01*
X61840145Y-99746000D01*
X61349855Y-99746000D01*
X61087000Y-99798285D01*
X61087000Y-74712499D01*
X64372106Y-74712499D01*
X64588228Y-75079258D01*
X65048105Y-75319938D01*
X65546098Y-75466275D01*
X66063071Y-75512648D01*
X66579159Y-75457273D01*
X67074526Y-75302279D01*
X67491772Y-75079258D01*
X67707894Y-74712499D01*
X66040000Y-73044605D01*
X64372106Y-74712499D01*
X61087000Y-74712499D01*
X61087000Y-72888071D01*
X63392352Y-72888071D01*
X63447727Y-73404159D01*
X63602721Y-73899526D01*
X63825742Y-74316772D01*
X64192501Y-74532894D01*
X65860395Y-72865000D01*
X66219605Y-72865000D01*
X67887499Y-74532894D01*
X68254258Y-74316772D01*
X68494938Y-73856895D01*
X68641275Y-73358902D01*
X68687648Y-72841929D01*
X68632273Y-72325841D01*
X68477279Y-71830474D01*
X68254258Y-71413228D01*
X67887499Y-71197106D01*
X66219605Y-72865000D01*
X65860395Y-72865000D01*
X64192501Y-71197106D01*
X63825742Y-71413228D01*
X63585062Y-71873105D01*
X63438725Y-72371098D01*
X63392352Y-72888071D01*
X61087000Y-72888071D01*
X61087000Y-71017501D01*
X64372106Y-71017501D01*
X66040000Y-72685395D01*
X67707894Y-71017501D01*
X67491772Y-70650742D01*
X67031895Y-70410062D01*
X66533902Y-70263725D01*
X66016929Y-70217352D01*
X65500841Y-70272727D01*
X65005474Y-70427721D01*
X64588228Y-70650742D01*
X64372106Y-71017501D01*
X61087000Y-71017501D01*
X61087000Y-57363789D01*
X62600167Y-55850623D01*
X62605987Y-55849465D01*
X62840570Y-55752297D01*
X63051690Y-55611232D01*
X63231232Y-55431690D01*
X63372297Y-55220570D01*
X63469465Y-54985987D01*
X63519000Y-54736955D01*
X63519000Y-54483045D01*
X63469465Y-54234013D01*
X63372297Y-53999430D01*
X63231232Y-53788310D01*
X63051690Y-53608768D01*
X62840570Y-53467703D01*
X62605987Y-53370535D01*
X62356955Y-53321000D01*
X62103045Y-53321000D01*
X61854013Y-53370535D01*
X61619430Y-53467703D01*
X61408310Y-53608768D01*
X61228768Y-53788310D01*
X61087703Y-53999430D01*
X61087000Y-54001127D01*
X61087000Y-49174000D01*
X87615910Y-49174000D01*
X87553709Y-49207247D01*
G37*
X87553709Y-49207247D02*
X87418341Y-49318341D01*
X87307247Y-49453709D01*
X87224697Y-49608149D01*
X87173864Y-49775726D01*
X87156699Y-49950000D01*
X87156699Y-50932512D01*
X86523212Y-51566000D01*
X86340504Y-51566000D01*
X86335570Y-51562703D01*
X86100987Y-51465535D01*
X85851955Y-51416000D01*
X85598045Y-51416000D01*
X85349013Y-51465535D01*
X85114430Y-51562703D01*
X84903310Y-51703768D01*
X84723768Y-51883310D01*
X84582703Y-52094430D01*
X84485535Y-52329013D01*
X84436000Y-52578045D01*
X84436000Y-52831955D01*
X84485535Y-53080987D01*
X84582703Y-53315570D01*
X84723768Y-53526690D01*
X84903310Y-53706232D01*
X85114430Y-53847297D01*
X85349013Y-53944465D01*
X85403840Y-53955371D01*
X83054169Y-56305043D01*
X83010710Y-56340709D01*
X82975044Y-56384168D01*
X82975040Y-56384172D01*
X82868374Y-56514144D01*
X82815492Y-56613080D01*
X82762610Y-56712015D01*
X82697480Y-56926717D01*
X82681000Y-57094045D01*
X82681000Y-57094055D01*
X82675490Y-57150000D01*
X82681000Y-57205945D01*
X82681000Y-58364055D01*
X82675490Y-58420000D01*
X82681000Y-58475945D01*
X82681000Y-58475954D01*
X82688391Y-58551000D01*
X74985944Y-58551000D01*
X74929999Y-58545490D01*
X74874054Y-58551000D01*
X74874045Y-58551000D01*
X74706717Y-58567480D01*
X74492015Y-58632610D01*
X74399907Y-58681843D01*
X74294143Y-58738374D01*
X74164171Y-58845040D01*
X74164168Y-58845043D01*
X74120709Y-58880709D01*
X74085043Y-58924168D01*
X68933301Y-64075911D01*
X68933301Y-60865000D01*
X68916136Y-60690726D01*
X68865303Y-60523149D01*
X68782753Y-60368709D01*
X68671659Y-60233341D01*
X68536291Y-60122247D01*
X68381851Y-60039697D01*
X68214274Y-59988864D01*
X68040000Y-59971699D01*
X64040000Y-59971699D01*
X63865726Y-59988864D01*
X63698149Y-60039697D01*
X63543709Y-60122247D01*
X63408341Y-60233341D01*
X63297247Y-60368709D01*
X63214697Y-60523149D01*
X63163864Y-60690726D01*
X63146699Y-60865000D01*
X63146699Y-64865000D01*
X63163864Y-65039274D01*
X63214697Y-65206851D01*
X63297247Y-65361291D01*
X63408341Y-65496659D01*
X63543709Y-65607753D01*
X63698149Y-65690303D01*
X63865726Y-65741136D01*
X64040000Y-65758301D01*
X67321780Y-65758301D01*
X67291000Y-65913045D01*
X67291000Y-66166955D01*
X67340535Y-66415987D01*
X67437703Y-66650570D01*
X67578768Y-66861690D01*
X67758310Y-67041232D01*
X67969430Y-67182297D01*
X68204013Y-67279465D01*
X68453045Y-67329000D01*
X68706955Y-67329000D01*
X68955987Y-67279465D01*
X69190570Y-67182297D01*
X69401690Y-67041232D01*
X69581232Y-66861690D01*
X69722297Y-66650570D01*
X69819465Y-66415987D01*
X69820623Y-66410165D01*
X75401789Y-60829000D01*
X84474496Y-60829000D01*
X84479430Y-60832297D01*
X84714013Y-60929465D01*
X84963045Y-60979000D01*
X85089508Y-60979000D01*
X85059381Y-61347885D01*
X85110401Y-61790133D01*
X85246719Y-62213930D01*
X85421001Y-62539988D01*
X85749360Y-62711035D01*
X87150395Y-61310000D01*
X87509605Y-61310000D01*
X88910640Y-62711035D01*
X89238999Y-62539988D01*
X89442277Y-62143927D01*
X89564381Y-61715818D01*
X89600619Y-61272115D01*
X89549599Y-60829867D01*
X89413281Y-60406070D01*
X89238999Y-60080012D01*
X88910640Y-59908965D01*
X87509605Y-61310000D01*
X87150395Y-61310000D01*
X87136253Y-61295858D01*
X87315858Y-61116253D01*
X87330000Y-61130395D01*
X88731035Y-59729360D01*
X88602768Y-59483125D01*
X88932581Y-59262751D01*
X89282751Y-58912581D01*
X89557878Y-58500825D01*
X89747388Y-58043307D01*
X89844000Y-57557607D01*
X89844000Y-57062393D01*
X89747388Y-56576693D01*
X89557878Y-56119175D01*
X89282751Y-55707419D01*
X89264894Y-55689562D01*
X89337985Y-55667390D01*
X89535856Y-55561626D01*
X89709291Y-55419291D01*
X89744962Y-55375826D01*
X92205833Y-52914956D01*
X92249291Y-52879291D01*
X92284957Y-52835832D01*
X92284960Y-52835829D01*
X92391626Y-52705857D01*
X92497389Y-52507986D01*
X92497390Y-52507985D01*
X92562520Y-52293283D01*
X92579000Y-52125955D01*
X92579000Y-52125936D01*
X92579614Y-52119703D01*
X92790769Y-51908548D01*
X92875418Y-51781862D01*
X92979731Y-51897588D01*
X93213080Y-52071641D01*
X93475901Y-52196825D01*
X93623110Y-52241476D01*
X93853000Y-52120155D01*
X93853000Y-50927000D01*
X93833000Y-50927000D01*
X93833000Y-50673000D01*
X93853000Y-50673000D01*
X93853000Y-49479845D01*
X93623110Y-49358524D01*
X93475901Y-49403175D01*
X93213080Y-49528359D01*
X92979731Y-49702412D01*
X92875418Y-49818138D01*
X92790769Y-49691452D01*
X92548548Y-49449231D01*
X92263725Y-49258918D01*
X92058715Y-49174000D01*
X95901285Y-49174000D01*
X95696275Y-49258918D01*
X95411452Y-49449231D01*
X95169231Y-49691452D01*
X95084582Y-49818138D01*
X94980269Y-49702412D01*
X94746920Y-49528359D01*
X94484099Y-49403175D01*
X94336890Y-49358524D01*
X94107000Y-49479845D01*
X94107000Y-50673000D01*
X94127000Y-50673000D01*
X94127000Y-50927000D01*
X94107000Y-50927000D01*
X94107000Y-52120155D01*
X94336890Y-52241476D01*
X94484099Y-52196825D01*
X94746920Y-52071641D01*
X94980269Y-51897588D01*
X95084582Y-51781862D01*
X95169231Y-51908548D01*
X95411452Y-52150769D01*
X95696275Y-52341082D01*
X96012752Y-52472171D01*
X96348723Y-52539000D01*
X96691277Y-52539000D01*
X97027248Y-52472171D01*
X97343725Y-52341082D01*
X97628548Y-52150769D01*
X97663000Y-52116317D01*
X97663000Y-80010000D01*
X97665440Y-80034776D01*
X97672667Y-80058601D01*
X97684403Y-80080557D01*
X97700197Y-80099803D01*
X97719443Y-80115597D01*
X97741399Y-80127333D01*
X97765224Y-80134560D01*
X97790000Y-80137000D01*
X106553000Y-80137000D01*
X106553000Y-92841000D01*
X102285317Y-92841000D01*
X102154317Y-92710000D01*
X102315769Y-92548548D01*
X102506082Y-92263725D01*
X102637171Y-91947248D01*
X102704000Y-91611277D01*
X102704000Y-91268723D01*
X102637171Y-90932752D01*
X102506082Y-90616275D01*
X102315769Y-90331452D01*
X102154317Y-90170000D01*
X102315769Y-90008548D01*
X102506082Y-89723725D01*
X102637171Y-89407248D01*
X102704000Y-89071277D01*
X102704000Y-88728723D01*
X102637171Y-88392752D01*
X102506082Y-88076275D01*
X102315769Y-87791452D01*
X102229000Y-87704683D01*
X102229000Y-84186739D01*
X102311291Y-84142753D01*
X102446659Y-84031659D01*
X102557753Y-83896291D01*
X102640303Y-83741851D01*
X102691136Y-83574274D01*
X102708301Y-83400000D01*
X102708301Y-81700000D01*
X102691136Y-81525726D01*
X102640303Y-81358149D01*
X102557753Y-81203709D01*
X102446659Y-81068341D01*
X102311291Y-80957247D01*
X102156851Y-80874697D01*
X101989274Y-80823864D01*
X101815000Y-80806699D01*
X100115000Y-80806699D01*
X99940726Y-80823864D01*
X99773149Y-80874697D01*
X99618709Y-80957247D01*
X99483341Y-81068341D01*
X99431746Y-81131209D01*
X99248725Y-81008918D01*
X98932248Y-80877829D01*
X98596277Y-80811000D01*
X98253723Y-80811000D01*
X97917752Y-80877829D01*
X97601275Y-81008918D01*
X97316452Y-81199231D01*
X97155000Y-81360683D01*
X96993548Y-81199231D01*
X96708725Y-81008918D01*
X96392248Y-80877829D01*
X96056277Y-80811000D01*
X95713723Y-80811000D01*
X95377752Y-80877829D01*
X95061275Y-81008918D01*
X94776452Y-81199231D01*
X94615000Y-81360683D01*
X94453548Y-81199231D01*
X94168725Y-81008918D01*
X93852248Y-80877829D01*
X93516277Y-80811000D01*
X93173723Y-80811000D01*
X92837752Y-80877829D01*
X92521275Y-81008918D01*
X92236452Y-81199231D01*
X91994231Y-81441452D01*
X91803918Y-81726275D01*
X91672829Y-82042752D01*
X91606000Y-82378723D01*
X91606000Y-82721277D01*
X91672829Y-83057248D01*
X91803918Y-83373725D01*
X91994231Y-83658548D01*
X92236452Y-83900769D01*
X92521275Y-84091082D01*
X92837752Y-84222171D01*
X93173723Y-84289000D01*
X93516277Y-84289000D01*
X93852248Y-84222171D01*
X94168725Y-84091082D01*
X94453548Y-83900769D01*
X94615000Y-83739317D01*
X94776452Y-83900769D01*
X95061275Y-84091082D01*
X95377752Y-84222171D01*
X95713723Y-84289000D01*
X96056277Y-84289000D01*
X96392248Y-84222171D01*
X96708725Y-84091082D01*
X96993548Y-83900769D01*
X97155000Y-83739317D01*
X97316452Y-83900769D01*
X97601275Y-84091082D01*
X97917752Y-84222171D01*
X98253723Y-84289000D01*
X98596277Y-84289000D01*
X98932248Y-84222171D01*
X99248725Y-84091082D01*
X99431746Y-83968791D01*
X99483341Y-84031659D01*
X99618709Y-84142753D01*
X99701001Y-84186739D01*
X99701000Y-87704683D01*
X99614231Y-87791452D01*
X99423918Y-88076275D01*
X99292829Y-88392752D01*
X99226000Y-88728723D01*
X99226000Y-89071277D01*
X99292829Y-89407248D01*
X99423918Y-89723725D01*
X99614231Y-90008548D01*
X99775683Y-90170000D01*
X99614231Y-90331452D01*
X99423918Y-90616275D01*
X99292829Y-90932752D01*
X99226000Y-91268723D01*
X99226000Y-91611277D01*
X99292829Y-91947248D01*
X99423918Y-92263725D01*
X99614231Y-92548548D01*
X99775683Y-92710000D01*
X99614231Y-92871452D01*
X99423918Y-93156275D01*
X99292829Y-93472752D01*
X99226000Y-93808723D01*
X99226000Y-94151277D01*
X99292829Y-94487248D01*
X99423918Y-94803725D01*
X99546209Y-94986746D01*
X99483341Y-95038341D01*
X99372247Y-95173709D01*
X99289697Y-95328149D01*
X99238864Y-95495726D01*
X99221699Y-95670000D01*
X99221699Y-97370000D01*
X99238864Y-97544274D01*
X99289697Y-97711851D01*
X99372247Y-97866291D01*
X99483341Y-98001659D01*
X99618709Y-98112753D01*
X99773149Y-98195303D01*
X99940726Y-98246136D01*
X100115000Y-98263301D01*
X101815000Y-98263301D01*
X101989274Y-98246136D01*
X102156851Y-98195303D01*
X102311291Y-98112753D01*
X102446659Y-98001659D01*
X102557753Y-97866291D01*
X102640303Y-97711851D01*
X102691136Y-97544274D01*
X102708301Y-97370000D01*
X102708301Y-95670000D01*
X102691136Y-95495726D01*
X102640303Y-95328149D01*
X102557753Y-95173709D01*
X102512854Y-95119000D01*
X106553000Y-95119000D01*
X106553000Y-100051000D01*
X98307245Y-100051000D01*
X98317000Y-100001956D01*
X98317000Y-99748046D01*
X98267465Y-99499014D01*
X98170297Y-99264431D01*
X98042000Y-99072420D01*
X98042000Y-96569804D01*
X98046905Y-96520000D01*
X98042000Y-96470196D01*
X98042000Y-96470188D01*
X98027328Y-96321221D01*
X98023132Y-96307389D01*
X97969346Y-96130081D01*
X97875189Y-95953926D01*
X97780228Y-95838216D01*
X97780227Y-95838215D01*
X97748475Y-95799525D01*
X97709784Y-95767772D01*
X92470517Y-90528506D01*
X92425465Y-90302013D01*
X92328297Y-90067430D01*
X92187232Y-89856310D01*
X92007690Y-89676768D01*
X91796570Y-89535703D01*
X91561987Y-89438535D01*
X91312955Y-89389000D01*
X91059045Y-89389000D01*
X90810013Y-89438535D01*
X90674000Y-89494874D01*
X90674000Y-88101788D01*
X91175166Y-87600623D01*
X91180987Y-87599465D01*
X91415570Y-87502297D01*
X91626690Y-87361232D01*
X91806232Y-87181690D01*
X91947297Y-86970570D01*
X92044465Y-86735987D01*
X92094000Y-86486955D01*
X92094000Y-86233045D01*
X92044465Y-85984013D01*
X91947297Y-85749430D01*
X91806232Y-85538310D01*
X91626690Y-85358768D01*
X91415570Y-85217703D01*
X91180987Y-85120535D01*
X90931955Y-85071000D01*
X90678045Y-85071000D01*
X90429013Y-85120535D01*
X90194430Y-85217703D01*
X89983310Y-85358768D01*
X89803768Y-85538310D01*
X89662703Y-85749430D01*
X89565535Y-85984013D01*
X89564377Y-85989834D01*
X88769173Y-86785039D01*
X88725709Y-86820709D01*
X88690040Y-86864172D01*
X88603661Y-86969425D01*
X88536082Y-86806275D01*
X88345769Y-86521452D01*
X88103548Y-86279231D01*
X87976862Y-86194582D01*
X88092588Y-86090269D01*
X88266641Y-85856920D01*
X88391825Y-85594099D01*
X88436476Y-85446890D01*
X88315155Y-85217000D01*
X87122000Y-85217000D01*
X87122000Y-85237000D01*
X86868000Y-85237000D01*
X86868000Y-85217000D01*
X85674845Y-85217000D01*
X85553524Y-85446890D01*
X85598175Y-85594099D01*
X85723359Y-85856920D01*
X85897412Y-86090269D01*
X86013138Y-86194582D01*
X85886452Y-86279231D01*
X85674683Y-86491000D01*
X82605944Y-86491000D01*
X82549999Y-86485490D01*
X82494054Y-86491000D01*
X82494045Y-86491000D01*
X82326717Y-86507480D01*
X82112015Y-86572610D01*
X82019907Y-86621843D01*
X81914143Y-86678374D01*
X81784171Y-86785040D01*
X81784168Y-86785043D01*
X81740709Y-86820709D01*
X81705043Y-86864168D01*
X77450371Y-91118841D01*
X77439465Y-91064013D01*
X77342297Y-90829430D01*
X77201232Y-90618310D01*
X77021690Y-90438768D01*
X76810570Y-90297703D01*
X76575987Y-90200535D01*
X76570166Y-90199377D01*
X74799000Y-88428212D01*
X74799000Y-81700000D01*
X85251699Y-81700000D01*
X85251699Y-83400000D01*
X85268864Y-83574274D01*
X85319697Y-83741851D01*
X85402247Y-83896291D01*
X85513341Y-84031659D01*
X85648709Y-84142753D01*
X85798245Y-84222682D01*
X85723359Y-84323080D01*
X85598175Y-84585901D01*
X85553524Y-84733110D01*
X85674845Y-84963000D01*
X86868000Y-84963000D01*
X86868000Y-84943000D01*
X87122000Y-84943000D01*
X87122000Y-84963000D01*
X88315155Y-84963000D01*
X88436476Y-84733110D01*
X88391825Y-84585901D01*
X88266641Y-84323080D01*
X88191755Y-84222682D01*
X88341291Y-84142753D01*
X88476659Y-84031659D01*
X88587753Y-83896291D01*
X88670303Y-83741851D01*
X88721136Y-83574274D01*
X88738301Y-83400000D01*
X88738301Y-81700000D01*
X88721136Y-81525726D01*
X88670303Y-81358149D01*
X88587753Y-81203709D01*
X88476659Y-81068341D01*
X88341291Y-80957247D01*
X88186851Y-80874697D01*
X88019274Y-80823864D01*
X87845000Y-80806699D01*
X86145000Y-80806699D01*
X85970726Y-80823864D01*
X85803149Y-80874697D01*
X85648709Y-80957247D01*
X85513341Y-81068341D01*
X85402247Y-81203709D01*
X85319697Y-81358149D01*
X85268864Y-81525726D01*
X85251699Y-81700000D01*
X74799000Y-81700000D01*
X74799000Y-77978045D01*
X80626000Y-77978045D01*
X80626000Y-78231955D01*
X80675535Y-78480987D01*
X80772703Y-78715570D01*
X80913768Y-78926690D01*
X81093310Y-79106232D01*
X81304430Y-79247297D01*
X81539013Y-79344465D01*
X81788045Y-79394000D01*
X82041955Y-79394000D01*
X82290987Y-79344465D01*
X82525570Y-79247297D01*
X82736690Y-79106232D01*
X82916232Y-78926690D01*
X83057297Y-78715570D01*
X83154465Y-78480987D01*
X83204000Y-78231955D01*
X83204000Y-77978045D01*
X83179000Y-77852360D01*
X83179000Y-75248565D01*
X84824952Y-73602613D01*
X84912612Y-74043307D01*
X85102122Y-74500825D01*
X85377249Y-74912581D01*
X85727419Y-75262751D01*
X85798132Y-75310000D01*
X85727419Y-75357249D01*
X85377249Y-75707419D01*
X85102122Y-76119175D01*
X84912612Y-76576693D01*
X84816000Y-77062393D01*
X84816000Y-77557607D01*
X84912612Y-78043307D01*
X85102122Y-78500825D01*
X85377249Y-78912581D01*
X85727419Y-79262751D01*
X86139175Y-79537878D01*
X86596693Y-79727388D01*
X87082393Y-79824000D01*
X87577607Y-79824000D01*
X88063307Y-79727388D01*
X88520825Y-79537878D01*
X88932581Y-79262751D01*
X89282751Y-78912581D01*
X89557878Y-78500825D01*
X89579345Y-78449000D01*
X90173212Y-78449000D01*
X91469377Y-79745166D01*
X91470535Y-79750987D01*
X91567703Y-79985570D01*
X91708768Y-80196690D01*
X91888310Y-80376232D01*
X92099430Y-80517297D01*
X92334013Y-80614465D01*
X92583045Y-80664000D01*
X92836955Y-80664000D01*
X93085987Y-80614465D01*
X93320570Y-80517297D01*
X93531690Y-80376232D01*
X93711232Y-80196690D01*
X93852297Y-79985570D01*
X93949465Y-79750987D01*
X93999000Y-79501955D01*
X93999000Y-79248045D01*
X93949465Y-78999013D01*
X93852297Y-78764430D01*
X93711232Y-78553310D01*
X93531690Y-78373768D01*
X93320570Y-78232703D01*
X93085987Y-78135535D01*
X93080166Y-78134377D01*
X91489962Y-76544174D01*
X91454291Y-76500709D01*
X91280856Y-76358374D01*
X91082985Y-76252610D01*
X90868283Y-76187480D01*
X90700955Y-76171000D01*
X90700945Y-76171000D01*
X90645000Y-76165490D01*
X90589055Y-76171000D01*
X89579345Y-76171000D01*
X89557878Y-76119175D01*
X89282751Y-75707419D01*
X88932581Y-75357249D01*
X88861868Y-75310000D01*
X88932581Y-75262751D01*
X89282751Y-74912581D01*
X89557878Y-74500825D01*
X89747388Y-74043307D01*
X89844000Y-73557607D01*
X89844000Y-73062393D01*
X89747388Y-72576693D01*
X89557878Y-72119175D01*
X89282751Y-71707419D01*
X88932581Y-71357249D01*
X88861868Y-71310000D01*
X88932581Y-71262751D01*
X89282751Y-70912581D01*
X89557878Y-70500825D01*
X89747388Y-70043307D01*
X89844000Y-69557607D01*
X89844000Y-69062393D01*
X89747388Y-68576693D01*
X89557878Y-68119175D01*
X89282751Y-67707419D01*
X88932581Y-67357249D01*
X88861868Y-67310000D01*
X88932581Y-67262751D01*
X89282751Y-66912581D01*
X89557878Y-66500825D01*
X89747388Y-66043307D01*
X89844000Y-65557607D01*
X89844000Y-65062393D01*
X89747388Y-64576693D01*
X89557878Y-64119175D01*
X89282751Y-63707419D01*
X88932581Y-63357249D01*
X88602768Y-63136875D01*
X88731035Y-62890640D01*
X87330000Y-61489605D01*
X85928965Y-62890640D01*
X86057232Y-63136875D01*
X85727419Y-63357249D01*
X85377249Y-63707419D01*
X85102122Y-64119175D01*
X84912612Y-64576693D01*
X84816000Y-65062393D01*
X84816000Y-65557607D01*
X84912612Y-66043307D01*
X85102122Y-66500825D01*
X85377249Y-66912581D01*
X85727419Y-67262751D01*
X85798132Y-67310000D01*
X85727419Y-67357249D01*
X85377249Y-67707419D01*
X85102122Y-68119175D01*
X84912612Y-68576693D01*
X84816000Y-69062393D01*
X84816000Y-69557607D01*
X84895443Y-69956992D01*
X81065124Y-73787311D01*
X81016893Y-73826893D01*
X80933287Y-73928768D01*
X80858939Y-74019362D01*
X80741567Y-74238949D01*
X80669290Y-74477213D01*
X80644885Y-74725000D01*
X80651000Y-74787087D01*
X80651001Y-77852356D01*
X80626000Y-77978045D01*
X74799000Y-77978045D01*
X74799000Y-75545504D01*
X74802297Y-75540570D01*
X74899465Y-75305987D01*
X74949000Y-75056955D01*
X74949000Y-74803045D01*
X74899465Y-74554013D01*
X74802297Y-74319430D01*
X74661232Y-74108310D01*
X74481690Y-73928768D01*
X74270570Y-73787703D01*
X74035987Y-73690535D01*
X73786955Y-73641000D01*
X73533045Y-73641000D01*
X73284013Y-73690535D01*
X73049430Y-73787703D01*
X72838310Y-73928768D01*
X72658768Y-74108310D01*
X72517703Y-74319430D01*
X72420535Y-74554013D01*
X72371000Y-74803045D01*
X72371000Y-75056955D01*
X72420535Y-75305987D01*
X72517703Y-75540570D01*
X72521000Y-75545504D01*
X72521001Y-88844045D01*
X72515490Y-88900000D01*
X72537481Y-89123283D01*
X72602611Y-89337985D01*
X72708374Y-89535856D01*
X72815040Y-89665828D01*
X72815044Y-89665832D01*
X72850710Y-89709291D01*
X72894169Y-89744957D01*
X74959377Y-91810166D01*
X74960535Y-91815987D01*
X75057703Y-92050570D01*
X75198768Y-92261690D01*
X75378310Y-92441232D01*
X75589430Y-92582297D01*
X75824013Y-92679465D01*
X75878841Y-92690371D01*
X75829835Y-92739377D01*
X75824013Y-92740535D01*
X75589430Y-92837703D01*
X75378310Y-92978768D01*
X75198768Y-93158310D01*
X75057703Y-93369430D01*
X74960535Y-93604013D01*
X74911000Y-93853045D01*
X74911000Y-94106955D01*
X74960535Y-94355987D01*
X75057703Y-94590570D01*
X75198768Y-94801690D01*
X75378310Y-94981232D01*
X75589430Y-95122297D01*
X75824013Y-95219465D01*
X76073045Y-95269000D01*
X76326955Y-95269000D01*
X76575987Y-95219465D01*
X76810570Y-95122297D01*
X77021690Y-94981232D01*
X77201232Y-94801690D01*
X77342297Y-94590570D01*
X77439465Y-94355987D01*
X77440623Y-94350165D01*
X78649970Y-93140818D01*
X78764430Y-93217297D01*
X78999013Y-93314465D01*
X79248045Y-93364000D01*
X79501955Y-93364000D01*
X79750987Y-93314465D01*
X79985570Y-93217297D01*
X80196690Y-93076232D01*
X80376232Y-92896690D01*
X80517297Y-92685570D01*
X80614465Y-92450987D01*
X80615623Y-92445165D01*
X81751789Y-91309000D01*
X85674683Y-91309000D01*
X85886452Y-91520769D01*
X86171275Y-91711082D01*
X86487752Y-91842171D01*
X86823723Y-91909000D01*
X87166277Y-91909000D01*
X87502248Y-91842171D01*
X87818725Y-91711082D01*
X88103548Y-91520769D01*
X88345769Y-91278548D01*
X88396000Y-91203372D01*
X88396001Y-94972146D01*
X88341291Y-94927247D01*
X88186851Y-94844697D01*
X88019274Y-94793864D01*
X87845000Y-94776699D01*
X86145000Y-94776699D01*
X85970726Y-94793864D01*
X85803149Y-94844697D01*
X85648709Y-94927247D01*
X85513341Y-95038341D01*
X85402247Y-95173709D01*
X85319697Y-95328149D01*
X85268864Y-95495726D01*
X85267852Y-95506000D01*
X74080013Y-95506000D01*
X71642517Y-93068505D01*
X71597465Y-92842013D01*
X71500297Y-92607430D01*
X71359232Y-92396310D01*
X71179690Y-92216768D01*
X70968570Y-92075703D01*
X70733987Y-91978535D01*
X70484955Y-91929000D01*
X70231045Y-91929000D01*
X69982013Y-91978535D01*
X69747430Y-92075703D01*
X69536310Y-92216768D01*
X69356768Y-92396310D01*
X69215703Y-92607430D01*
X69118535Y-92842013D01*
X69069000Y-93091045D01*
X69069000Y-93344955D01*
X69118535Y-93593987D01*
X69215703Y-93828570D01*
X69356768Y-94039690D01*
X69536310Y-94219232D01*
X69747430Y-94360297D01*
X69982013Y-94457465D01*
X70208505Y-94502517D01*
X72907777Y-97201789D01*
X72939525Y-97240475D01*
X72978210Y-97272223D01*
X72978215Y-97272228D01*
X73047747Y-97329291D01*
X73093926Y-97367189D01*
X73270082Y-97461346D01*
X73461221Y-97519328D01*
X73610188Y-97534000D01*
X73610198Y-97534000D01*
X73659999Y-97538905D01*
X73709800Y-97534000D01*
X78443078Y-97534000D01*
X78373768Y-97603310D01*
X78232703Y-97814430D01*
X78135535Y-98049013D01*
X78086000Y-98298045D01*
X78086000Y-98551955D01*
X78135535Y-98800987D01*
X78232703Y-99035570D01*
X78373768Y-99246690D01*
X78553310Y-99426232D01*
X78764430Y-99567297D01*
X78999013Y-99664465D01*
X79248045Y-99714000D01*
X79501955Y-99714000D01*
X79750987Y-99664465D01*
X79985570Y-99567297D01*
X80177581Y-99439000D01*
X87580199Y-99439000D01*
X87630000Y-99443905D01*
X87679801Y-99439000D01*
X87679812Y-99439000D01*
X87828779Y-99424328D01*
X88019918Y-99366346D01*
X88196074Y-99272189D01*
X88350475Y-99145475D01*
X88382232Y-99106779D01*
X89252196Y-98236816D01*
X89363723Y-98259000D01*
X89706277Y-98259000D01*
X90042248Y-98192171D01*
X90358725Y-98061082D01*
X90643548Y-97870769D01*
X90805000Y-97709317D01*
X90966452Y-97870769D01*
X91188001Y-98018803D01*
X91188000Y-99072419D01*
X91059703Y-99264431D01*
X90962535Y-99499014D01*
X90913000Y-99748046D01*
X90913000Y-100001956D01*
X90922755Y-100051000D01*
X67900102Y-100051000D01*
X67860161Y-100054934D01*
X67844430Y-100054824D01*
X67831729Y-100056069D01*
X67338723Y-100107886D01*
X67257578Y-100124543D01*
X67176202Y-100140066D01*
X67163985Y-100143755D01*
X66972596Y-100203000D01*
X63033978Y-100203000D01*
X62773984Y-100029277D01*
X62321014Y-99841651D01*
X61840145Y-99746000D01*
X61349855Y-99746000D01*
X61087000Y-99798285D01*
X61087000Y-74712499D01*
X64372106Y-74712499D01*
X64588228Y-75079258D01*
X65048105Y-75319938D01*
X65546098Y-75466275D01*
X66063071Y-75512648D01*
X66579159Y-75457273D01*
X67074526Y-75302279D01*
X67491772Y-75079258D01*
X67707894Y-74712499D01*
X66040000Y-73044605D01*
X64372106Y-74712499D01*
X61087000Y-74712499D01*
X61087000Y-72888071D01*
X63392352Y-72888071D01*
X63447727Y-73404159D01*
X63602721Y-73899526D01*
X63825742Y-74316772D01*
X64192501Y-74532894D01*
X65860395Y-72865000D01*
X66219605Y-72865000D01*
X67887499Y-74532894D01*
X68254258Y-74316772D01*
X68494938Y-73856895D01*
X68641275Y-73358902D01*
X68687648Y-72841929D01*
X68632273Y-72325841D01*
X68477279Y-71830474D01*
X68254258Y-71413228D01*
X67887499Y-71197106D01*
X66219605Y-72865000D01*
X65860395Y-72865000D01*
X64192501Y-71197106D01*
X63825742Y-71413228D01*
X63585062Y-71873105D01*
X63438725Y-72371098D01*
X63392352Y-72888071D01*
X61087000Y-72888071D01*
X61087000Y-71017501D01*
X64372106Y-71017501D01*
X66040000Y-72685395D01*
X67707894Y-71017501D01*
X67491772Y-70650742D01*
X67031895Y-70410062D01*
X66533902Y-70263725D01*
X66016929Y-70217352D01*
X65500841Y-70272727D01*
X65005474Y-70427721D01*
X64588228Y-70650742D01*
X64372106Y-71017501D01*
X61087000Y-71017501D01*
X61087000Y-57363789D01*
X62600167Y-55850623D01*
X62605987Y-55849465D01*
X62840570Y-55752297D01*
X63051690Y-55611232D01*
X63231232Y-55431690D01*
X63372297Y-55220570D01*
X63469465Y-54985987D01*
X63519000Y-54736955D01*
X63519000Y-54483045D01*
X63469465Y-54234013D01*
X63372297Y-53999430D01*
X63231232Y-53788310D01*
X63051690Y-53608768D01*
X62840570Y-53467703D01*
X62605987Y-53370535D01*
X62356955Y-53321000D01*
X62103045Y-53321000D01*
X61854013Y-53370535D01*
X61619430Y-53467703D01*
X61408310Y-53608768D01*
X61228768Y-53788310D01*
X61087703Y-53999430D01*
X61087000Y-54001127D01*
X61087000Y-49174000D01*
X87615910Y-49174000D01*
X87553709Y-49207247D01*
M02*
