G04 #@! TF.GenerationSoftware,KiCad,Pcbnew,5.1.5*
G04 #@! TF.CreationDate,2020-04-03T19:56:18-07:00*
G04 #@! TF.ProjectId,EEP_2,4545505f-322e-46b6-9963-61645f706362,rev?*
G04 #@! TF.SameCoordinates,Original*
G04 #@! TF.FileFunction,Legend,Top*
G04 #@! TF.FilePolarity,Positive*
%FSLAX46Y46*%
G04 Gerber Fmt 4.6, Leading zero omitted, Abs format (unit mm)*
G04 Created by KiCad (PCBNEW 5.1.5) date 2020-04-03 19:56:18*
%MOMM*%
%LPD*%
G04 APERTURE LIST*
%ADD10C,0.120000*%
%ADD11C,0.100000*%
%ADD12C,0.150000*%
%ADD13C,0.300000*%
G04 APERTURE END LIST*
D10*
X114300000Y-53975000D02*
X114300000Y-52705000D01*
X111760000Y-53975000D02*
X114300000Y-53975000D01*
X111760000Y-52705000D02*
X111760000Y-53975000D01*
X119380000Y-53975000D02*
X119380000Y-52705000D01*
X116840000Y-53975000D02*
X119380000Y-53975000D01*
X116840000Y-52705000D02*
X116840000Y-53975000D01*
D11*
X76380285Y-95736142D02*
X76349333Y-95767095D01*
X76256476Y-95798047D01*
X76194571Y-95798047D01*
X76101714Y-95767095D01*
X76039809Y-95705190D01*
X76008857Y-95643285D01*
X75977904Y-95519476D01*
X75977904Y-95426619D01*
X76008857Y-95302809D01*
X76039809Y-95240904D01*
X76101714Y-95179000D01*
X76194571Y-95148047D01*
X76256476Y-95148047D01*
X76349333Y-95179000D01*
X76380285Y-95209952D01*
X76782666Y-95148047D02*
X76906476Y-95148047D01*
X76968380Y-95179000D01*
X77030285Y-95240904D01*
X77061238Y-95364714D01*
X77061238Y-95581380D01*
X77030285Y-95705190D01*
X76968380Y-95767095D01*
X76906476Y-95798047D01*
X76782666Y-95798047D01*
X76720761Y-95767095D01*
X76658857Y-95705190D01*
X76627904Y-95581380D01*
X76627904Y-95364714D01*
X76658857Y-95240904D01*
X76720761Y-95179000D01*
X76782666Y-95148047D01*
X77339809Y-95798047D02*
X77339809Y-95148047D01*
X77556476Y-95612333D01*
X77773142Y-95148047D01*
X77773142Y-95798047D01*
X78082666Y-95798047D02*
X78082666Y-95148047D01*
X78330285Y-95148047D01*
X78392190Y-95179000D01*
X78423142Y-95209952D01*
X78454095Y-95271857D01*
X78454095Y-95364714D01*
X78423142Y-95426619D01*
X78392190Y-95457571D01*
X78330285Y-95488523D01*
X78082666Y-95488523D01*
X79871666Y-95767095D02*
X79964523Y-95798047D01*
X80119285Y-95798047D01*
X80181190Y-95767095D01*
X80212142Y-95736142D01*
X80243095Y-95674238D01*
X80243095Y-95612333D01*
X80212142Y-95550428D01*
X80181190Y-95519476D01*
X80119285Y-95488523D01*
X79995476Y-95457571D01*
X79933571Y-95426619D01*
X79902619Y-95395666D01*
X79871666Y-95333761D01*
X79871666Y-95271857D01*
X79902619Y-95209952D01*
X79933571Y-95179000D01*
X79995476Y-95148047D01*
X80150238Y-95148047D01*
X80243095Y-95179000D01*
X80831190Y-95798047D02*
X80521666Y-95798047D01*
X80521666Y-95148047D01*
X81171666Y-95148047D02*
X81295476Y-95148047D01*
X81357380Y-95179000D01*
X81419285Y-95240904D01*
X81450238Y-95364714D01*
X81450238Y-95581380D01*
X81419285Y-95705190D01*
X81357380Y-95767095D01*
X81295476Y-95798047D01*
X81171666Y-95798047D01*
X81109761Y-95767095D01*
X81047857Y-95705190D01*
X81016904Y-95581380D01*
X81016904Y-95364714D01*
X81047857Y-95240904D01*
X81109761Y-95179000D01*
X81171666Y-95148047D01*
X81728809Y-95798047D02*
X81728809Y-95148047D01*
X81976428Y-95148047D01*
X82038333Y-95179000D01*
X82069285Y-95209952D01*
X82100238Y-95271857D01*
X82100238Y-95364714D01*
X82069285Y-95426619D01*
X82038333Y-95457571D01*
X81976428Y-95488523D01*
X81728809Y-95488523D01*
X82378809Y-95457571D02*
X82595476Y-95457571D01*
X82688333Y-95798047D02*
X82378809Y-95798047D01*
X82378809Y-95148047D01*
X82688333Y-95148047D01*
D12*
X89082619Y-91757523D02*
X89082619Y-91186095D01*
X89082619Y-91471809D02*
X90082619Y-91471809D01*
X89939761Y-91376571D01*
X89844523Y-91281333D01*
X89796904Y-91186095D01*
X90082619Y-92614666D02*
X90082619Y-92424190D01*
X90035000Y-92328952D01*
X89987380Y-92281333D01*
X89844523Y-92186095D01*
X89654047Y-92138476D01*
X89273095Y-92138476D01*
X89177857Y-92186095D01*
X89130238Y-92233714D01*
X89082619Y-92328952D01*
X89082619Y-92519428D01*
X89130238Y-92614666D01*
X89177857Y-92662285D01*
X89273095Y-92709904D01*
X89511190Y-92709904D01*
X89606428Y-92662285D01*
X89654047Y-92614666D01*
X89701666Y-92519428D01*
X89701666Y-92328952D01*
X89654047Y-92233714D01*
X89606428Y-92186095D01*
X89511190Y-92138476D01*
X88955619Y-83121523D02*
X88955619Y-82550095D01*
X88955619Y-82835809D02*
X89955619Y-82835809D01*
X89812761Y-82740571D01*
X89717523Y-82645333D01*
X89669904Y-82550095D01*
X89955619Y-83454857D02*
X89955619Y-84073904D01*
X89574666Y-83740571D01*
X89574666Y-83883428D01*
X89527047Y-83978666D01*
X89479428Y-84026285D01*
X89384190Y-84073904D01*
X89146095Y-84073904D01*
X89050857Y-84026285D01*
X89003238Y-83978666D01*
X88955619Y-83883428D01*
X88955619Y-83597714D01*
X89003238Y-83502476D01*
X89050857Y-83454857D01*
X92519523Y-85542380D02*
X91948095Y-85542380D01*
X92233809Y-85542380D02*
X92233809Y-84542380D01*
X92138571Y-84685238D01*
X92043333Y-84780476D01*
X91948095Y-84828095D01*
X92900476Y-84637619D02*
X92948095Y-84590000D01*
X93043333Y-84542380D01*
X93281428Y-84542380D01*
X93376666Y-84590000D01*
X93424285Y-84637619D01*
X93471904Y-84732857D01*
X93471904Y-84828095D01*
X93424285Y-84970952D01*
X92852857Y-85542380D01*
X93471904Y-85542380D01*
X102679523Y-85542380D02*
X102870000Y-85542380D01*
X102965238Y-85494761D01*
X103012857Y-85447142D01*
X103108095Y-85304285D01*
X103155714Y-85113809D01*
X103155714Y-84732857D01*
X103108095Y-84637619D01*
X103060476Y-84590000D01*
X102965238Y-84542380D01*
X102774761Y-84542380D01*
X102679523Y-84590000D01*
X102631904Y-84637619D01*
X102584285Y-84732857D01*
X102584285Y-84970952D01*
X102631904Y-85066190D01*
X102679523Y-85113809D01*
X102774761Y-85161428D01*
X102965238Y-85161428D01*
X103060476Y-85113809D01*
X103108095Y-85066190D01*
X103155714Y-84970952D01*
X98305952Y-87725238D02*
X98258333Y-87820476D01*
X98210714Y-87868095D01*
X98115476Y-87915714D01*
X98067857Y-87915714D01*
X97972619Y-87868095D01*
X97925000Y-87820476D01*
X97877380Y-87725238D01*
X97877380Y-87534761D01*
X97925000Y-87439523D01*
X97972619Y-87391904D01*
X98067857Y-87344285D01*
X98115476Y-87344285D01*
X98210714Y-87391904D01*
X98258333Y-87439523D01*
X98305952Y-87534761D01*
X98305952Y-87725238D01*
X98353571Y-87820476D01*
X98401190Y-87868095D01*
X98496428Y-87915714D01*
X98686904Y-87915714D01*
X98782142Y-87868095D01*
X98829761Y-87820476D01*
X98877380Y-87725238D01*
X98877380Y-87534761D01*
X98829761Y-87439523D01*
X98782142Y-87391904D01*
X98686904Y-87344285D01*
X98496428Y-87344285D01*
X98401190Y-87391904D01*
X98353571Y-87439523D01*
X98305952Y-87534761D01*
X97877380Y-95265904D02*
X97877380Y-95742095D01*
X98353571Y-95789714D01*
X98305952Y-95742095D01*
X98258333Y-95646857D01*
X98258333Y-95408761D01*
X98305952Y-95313523D01*
X98353571Y-95265904D01*
X98448809Y-95218285D01*
X98686904Y-95218285D01*
X98782142Y-95265904D01*
X98829761Y-95313523D01*
X98877380Y-95408761D01*
X98877380Y-95646857D01*
X98829761Y-95742095D01*
X98782142Y-95789714D01*
X96202476Y-93765714D02*
X96202476Y-94432380D01*
X95964380Y-93384761D02*
X95726285Y-94099047D01*
X96345333Y-94099047D01*
X88169714Y-94432380D02*
X87598285Y-94432380D01*
X87884000Y-94432380D02*
X87884000Y-93432380D01*
X87788761Y-93575238D01*
X87693523Y-93670476D01*
X87598285Y-93718095D01*
D11*
X42839047Y-62181666D02*
X42839047Y-62553095D01*
X42839047Y-62367380D02*
X42189047Y-62367380D01*
X42281904Y-62429285D01*
X42343809Y-62491190D01*
X42374761Y-62553095D01*
X42653333Y-61934047D02*
X42653333Y-61624523D01*
X42839047Y-61995952D02*
X42189047Y-61779285D01*
X42839047Y-61562619D01*
X42158095Y-60881666D02*
X42993809Y-61438809D01*
X42250952Y-60695952D02*
X42220000Y-60665000D01*
X42189047Y-60603095D01*
X42189047Y-60448333D01*
X42220000Y-60386428D01*
X42250952Y-60355476D01*
X42312857Y-60324523D01*
X42374761Y-60324523D01*
X42467619Y-60355476D01*
X42839047Y-60726904D01*
X42839047Y-60324523D01*
X42189047Y-59736428D02*
X42189047Y-60045952D01*
X42498571Y-60076904D01*
X42467619Y-60045952D01*
X42436666Y-59984047D01*
X42436666Y-59829285D01*
X42467619Y-59767380D01*
X42498571Y-59736428D01*
X42560476Y-59705476D01*
X42715238Y-59705476D01*
X42777142Y-59736428D01*
X42808095Y-59767380D01*
X42839047Y-59829285D01*
X42839047Y-59984047D01*
X42808095Y-60045952D01*
X42777142Y-60076904D01*
X42189047Y-59303095D02*
X42189047Y-59241190D01*
X42220000Y-59179285D01*
X42250952Y-59148333D01*
X42312857Y-59117380D01*
X42436666Y-59086428D01*
X42591428Y-59086428D01*
X42715238Y-59117380D01*
X42777142Y-59148333D01*
X42808095Y-59179285D01*
X42839047Y-59241190D01*
X42839047Y-59303095D01*
X42808095Y-59365000D01*
X42777142Y-59395952D01*
X42715238Y-59426904D01*
X42591428Y-59457857D01*
X42436666Y-59457857D01*
X42312857Y-59426904D01*
X42250952Y-59395952D01*
X42220000Y-59365000D01*
X42189047Y-59303095D01*
X42189047Y-58900714D02*
X42839047Y-58684047D01*
X42189047Y-58467380D01*
X42498571Y-57538809D02*
X42498571Y-57755476D01*
X42839047Y-57755476D02*
X42189047Y-57755476D01*
X42189047Y-57445952D01*
X42498571Y-56981666D02*
X42529523Y-56888809D01*
X42560476Y-56857857D01*
X42622380Y-56826904D01*
X42715238Y-56826904D01*
X42777142Y-56857857D01*
X42808095Y-56888809D01*
X42839047Y-56950714D01*
X42839047Y-57198333D01*
X42189047Y-57198333D01*
X42189047Y-56981666D01*
X42220000Y-56919761D01*
X42250952Y-56888809D01*
X42312857Y-56857857D01*
X42374761Y-56857857D01*
X42436666Y-56888809D01*
X42467619Y-56919761D01*
X42498571Y-56981666D01*
X42498571Y-57198333D01*
X50538809Y-81574047D02*
X50167380Y-81574047D01*
X50353095Y-81574047D02*
X50353095Y-80924047D01*
X50291190Y-81016904D01*
X50229285Y-81078809D01*
X50167380Y-81109761D01*
X50941190Y-80924047D02*
X51003095Y-80924047D01*
X51065000Y-80955000D01*
X51095952Y-80985952D01*
X51126904Y-81047857D01*
X51157857Y-81171666D01*
X51157857Y-81326428D01*
X51126904Y-81450238D01*
X51095952Y-81512142D01*
X51065000Y-81543095D01*
X51003095Y-81574047D01*
X50941190Y-81574047D01*
X50879285Y-81543095D01*
X50848333Y-81512142D01*
X50817380Y-81450238D01*
X50786428Y-81326428D01*
X50786428Y-81171666D01*
X50817380Y-81047857D01*
X50848333Y-80985952D01*
X50879285Y-80955000D01*
X50941190Y-80924047D01*
X51405476Y-81388333D02*
X51715000Y-81388333D01*
X51343571Y-81574047D02*
X51560238Y-80924047D01*
X51776904Y-81574047D01*
X52457857Y-80893095D02*
X51900714Y-81728809D01*
X52643571Y-80985952D02*
X52674523Y-80955000D01*
X52736428Y-80924047D01*
X52891190Y-80924047D01*
X52953095Y-80955000D01*
X52984047Y-80985952D01*
X53015000Y-81047857D01*
X53015000Y-81109761D01*
X52984047Y-81202619D01*
X52612619Y-81574047D01*
X53015000Y-81574047D01*
X53603095Y-80924047D02*
X53293571Y-80924047D01*
X53262619Y-81233571D01*
X53293571Y-81202619D01*
X53355476Y-81171666D01*
X53510238Y-81171666D01*
X53572142Y-81202619D01*
X53603095Y-81233571D01*
X53634047Y-81295476D01*
X53634047Y-81450238D01*
X53603095Y-81512142D01*
X53572142Y-81543095D01*
X53510238Y-81574047D01*
X53355476Y-81574047D01*
X53293571Y-81543095D01*
X53262619Y-81512142D01*
X54036428Y-80924047D02*
X54098333Y-80924047D01*
X54160238Y-80955000D01*
X54191190Y-80985952D01*
X54222142Y-81047857D01*
X54253095Y-81171666D01*
X54253095Y-81326428D01*
X54222142Y-81450238D01*
X54191190Y-81512142D01*
X54160238Y-81543095D01*
X54098333Y-81574047D01*
X54036428Y-81574047D01*
X53974523Y-81543095D01*
X53943571Y-81512142D01*
X53912619Y-81450238D01*
X53881666Y-81326428D01*
X53881666Y-81171666D01*
X53912619Y-81047857D01*
X53943571Y-80985952D01*
X53974523Y-80955000D01*
X54036428Y-80924047D01*
X54438809Y-80924047D02*
X54655476Y-81574047D01*
X54872142Y-80924047D01*
X55800714Y-81233571D02*
X55584047Y-81233571D01*
X55584047Y-81574047D02*
X55584047Y-80924047D01*
X55893571Y-80924047D01*
X56357857Y-81233571D02*
X56450714Y-81264523D01*
X56481666Y-81295476D01*
X56512619Y-81357380D01*
X56512619Y-81450238D01*
X56481666Y-81512142D01*
X56450714Y-81543095D01*
X56388809Y-81574047D01*
X56141190Y-81574047D01*
X56141190Y-80924047D01*
X56357857Y-80924047D01*
X56419761Y-80955000D01*
X56450714Y-80985952D01*
X56481666Y-81047857D01*
X56481666Y-81109761D01*
X56450714Y-81171666D01*
X56419761Y-81202619D01*
X56357857Y-81233571D01*
X56141190Y-81233571D01*
X67265142Y-99514428D02*
X67515142Y-99514428D01*
X67622285Y-99907285D02*
X67265142Y-99907285D01*
X67265142Y-99157285D01*
X67622285Y-99157285D01*
X67943714Y-99514428D02*
X68193714Y-99514428D01*
X68300857Y-99907285D02*
X67943714Y-99907285D01*
X67943714Y-99157285D01*
X68300857Y-99157285D01*
X68622285Y-99907285D02*
X68622285Y-99157285D01*
X68908000Y-99157285D01*
X68979428Y-99193000D01*
X69015142Y-99228714D01*
X69050857Y-99300142D01*
X69050857Y-99407285D01*
X69015142Y-99478714D01*
X68979428Y-99514428D01*
X68908000Y-99550142D01*
X68622285Y-99550142D01*
X69908000Y-99228714D02*
X69943714Y-99193000D01*
X70015142Y-99157285D01*
X70193714Y-99157285D01*
X70265142Y-99193000D01*
X70300857Y-99228714D01*
X70336571Y-99300142D01*
X70336571Y-99371571D01*
X70300857Y-99478714D01*
X69872285Y-99907285D01*
X70336571Y-99907285D01*
X71229428Y-99907285D02*
X71229428Y-99157285D01*
X71515142Y-99157285D01*
X71586571Y-99193000D01*
X71622285Y-99228714D01*
X71658000Y-99300142D01*
X71658000Y-99407285D01*
X71622285Y-99478714D01*
X71586571Y-99514428D01*
X71515142Y-99550142D01*
X71229428Y-99550142D01*
X72086571Y-99907285D02*
X72015142Y-99871571D01*
X71979428Y-99835857D01*
X71943714Y-99764428D01*
X71943714Y-99550142D01*
X71979428Y-99478714D01*
X72015142Y-99443000D01*
X72086571Y-99407285D01*
X72193714Y-99407285D01*
X72265142Y-99443000D01*
X72300857Y-99478714D01*
X72336571Y-99550142D01*
X72336571Y-99764428D01*
X72300857Y-99835857D01*
X72265142Y-99871571D01*
X72193714Y-99907285D01*
X72086571Y-99907285D01*
X72586571Y-99407285D02*
X72729428Y-99907285D01*
X72872285Y-99550142D01*
X73015142Y-99907285D01*
X73158000Y-99407285D01*
X73729428Y-99871571D02*
X73658000Y-99907285D01*
X73515142Y-99907285D01*
X73443714Y-99871571D01*
X73408000Y-99800142D01*
X73408000Y-99514428D01*
X73443714Y-99443000D01*
X73515142Y-99407285D01*
X73658000Y-99407285D01*
X73729428Y-99443000D01*
X73765142Y-99514428D01*
X73765142Y-99585857D01*
X73408000Y-99657285D01*
X74086571Y-99907285D02*
X74086571Y-99407285D01*
X74086571Y-99550142D02*
X74122285Y-99478714D01*
X74158000Y-99443000D01*
X74229428Y-99407285D01*
X74300857Y-99407285D01*
X75086571Y-99871571D02*
X75193714Y-99907285D01*
X75372285Y-99907285D01*
X75443714Y-99871571D01*
X75479428Y-99835857D01*
X75515142Y-99764428D01*
X75515142Y-99693000D01*
X75479428Y-99621571D01*
X75443714Y-99585857D01*
X75372285Y-99550142D01*
X75229428Y-99514428D01*
X75158000Y-99478714D01*
X75122285Y-99443000D01*
X75086571Y-99371571D01*
X75086571Y-99300142D01*
X75122285Y-99228714D01*
X75158000Y-99193000D01*
X75229428Y-99157285D01*
X75408000Y-99157285D01*
X75515142Y-99193000D01*
X76158000Y-99407285D02*
X76158000Y-99907285D01*
X75836571Y-99407285D02*
X75836571Y-99800142D01*
X75872285Y-99871571D01*
X75943714Y-99907285D01*
X76050857Y-99907285D01*
X76122285Y-99871571D01*
X76158000Y-99835857D01*
X76515142Y-99407285D02*
X76515142Y-100157285D01*
X76515142Y-99443000D02*
X76586571Y-99407285D01*
X76729428Y-99407285D01*
X76800857Y-99443000D01*
X76836571Y-99478714D01*
X76872285Y-99550142D01*
X76872285Y-99764428D01*
X76836571Y-99835857D01*
X76800857Y-99871571D01*
X76729428Y-99907285D01*
X76586571Y-99907285D01*
X76515142Y-99871571D01*
X77193714Y-99407285D02*
X77193714Y-100157285D01*
X77193714Y-99443000D02*
X77265142Y-99407285D01*
X77408000Y-99407285D01*
X77479428Y-99443000D01*
X77515142Y-99478714D01*
X77550857Y-99550142D01*
X77550857Y-99764428D01*
X77515142Y-99835857D01*
X77479428Y-99871571D01*
X77408000Y-99907285D01*
X77265142Y-99907285D01*
X77193714Y-99871571D01*
X77979428Y-99907285D02*
X77908000Y-99871571D01*
X77872285Y-99800142D01*
X77872285Y-99157285D01*
X78193714Y-99407285D02*
X78372285Y-99907285D01*
X78550857Y-99407285D02*
X78372285Y-99907285D01*
X78300857Y-100085857D01*
X78265142Y-100121571D01*
X78193714Y-100157285D01*
X79408000Y-99907285D02*
X79408000Y-99157285D01*
X79693714Y-99157285D01*
X79765142Y-99193000D01*
X79800857Y-99228714D01*
X79836571Y-99300142D01*
X79836571Y-99407285D01*
X79800857Y-99478714D01*
X79765142Y-99514428D01*
X79693714Y-99550142D01*
X79408000Y-99550142D01*
X80158000Y-99907285D02*
X80158000Y-99407285D01*
X80158000Y-99550142D02*
X80193714Y-99478714D01*
X80229428Y-99443000D01*
X80300857Y-99407285D01*
X80372285Y-99407285D01*
X80729428Y-99907285D02*
X80658000Y-99871571D01*
X80622285Y-99835857D01*
X80586571Y-99764428D01*
X80586571Y-99550142D01*
X80622285Y-99478714D01*
X80658000Y-99443000D01*
X80729428Y-99407285D01*
X80836571Y-99407285D01*
X80908000Y-99443000D01*
X80943714Y-99478714D01*
X80979428Y-99550142D01*
X80979428Y-99764428D01*
X80943714Y-99835857D01*
X80908000Y-99871571D01*
X80836571Y-99907285D01*
X80729428Y-99907285D01*
X81193714Y-99407285D02*
X81479428Y-99407285D01*
X81300857Y-99157285D02*
X81300857Y-99800142D01*
X81336571Y-99871571D01*
X81408000Y-99907285D01*
X81479428Y-99907285D01*
X81836571Y-99907285D02*
X81765142Y-99871571D01*
X81729428Y-99835857D01*
X81693714Y-99764428D01*
X81693714Y-99550142D01*
X81729428Y-99478714D01*
X81765142Y-99443000D01*
X81836571Y-99407285D01*
X81943714Y-99407285D01*
X82015142Y-99443000D01*
X82050857Y-99478714D01*
X82086571Y-99550142D01*
X82086571Y-99764428D01*
X82050857Y-99835857D01*
X82015142Y-99871571D01*
X81943714Y-99907285D01*
X81836571Y-99907285D01*
X82300857Y-99407285D02*
X82586571Y-99407285D01*
X82408000Y-99157285D02*
X82408000Y-99800142D01*
X82443714Y-99871571D01*
X82515142Y-99907285D01*
X82586571Y-99907285D01*
X82765142Y-99407285D02*
X82943714Y-99907285D01*
X83122285Y-99407285D02*
X82943714Y-99907285D01*
X82872285Y-100085857D01*
X82836571Y-100121571D01*
X82765142Y-100157285D01*
X83408000Y-99407285D02*
X83408000Y-100157285D01*
X83408000Y-99443000D02*
X83479428Y-99407285D01*
X83622285Y-99407285D01*
X83693714Y-99443000D01*
X83729428Y-99478714D01*
X83765142Y-99550142D01*
X83765142Y-99764428D01*
X83729428Y-99835857D01*
X83693714Y-99871571D01*
X83622285Y-99907285D01*
X83479428Y-99907285D01*
X83408000Y-99871571D01*
X84372285Y-99871571D02*
X84300857Y-99907285D01*
X84158000Y-99907285D01*
X84086571Y-99871571D01*
X84050857Y-99800142D01*
X84050857Y-99514428D01*
X84086571Y-99443000D01*
X84158000Y-99407285D01*
X84300857Y-99407285D01*
X84372285Y-99443000D01*
X84408000Y-99514428D01*
X84408000Y-99585857D01*
X84050857Y-99657285D01*
X85193714Y-99157285D02*
X85443714Y-99907285D01*
X85693714Y-99157285D01*
X86336571Y-99907285D02*
X85908000Y-99907285D01*
X86122285Y-99907285D02*
X86122285Y-99157285D01*
X86050857Y-99264428D01*
X85979428Y-99335857D01*
X85908000Y-99371571D01*
X90050857Y-99693000D02*
X90408000Y-99693000D01*
X89979428Y-99907285D02*
X90229428Y-99157285D01*
X90479428Y-99907285D01*
X91050857Y-99907285D02*
X91050857Y-99514428D01*
X91015142Y-99443000D01*
X90943714Y-99407285D01*
X90800857Y-99407285D01*
X90729428Y-99443000D01*
X91050857Y-99871571D02*
X90979428Y-99907285D01*
X90800857Y-99907285D01*
X90729428Y-99871571D01*
X90693714Y-99800142D01*
X90693714Y-99728714D01*
X90729428Y-99657285D01*
X90800857Y-99621571D01*
X90979428Y-99621571D01*
X91050857Y-99585857D01*
X91408000Y-99907285D02*
X91408000Y-99407285D01*
X91408000Y-99550142D02*
X91443714Y-99478714D01*
X91479428Y-99443000D01*
X91550857Y-99407285D01*
X91622285Y-99407285D01*
X91979428Y-99907285D02*
X91908000Y-99871571D01*
X91872285Y-99835857D01*
X91836571Y-99764428D01*
X91836571Y-99550142D01*
X91872285Y-99478714D01*
X91908000Y-99443000D01*
X91979428Y-99407285D01*
X92086571Y-99407285D01*
X92158000Y-99443000D01*
X92193714Y-99478714D01*
X92229428Y-99550142D01*
X92229428Y-99764428D01*
X92193714Y-99835857D01*
X92158000Y-99871571D01*
X92086571Y-99907285D01*
X91979428Y-99907285D01*
X92550857Y-99407285D02*
X92550857Y-99907285D01*
X92550857Y-99478714D02*
X92586571Y-99443000D01*
X92658000Y-99407285D01*
X92765142Y-99407285D01*
X92836571Y-99443000D01*
X92872285Y-99514428D01*
X92872285Y-99907285D01*
X93765142Y-99871571D02*
X93872285Y-99907285D01*
X94050857Y-99907285D01*
X94122285Y-99871571D01*
X94158000Y-99835857D01*
X94193714Y-99764428D01*
X94193714Y-99693000D01*
X94158000Y-99621571D01*
X94122285Y-99585857D01*
X94050857Y-99550142D01*
X93908000Y-99514428D01*
X93836571Y-99478714D01*
X93800857Y-99443000D01*
X93765142Y-99371571D01*
X93765142Y-99300142D01*
X93800857Y-99228714D01*
X93836571Y-99193000D01*
X93908000Y-99157285D01*
X94086571Y-99157285D01*
X94193714Y-99193000D01*
X94836571Y-99871571D02*
X94765142Y-99907285D01*
X94622285Y-99907285D01*
X94550857Y-99871571D01*
X94515142Y-99835857D01*
X94479428Y-99764428D01*
X94479428Y-99550142D01*
X94515142Y-99478714D01*
X94550857Y-99443000D01*
X94622285Y-99407285D01*
X94765142Y-99407285D01*
X94836571Y-99443000D01*
X95158000Y-99907285D02*
X95158000Y-99157285D01*
X95479428Y-99907285D02*
X95479428Y-99514428D01*
X95443714Y-99443000D01*
X95372285Y-99407285D01*
X95265142Y-99407285D01*
X95193714Y-99443000D01*
X95158000Y-99478714D01*
X95836571Y-99907285D02*
X95836571Y-99407285D01*
X95836571Y-99550142D02*
X95872285Y-99478714D01*
X95908000Y-99443000D01*
X95979428Y-99407285D01*
X96050857Y-99407285D01*
X96622285Y-99907285D02*
X96622285Y-99514428D01*
X96586571Y-99443000D01*
X96515142Y-99407285D01*
X96372285Y-99407285D01*
X96300857Y-99443000D01*
X96622285Y-99871571D02*
X96550857Y-99907285D01*
X96372285Y-99907285D01*
X96300857Y-99871571D01*
X96265142Y-99800142D01*
X96265142Y-99728714D01*
X96300857Y-99657285D01*
X96372285Y-99621571D01*
X96550857Y-99621571D01*
X96622285Y-99585857D01*
X96979428Y-99407285D02*
X96979428Y-99907285D01*
X96979428Y-99478714D02*
X97015142Y-99443000D01*
X97086571Y-99407285D01*
X97193714Y-99407285D01*
X97265142Y-99443000D01*
X97300857Y-99514428D01*
X97300857Y-99907285D01*
X97943714Y-99871571D02*
X97872285Y-99907285D01*
X97729428Y-99907285D01*
X97658000Y-99871571D01*
X97622285Y-99800142D01*
X97622285Y-99514428D01*
X97658000Y-99443000D01*
X97729428Y-99407285D01*
X97872285Y-99407285D01*
X97943714Y-99443000D01*
X97979428Y-99514428D01*
X97979428Y-99585857D01*
X97622285Y-99657285D01*
X98300857Y-99907285D02*
X98300857Y-99407285D01*
X98300857Y-99550142D02*
X98336571Y-99478714D01*
X98372285Y-99443000D01*
X98443714Y-99407285D01*
X98515142Y-99407285D01*
X99872285Y-99121571D02*
X99229428Y-100085857D01*
X100658000Y-99871571D02*
X100765142Y-99907285D01*
X100943714Y-99907285D01*
X101015142Y-99871571D01*
X101050857Y-99835857D01*
X101086571Y-99764428D01*
X101086571Y-99693000D01*
X101050857Y-99621571D01*
X101015142Y-99585857D01*
X100943714Y-99550142D01*
X100800857Y-99514428D01*
X100729428Y-99478714D01*
X100693714Y-99443000D01*
X100658000Y-99371571D01*
X100658000Y-99300142D01*
X100693714Y-99228714D01*
X100729428Y-99193000D01*
X100800857Y-99157285D01*
X100979428Y-99157285D01*
X101086571Y-99193000D01*
X101408000Y-99407285D02*
X101408000Y-100157285D01*
X101408000Y-99443000D02*
X101479428Y-99407285D01*
X101622285Y-99407285D01*
X101693714Y-99443000D01*
X101729428Y-99478714D01*
X101765142Y-99550142D01*
X101765142Y-99764428D01*
X101729428Y-99835857D01*
X101693714Y-99871571D01*
X101622285Y-99907285D01*
X101479428Y-99907285D01*
X101408000Y-99871571D01*
X102372285Y-99871571D02*
X102300857Y-99907285D01*
X102158000Y-99907285D01*
X102086571Y-99871571D01*
X102050857Y-99800142D01*
X102050857Y-99514428D01*
X102086571Y-99443000D01*
X102158000Y-99407285D01*
X102300857Y-99407285D01*
X102372285Y-99443000D01*
X102408000Y-99514428D01*
X102408000Y-99585857D01*
X102050857Y-99657285D01*
X102729428Y-99407285D02*
X102729428Y-99907285D01*
X102729428Y-99478714D02*
X102765142Y-99443000D01*
X102836571Y-99407285D01*
X102943714Y-99407285D01*
X103015142Y-99443000D01*
X103050857Y-99514428D01*
X103050857Y-99907285D01*
X103729428Y-99871571D02*
X103658000Y-99907285D01*
X103515142Y-99907285D01*
X103443714Y-99871571D01*
X103408000Y-99835857D01*
X103372285Y-99764428D01*
X103372285Y-99550142D01*
X103408000Y-99478714D01*
X103443714Y-99443000D01*
X103515142Y-99407285D01*
X103658000Y-99407285D01*
X103729428Y-99443000D01*
X104336571Y-99871571D02*
X104265142Y-99907285D01*
X104122285Y-99907285D01*
X104050857Y-99871571D01*
X104015142Y-99800142D01*
X104015142Y-99514428D01*
X104050857Y-99443000D01*
X104122285Y-99407285D01*
X104265142Y-99407285D01*
X104336571Y-99443000D01*
X104372285Y-99514428D01*
X104372285Y-99585857D01*
X104015142Y-99657285D01*
X104693714Y-99907285D02*
X104693714Y-99407285D01*
X104693714Y-99550142D02*
X104729428Y-99478714D01*
X104765142Y-99443000D01*
X104836571Y-99407285D01*
X104908000Y-99407285D01*
X105729428Y-99907285D02*
X105729428Y-99157285D01*
X105979428Y-99693000D01*
X106229428Y-99157285D01*
X106229428Y-99907285D01*
X106693714Y-99907285D02*
X106622285Y-99871571D01*
X106586571Y-99835857D01*
X106550857Y-99764428D01*
X106550857Y-99550142D01*
X106586571Y-99478714D01*
X106622285Y-99443000D01*
X106693714Y-99407285D01*
X106800857Y-99407285D01*
X106872285Y-99443000D01*
X106908000Y-99478714D01*
X106943714Y-99550142D01*
X106943714Y-99764428D01*
X106908000Y-99835857D01*
X106872285Y-99871571D01*
X106800857Y-99907285D01*
X106693714Y-99907285D01*
X107229428Y-99871571D02*
X107300857Y-99907285D01*
X107443714Y-99907285D01*
X107515142Y-99871571D01*
X107550857Y-99800142D01*
X107550857Y-99764428D01*
X107515142Y-99693000D01*
X107443714Y-99657285D01*
X107336571Y-99657285D01*
X107265142Y-99621571D01*
X107229428Y-99550142D01*
X107229428Y-99514428D01*
X107265142Y-99443000D01*
X107336571Y-99407285D01*
X107443714Y-99407285D01*
X107515142Y-99443000D01*
X107836571Y-99871571D02*
X107908000Y-99907285D01*
X108050857Y-99907285D01*
X108122285Y-99871571D01*
X108158000Y-99800142D01*
X108158000Y-99764428D01*
X108122285Y-99693000D01*
X108050857Y-99657285D01*
X107943714Y-99657285D01*
X107872285Y-99621571D01*
X107836571Y-99550142D01*
X107836571Y-99514428D01*
X107872285Y-99443000D01*
X107943714Y-99407285D01*
X108050857Y-99407285D01*
X108122285Y-99443000D01*
X109015142Y-99228714D02*
X109050857Y-99193000D01*
X109122285Y-99157285D01*
X109300857Y-99157285D01*
X109372285Y-99193000D01*
X109408000Y-99228714D01*
X109443714Y-99300142D01*
X109443714Y-99371571D01*
X109408000Y-99478714D01*
X108979428Y-99907285D01*
X109443714Y-99907285D01*
X109908000Y-99157285D02*
X109979428Y-99157285D01*
X110050857Y-99193000D01*
X110086571Y-99228714D01*
X110122285Y-99300142D01*
X110158000Y-99443000D01*
X110158000Y-99621571D01*
X110122285Y-99764428D01*
X110086571Y-99835857D01*
X110050857Y-99871571D01*
X109979428Y-99907285D01*
X109908000Y-99907285D01*
X109836571Y-99871571D01*
X109800857Y-99835857D01*
X109765142Y-99764428D01*
X109729428Y-99621571D01*
X109729428Y-99443000D01*
X109765142Y-99300142D01*
X109800857Y-99228714D01*
X109836571Y-99193000D01*
X109908000Y-99157285D01*
X110443714Y-99228714D02*
X110479428Y-99193000D01*
X110550857Y-99157285D01*
X110729428Y-99157285D01*
X110800857Y-99193000D01*
X110836571Y-99228714D01*
X110872285Y-99300142D01*
X110872285Y-99371571D01*
X110836571Y-99478714D01*
X110408000Y-99907285D01*
X110872285Y-99907285D01*
X111336571Y-99157285D02*
X111408000Y-99157285D01*
X111479428Y-99193000D01*
X111515142Y-99228714D01*
X111550857Y-99300142D01*
X111586571Y-99443000D01*
X111586571Y-99621571D01*
X111550857Y-99764428D01*
X111515142Y-99835857D01*
X111479428Y-99871571D01*
X111408000Y-99907285D01*
X111336571Y-99907285D01*
X111265142Y-99871571D01*
X111229428Y-99835857D01*
X111193714Y-99764428D01*
X111158000Y-99621571D01*
X111158000Y-99443000D01*
X111193714Y-99300142D01*
X111229428Y-99228714D01*
X111265142Y-99193000D01*
X111336571Y-99157285D01*
D10*
X103124000Y-48768000D02*
X121412000Y-48768000D01*
X103124000Y-54356000D02*
X103124000Y-48768000D01*
D11*
X112572857Y-53040000D02*
X112515714Y-53011428D01*
X112430000Y-53011428D01*
X112344285Y-53040000D01*
X112287142Y-53097142D01*
X112258571Y-53154285D01*
X112230000Y-53268571D01*
X112230000Y-53354285D01*
X112258571Y-53468571D01*
X112287142Y-53525714D01*
X112344285Y-53582857D01*
X112430000Y-53611428D01*
X112487142Y-53611428D01*
X112572857Y-53582857D01*
X112601428Y-53554285D01*
X112601428Y-53354285D01*
X112487142Y-53354285D01*
X112858571Y-53611428D02*
X112858571Y-53011428D01*
X113201428Y-53611428D01*
X113201428Y-53011428D01*
X113487142Y-53611428D02*
X113487142Y-53011428D01*
X113630000Y-53011428D01*
X113715714Y-53040000D01*
X113772857Y-53097142D01*
X113801428Y-53154285D01*
X113830000Y-53268571D01*
X113830000Y-53354285D01*
X113801428Y-53468571D01*
X113772857Y-53525714D01*
X113715714Y-53582857D01*
X113630000Y-53611428D01*
X113487142Y-53611428D01*
X117338571Y-53382857D02*
X117795714Y-53382857D01*
X117567142Y-53611428D02*
X117567142Y-53154285D01*
X118367142Y-53011428D02*
X118081428Y-53011428D01*
X118052857Y-53297142D01*
X118081428Y-53268571D01*
X118138571Y-53240000D01*
X118281428Y-53240000D01*
X118338571Y-53268571D01*
X118367142Y-53297142D01*
X118395714Y-53354285D01*
X118395714Y-53497142D01*
X118367142Y-53554285D01*
X118338571Y-53582857D01*
X118281428Y-53611428D01*
X118138571Y-53611428D01*
X118081428Y-53582857D01*
X118052857Y-53554285D01*
X118567142Y-53011428D02*
X118767142Y-53611428D01*
X118967142Y-53011428D01*
X106380000Y-53797142D02*
X106351428Y-53854285D01*
X106351428Y-53940000D01*
X106380000Y-54025714D01*
X106437142Y-54082857D01*
X106494285Y-54111428D01*
X106608571Y-54140000D01*
X106694285Y-54140000D01*
X106808571Y-54111428D01*
X106865714Y-54082857D01*
X106922857Y-54025714D01*
X106951428Y-53940000D01*
X106951428Y-53882857D01*
X106922857Y-53797142D01*
X106894285Y-53768571D01*
X106694285Y-53768571D01*
X106694285Y-53882857D01*
X106951428Y-53511428D02*
X106351428Y-53511428D01*
X106951428Y-53168571D01*
X106351428Y-53168571D01*
X106951428Y-52882857D02*
X106351428Y-52882857D01*
X106351428Y-52740000D01*
X106380000Y-52654285D01*
X106437142Y-52597142D01*
X106494285Y-52568571D01*
X106608571Y-52540000D01*
X106694285Y-52540000D01*
X106808571Y-52568571D01*
X106865714Y-52597142D01*
X106922857Y-52654285D01*
X106951428Y-52740000D01*
X106951428Y-52882857D01*
X104182857Y-54111428D02*
X104182857Y-53654285D01*
X104411428Y-53882857D02*
X103954285Y-53882857D01*
X103811428Y-53082857D02*
X103811428Y-53368571D01*
X104097142Y-53397142D01*
X104068571Y-53368571D01*
X104040000Y-53311428D01*
X104040000Y-53168571D01*
X104068571Y-53111428D01*
X104097142Y-53082857D01*
X104154285Y-53054285D01*
X104297142Y-53054285D01*
X104354285Y-53082857D01*
X104382857Y-53111428D01*
X104411428Y-53168571D01*
X104411428Y-53311428D01*
X104382857Y-53368571D01*
X104354285Y-53397142D01*
X103811428Y-52882857D02*
X104411428Y-52682857D01*
X103811428Y-52482857D01*
X101271428Y-54140000D02*
X101871428Y-53940000D01*
X101271428Y-53740000D01*
X101814285Y-53197142D02*
X101842857Y-53225714D01*
X101871428Y-53311428D01*
X101871428Y-53368571D01*
X101842857Y-53454285D01*
X101785714Y-53511428D01*
X101728571Y-53540000D01*
X101614285Y-53568571D01*
X101528571Y-53568571D01*
X101414285Y-53540000D01*
X101357142Y-53511428D01*
X101300000Y-53454285D01*
X101271428Y-53368571D01*
X101271428Y-53311428D01*
X101300000Y-53225714D01*
X101328571Y-53197142D01*
X101814285Y-52597142D02*
X101842857Y-52625714D01*
X101871428Y-52711428D01*
X101871428Y-52768571D01*
X101842857Y-52854285D01*
X101785714Y-52911428D01*
X101728571Y-52940000D01*
X101614285Y-52968571D01*
X101528571Y-52968571D01*
X101414285Y-52940000D01*
X101357142Y-52911428D01*
X101300000Y-52854285D01*
X101271428Y-52768571D01*
X101271428Y-52711428D01*
X101300000Y-52625714D01*
X101328571Y-52597142D01*
X99331428Y-53797142D02*
X98731428Y-53797142D01*
X98731428Y-53568571D01*
X98760000Y-53511428D01*
X98788571Y-53482857D01*
X98845714Y-53454285D01*
X98931428Y-53454285D01*
X98988571Y-53482857D01*
X99017142Y-53511428D01*
X99045714Y-53568571D01*
X99045714Y-53797142D01*
X98760000Y-52882857D02*
X98731428Y-52940000D01*
X98731428Y-53025714D01*
X98760000Y-53111428D01*
X98817142Y-53168571D01*
X98874285Y-53197142D01*
X98988571Y-53225714D01*
X99074285Y-53225714D01*
X99188571Y-53197142D01*
X99245714Y-53168571D01*
X99302857Y-53111428D01*
X99331428Y-53025714D01*
X99331428Y-52968571D01*
X99302857Y-52882857D01*
X99274285Y-52854285D01*
X99074285Y-52854285D01*
X99074285Y-52968571D01*
X96620000Y-54125714D02*
X96620000Y-53840000D01*
X96791428Y-54182857D02*
X96191428Y-53982857D01*
X96791428Y-53782857D01*
X96734285Y-53240000D02*
X96762857Y-53268571D01*
X96791428Y-53354285D01*
X96791428Y-53411428D01*
X96762857Y-53497142D01*
X96705714Y-53554285D01*
X96648571Y-53582857D01*
X96534285Y-53611428D01*
X96448571Y-53611428D01*
X96334285Y-53582857D01*
X96277142Y-53554285D01*
X96220000Y-53497142D01*
X96191428Y-53411428D01*
X96191428Y-53354285D01*
X96220000Y-53268571D01*
X96248571Y-53240000D01*
X96791428Y-52982857D02*
X96191428Y-52982857D01*
X96620000Y-52782857D01*
X96191428Y-52582857D01*
X96791428Y-52582857D01*
X93680000Y-53797142D02*
X93651428Y-53854285D01*
X93651428Y-53940000D01*
X93680000Y-54025714D01*
X93737142Y-54082857D01*
X93794285Y-54111428D01*
X93908571Y-54140000D01*
X93994285Y-54140000D01*
X94108571Y-54111428D01*
X94165714Y-54082857D01*
X94222857Y-54025714D01*
X94251428Y-53940000D01*
X94251428Y-53882857D01*
X94222857Y-53797142D01*
X94194285Y-53768571D01*
X93994285Y-53768571D01*
X93994285Y-53882857D01*
X94251428Y-53511428D02*
X93651428Y-53511428D01*
X94251428Y-53168571D01*
X93651428Y-53168571D01*
X94251428Y-52882857D02*
X93651428Y-52882857D01*
X93651428Y-52740000D01*
X93680000Y-52654285D01*
X93737142Y-52597142D01*
X93794285Y-52568571D01*
X93908571Y-52540000D01*
X93994285Y-52540000D01*
X94108571Y-52568571D01*
X94165714Y-52597142D01*
X94222857Y-52654285D01*
X94251428Y-52740000D01*
X94251428Y-52882857D01*
X91711428Y-53654285D02*
X91111428Y-53654285D01*
X91711428Y-53368571D02*
X91111428Y-53368571D01*
X91711428Y-53025714D01*
X91111428Y-53025714D01*
X89000000Y-54082857D02*
X89000000Y-53797142D01*
X89171428Y-54140000D02*
X88571428Y-53940000D01*
X89171428Y-53740000D01*
X88571428Y-53540000D02*
X89057142Y-53540000D01*
X89114285Y-53511428D01*
X89142857Y-53482857D01*
X89171428Y-53425714D01*
X89171428Y-53311428D01*
X89142857Y-53254285D01*
X89114285Y-53225714D01*
X89057142Y-53197142D01*
X88571428Y-53197142D01*
X88571428Y-52968571D02*
X89171428Y-52568571D01*
X88571428Y-52568571D02*
X89171428Y-52968571D01*
D12*
X19558095Y-94750000D02*
X19462857Y-94702380D01*
X19320000Y-94702380D01*
X19177142Y-94750000D01*
X19081904Y-94845238D01*
X19034285Y-94940476D01*
X18986666Y-95130952D01*
X18986666Y-95273809D01*
X19034285Y-95464285D01*
X19081904Y-95559523D01*
X19177142Y-95654761D01*
X19320000Y-95702380D01*
X19415238Y-95702380D01*
X19558095Y-95654761D01*
X19605714Y-95607142D01*
X19605714Y-95273809D01*
X19415238Y-95273809D01*
X20034285Y-95702380D02*
X20034285Y-94702380D01*
X20605714Y-95702380D01*
X20605714Y-94702380D01*
X21081904Y-95702380D02*
X21081904Y-94702380D01*
X21320000Y-94702380D01*
X21462857Y-94750000D01*
X21558095Y-94845238D01*
X21605714Y-94940476D01*
X21653333Y-95130952D01*
X21653333Y-95273809D01*
X21605714Y-95464285D01*
X21558095Y-95559523D01*
X21462857Y-95654761D01*
X21320000Y-95702380D01*
X21081904Y-95702380D01*
D13*
X24535000Y-90618571D02*
X24820714Y-90618571D01*
X24963571Y-90690000D01*
X25106428Y-90832857D01*
X25177857Y-91118571D01*
X25177857Y-91618571D01*
X25106428Y-91904285D01*
X24963571Y-92047142D01*
X24820714Y-92118571D01*
X24535000Y-92118571D01*
X24392142Y-92047142D01*
X24249285Y-91904285D01*
X24177857Y-91618571D01*
X24177857Y-91118571D01*
X24249285Y-90832857D01*
X24392142Y-90690000D01*
X24535000Y-90618571D01*
X25820714Y-90618571D02*
X25820714Y-91832857D01*
X25892142Y-91975714D01*
X25963571Y-92047142D01*
X26106428Y-92118571D01*
X26392142Y-92118571D01*
X26535000Y-92047142D01*
X26606428Y-91975714D01*
X26677857Y-91832857D01*
X26677857Y-90618571D01*
X27177857Y-90618571D02*
X28035000Y-90618571D01*
X27606428Y-92118571D02*
X27606428Y-90618571D01*
D12*
X31424523Y-60142380D02*
X30948333Y-60142380D01*
X30948333Y-59142380D01*
X30829285Y-66492380D02*
X30829285Y-65492380D01*
X31400714Y-66492380D01*
X31400714Y-65492380D01*
X31376904Y-73160000D02*
X31281666Y-73112380D01*
X31138809Y-73112380D01*
X30995952Y-73160000D01*
X30900714Y-73255238D01*
X30853095Y-73350476D01*
X30805476Y-73540952D01*
X30805476Y-73683809D01*
X30853095Y-73874285D01*
X30900714Y-73969523D01*
X30995952Y-74064761D01*
X31138809Y-74112380D01*
X31234047Y-74112380D01*
X31376904Y-74064761D01*
X31424523Y-74017142D01*
X31424523Y-73683809D01*
X31234047Y-73683809D01*
X47760000Y-91178095D02*
X47712380Y-91273333D01*
X47712380Y-91416190D01*
X47760000Y-91559047D01*
X47855238Y-91654285D01*
X47950476Y-91701904D01*
X48140952Y-91749523D01*
X48283809Y-91749523D01*
X48474285Y-91701904D01*
X48569523Y-91654285D01*
X48664761Y-91559047D01*
X48712380Y-91416190D01*
X48712380Y-91320952D01*
X48664761Y-91178095D01*
X48617142Y-91130476D01*
X48283809Y-91130476D01*
X48283809Y-91320952D01*
X41092380Y-91725714D02*
X40092380Y-91725714D01*
X41092380Y-91154285D01*
X40092380Y-91154285D01*
X32202380Y-91130476D02*
X32202380Y-91606666D01*
X31202380Y-91606666D01*
D13*
X30964285Y-51478571D02*
X30964285Y-49978571D01*
X31678571Y-51478571D02*
X31678571Y-49978571D01*
X32535714Y-51478571D01*
X32535714Y-49978571D01*
D10*
X43740000Y-65050000D02*
X50240000Y-65050000D01*
X43740000Y-65050000D02*
X43740000Y-73450000D01*
X50240000Y-65050000D02*
X50240000Y-73450000D01*
X83260000Y-88641422D02*
X83260000Y-89158578D01*
X81840000Y-88641422D02*
X81840000Y-89158578D01*
X104850000Y-96778578D02*
X104850000Y-96261422D01*
X103430000Y-96778578D02*
X103430000Y-96261422D01*
X95626422Y-85015000D02*
X96143578Y-85015000D01*
X95626422Y-86435000D02*
X96143578Y-86435000D01*
X111157936Y-89445000D02*
X112362064Y-89445000D01*
X111157936Y-92165000D02*
X112362064Y-92165000D01*
X78481422Y-88190000D02*
X78998578Y-88190000D01*
X78481422Y-89610000D02*
X78998578Y-89610000D01*
X44380000Y-57295748D02*
X44380000Y-54464252D01*
X49600000Y-57295748D02*
X49600000Y-54464252D01*
X115970000Y-78340000D02*
X118320000Y-78340000D01*
X122790000Y-78340000D02*
X120440000Y-78340000D01*
X122790000Y-72584437D02*
X122790000Y-78340000D01*
X115970000Y-72584437D02*
X115970000Y-78340000D01*
X117034437Y-71520000D02*
X118320000Y-71520000D01*
X121725563Y-71520000D02*
X120440000Y-71520000D01*
X121725563Y-71520000D02*
X122790000Y-72584437D01*
X117034437Y-71520000D02*
X115970000Y-72584437D01*
X121227500Y-70492500D02*
X121227500Y-71280000D01*
X121621250Y-70886250D02*
X120833750Y-70886250D01*
X81160000Y-67865000D02*
G75*
G03X81160000Y-67865000I-15120000J0D01*
G01*
X81121000Y-67865000D02*
X50959000Y-67865000D01*
X81120000Y-67905000D02*
X50960000Y-67905000D01*
X81120000Y-67945000D02*
X50960000Y-67945000D01*
X81120000Y-67985000D02*
X50960000Y-67985000D01*
X81120000Y-68025000D02*
X50960000Y-68025000D01*
X81119000Y-68065000D02*
X50961000Y-68065000D01*
X81119000Y-68105000D02*
X50961000Y-68105000D01*
X81118000Y-68145000D02*
X50962000Y-68145000D01*
X81117000Y-68185000D02*
X50963000Y-68185000D01*
X81116000Y-68225000D02*
X50964000Y-68225000D01*
X81115000Y-68265000D02*
X50965000Y-68265000D01*
X81114000Y-68305000D02*
X50966000Y-68305000D01*
X81113000Y-68345000D02*
X50967000Y-68345000D01*
X81112000Y-68385000D02*
X50968000Y-68385000D01*
X81110000Y-68425000D02*
X50970000Y-68425000D01*
X81109000Y-68465000D02*
X50971000Y-68465000D01*
X81107000Y-68505000D02*
X50973000Y-68505000D01*
X81105000Y-68545000D02*
X50975000Y-68545000D01*
X81103000Y-68586000D02*
X50977000Y-68586000D01*
X81101000Y-68626000D02*
X50979000Y-68626000D01*
X81099000Y-68666000D02*
X50981000Y-68666000D01*
X81097000Y-68706000D02*
X50983000Y-68706000D01*
X81095000Y-68746000D02*
X50985000Y-68746000D01*
X81092000Y-68786000D02*
X50988000Y-68786000D01*
X81090000Y-68826000D02*
X50990000Y-68826000D01*
X81087000Y-68866000D02*
X50993000Y-68866000D01*
X81085000Y-68906000D02*
X50995000Y-68906000D01*
X81082000Y-68946000D02*
X50998000Y-68946000D01*
X81079000Y-68986000D02*
X51001000Y-68986000D01*
X81076000Y-69026000D02*
X51004000Y-69026000D01*
X81073000Y-69066000D02*
X51007000Y-69066000D01*
X81070000Y-69106000D02*
X51010000Y-69106000D01*
X81066000Y-69146000D02*
X51014000Y-69146000D01*
X81063000Y-69186000D02*
X51017000Y-69186000D01*
X81059000Y-69226000D02*
X51021000Y-69226000D01*
X81056000Y-69266000D02*
X51024000Y-69266000D01*
X81052000Y-69306000D02*
X51028000Y-69306000D01*
X81048000Y-69346000D02*
X51032000Y-69346000D01*
X81044000Y-69386000D02*
X51036000Y-69386000D01*
X81040000Y-69426000D02*
X51040000Y-69426000D01*
X81036000Y-69466000D02*
X51044000Y-69466000D01*
X81031000Y-69506000D02*
X51049000Y-69506000D01*
X81027000Y-69546000D02*
X51053000Y-69546000D01*
X81022000Y-69586000D02*
X51058000Y-69586000D01*
X81018000Y-69626000D02*
X51062000Y-69626000D01*
X81013000Y-69666000D02*
X51067000Y-69666000D01*
X81008000Y-69706000D02*
X51072000Y-69706000D01*
X81003000Y-69746000D02*
X51077000Y-69746000D01*
X80998000Y-69786000D02*
X51082000Y-69786000D01*
X80993000Y-69826000D02*
X51087000Y-69826000D01*
X80988000Y-69866000D02*
X51092000Y-69866000D01*
X80982000Y-69906000D02*
X51098000Y-69906000D01*
X80977000Y-69946000D02*
X51103000Y-69946000D01*
X80971000Y-69986000D02*
X51109000Y-69986000D01*
X80965000Y-70026000D02*
X51115000Y-70026000D01*
X80960000Y-70066000D02*
X51120000Y-70066000D01*
X80954000Y-70106000D02*
X51126000Y-70106000D01*
X80948000Y-70146000D02*
X51132000Y-70146000D01*
X80941000Y-70186000D02*
X51139000Y-70186000D01*
X80935000Y-70226000D02*
X51145000Y-70226000D01*
X80929000Y-70266000D02*
X51151000Y-70266000D01*
X80922000Y-70306000D02*
X51158000Y-70306000D01*
X80916000Y-70346000D02*
X51164000Y-70346000D01*
X80909000Y-70386000D02*
X51171000Y-70386000D01*
X80902000Y-70426000D02*
X51178000Y-70426000D01*
X80895000Y-70466000D02*
X51185000Y-70466000D01*
X80888000Y-70506000D02*
X51192000Y-70506000D01*
X80881000Y-70546000D02*
X51199000Y-70546000D01*
X80874000Y-70586000D02*
X51206000Y-70586000D01*
X80866000Y-70626000D02*
X68280000Y-70626000D01*
X63800000Y-70626000D02*
X51214000Y-70626000D01*
X80859000Y-70666000D02*
X68280000Y-70666000D01*
X63800000Y-70666000D02*
X51221000Y-70666000D01*
X80851000Y-70706000D02*
X68280000Y-70706000D01*
X63800000Y-70706000D02*
X51229000Y-70706000D01*
X80844000Y-70746000D02*
X68280000Y-70746000D01*
X63800000Y-70746000D02*
X51236000Y-70746000D01*
X80836000Y-70786000D02*
X68280000Y-70786000D01*
X63800000Y-70786000D02*
X51244000Y-70786000D01*
X80828000Y-70826000D02*
X68280000Y-70826000D01*
X63800000Y-70826000D02*
X51252000Y-70826000D01*
X80820000Y-70866000D02*
X68280000Y-70866000D01*
X63800000Y-70866000D02*
X51260000Y-70866000D01*
X80812000Y-70906000D02*
X68280000Y-70906000D01*
X63800000Y-70906000D02*
X51268000Y-70906000D01*
X80803000Y-70946000D02*
X68280000Y-70946000D01*
X63800000Y-70946000D02*
X51277000Y-70946000D01*
X80795000Y-70986000D02*
X68280000Y-70986000D01*
X63800000Y-70986000D02*
X51285000Y-70986000D01*
X80787000Y-71026000D02*
X68280000Y-71026000D01*
X63800000Y-71026000D02*
X51293000Y-71026000D01*
X80778000Y-71066000D02*
X68280000Y-71066000D01*
X63800000Y-71066000D02*
X51302000Y-71066000D01*
X80769000Y-71106000D02*
X68280000Y-71106000D01*
X63800000Y-71106000D02*
X51311000Y-71106000D01*
X80760000Y-71146000D02*
X68280000Y-71146000D01*
X63800000Y-71146000D02*
X51320000Y-71146000D01*
X80751000Y-71186000D02*
X68280000Y-71186000D01*
X63800000Y-71186000D02*
X51329000Y-71186000D01*
X80742000Y-71226000D02*
X68280000Y-71226000D01*
X63800000Y-71226000D02*
X51338000Y-71226000D01*
X80733000Y-71266000D02*
X68280000Y-71266000D01*
X63800000Y-71266000D02*
X51347000Y-71266000D01*
X80724000Y-71306000D02*
X68280000Y-71306000D01*
X63800000Y-71306000D02*
X51356000Y-71306000D01*
X80715000Y-71346000D02*
X68280000Y-71346000D01*
X63800000Y-71346000D02*
X51365000Y-71346000D01*
X80705000Y-71386000D02*
X68280000Y-71386000D01*
X63800000Y-71386000D02*
X51375000Y-71386000D01*
X80695000Y-71426000D02*
X68280000Y-71426000D01*
X63800000Y-71426000D02*
X51385000Y-71426000D01*
X80686000Y-71466000D02*
X68280000Y-71466000D01*
X63800000Y-71466000D02*
X51394000Y-71466000D01*
X80676000Y-71506000D02*
X68280000Y-71506000D01*
X63800000Y-71506000D02*
X51404000Y-71506000D01*
X80666000Y-71546000D02*
X68280000Y-71546000D01*
X63800000Y-71546000D02*
X51414000Y-71546000D01*
X80656000Y-71586000D02*
X68280000Y-71586000D01*
X63800000Y-71586000D02*
X51424000Y-71586000D01*
X80646000Y-71626000D02*
X68280000Y-71626000D01*
X63800000Y-71626000D02*
X51434000Y-71626000D01*
X80635000Y-71666000D02*
X68280000Y-71666000D01*
X63800000Y-71666000D02*
X51445000Y-71666000D01*
X80625000Y-71706000D02*
X68280000Y-71706000D01*
X63800000Y-71706000D02*
X51455000Y-71706000D01*
X80614000Y-71746000D02*
X68280000Y-71746000D01*
X63800000Y-71746000D02*
X51466000Y-71746000D01*
X80604000Y-71786000D02*
X68280000Y-71786000D01*
X63800000Y-71786000D02*
X51476000Y-71786000D01*
X80593000Y-71826000D02*
X68280000Y-71826000D01*
X63800000Y-71826000D02*
X51487000Y-71826000D01*
X80582000Y-71866000D02*
X68280000Y-71866000D01*
X63800000Y-71866000D02*
X51498000Y-71866000D01*
X80571000Y-71906000D02*
X68280000Y-71906000D01*
X63800000Y-71906000D02*
X51509000Y-71906000D01*
X80560000Y-71946000D02*
X68280000Y-71946000D01*
X63800000Y-71946000D02*
X51520000Y-71946000D01*
X80548000Y-71986000D02*
X68280000Y-71986000D01*
X63800000Y-71986000D02*
X51532000Y-71986000D01*
X80537000Y-72026000D02*
X68280000Y-72026000D01*
X63800000Y-72026000D02*
X51543000Y-72026000D01*
X80525000Y-72066000D02*
X68280000Y-72066000D01*
X63800000Y-72066000D02*
X51555000Y-72066000D01*
X80514000Y-72106000D02*
X68280000Y-72106000D01*
X63800000Y-72106000D02*
X51566000Y-72106000D01*
X80502000Y-72146000D02*
X68280000Y-72146000D01*
X63800000Y-72146000D02*
X51578000Y-72146000D01*
X80490000Y-72186000D02*
X68280000Y-72186000D01*
X63800000Y-72186000D02*
X51590000Y-72186000D01*
X80478000Y-72226000D02*
X68280000Y-72226000D01*
X63800000Y-72226000D02*
X51602000Y-72226000D01*
X80466000Y-72266000D02*
X68280000Y-72266000D01*
X63800000Y-72266000D02*
X51614000Y-72266000D01*
X80454000Y-72306000D02*
X68280000Y-72306000D01*
X63800000Y-72306000D02*
X51626000Y-72306000D01*
X80442000Y-72346000D02*
X68280000Y-72346000D01*
X63800000Y-72346000D02*
X51638000Y-72346000D01*
X80429000Y-72386000D02*
X68280000Y-72386000D01*
X63800000Y-72386000D02*
X51651000Y-72386000D01*
X80416000Y-72426000D02*
X68280000Y-72426000D01*
X63800000Y-72426000D02*
X51664000Y-72426000D01*
X80404000Y-72466000D02*
X68280000Y-72466000D01*
X63800000Y-72466000D02*
X51676000Y-72466000D01*
X80391000Y-72506000D02*
X68280000Y-72506000D01*
X63800000Y-72506000D02*
X51689000Y-72506000D01*
X80378000Y-72546000D02*
X68280000Y-72546000D01*
X63800000Y-72546000D02*
X51702000Y-72546000D01*
X80365000Y-72586000D02*
X68280000Y-72586000D01*
X63800000Y-72586000D02*
X51715000Y-72586000D01*
X80352000Y-72626000D02*
X68280000Y-72626000D01*
X63800000Y-72626000D02*
X51728000Y-72626000D01*
X80338000Y-72666000D02*
X68280000Y-72666000D01*
X63800000Y-72666000D02*
X51742000Y-72666000D01*
X80325000Y-72706000D02*
X68280000Y-72706000D01*
X63800000Y-72706000D02*
X51755000Y-72706000D01*
X80311000Y-72746000D02*
X68280000Y-72746000D01*
X63800000Y-72746000D02*
X51769000Y-72746000D01*
X80298000Y-72786000D02*
X68280000Y-72786000D01*
X63800000Y-72786000D02*
X51782000Y-72786000D01*
X80284000Y-72826000D02*
X68280000Y-72826000D01*
X63800000Y-72826000D02*
X51796000Y-72826000D01*
X80270000Y-72866000D02*
X68280000Y-72866000D01*
X63800000Y-72866000D02*
X51810000Y-72866000D01*
X80256000Y-72906000D02*
X68280000Y-72906000D01*
X63800000Y-72906000D02*
X51824000Y-72906000D01*
X80242000Y-72946000D02*
X68280000Y-72946000D01*
X63800000Y-72946000D02*
X51838000Y-72946000D01*
X80227000Y-72986000D02*
X68280000Y-72986000D01*
X63800000Y-72986000D02*
X51853000Y-72986000D01*
X80213000Y-73026000D02*
X68280000Y-73026000D01*
X63800000Y-73026000D02*
X51867000Y-73026000D01*
X80198000Y-73066000D02*
X68280000Y-73066000D01*
X63800000Y-73066000D02*
X51882000Y-73066000D01*
X80183000Y-73106000D02*
X68280000Y-73106000D01*
X63800000Y-73106000D02*
X51897000Y-73106000D01*
X80169000Y-73146000D02*
X68280000Y-73146000D01*
X63800000Y-73146000D02*
X51911000Y-73146000D01*
X80154000Y-73186000D02*
X68280000Y-73186000D01*
X63800000Y-73186000D02*
X51926000Y-73186000D01*
X80139000Y-73226000D02*
X68280000Y-73226000D01*
X63800000Y-73226000D02*
X51941000Y-73226000D01*
X80123000Y-73266000D02*
X68280000Y-73266000D01*
X63800000Y-73266000D02*
X51957000Y-73266000D01*
X80108000Y-73306000D02*
X68280000Y-73306000D01*
X63800000Y-73306000D02*
X51972000Y-73306000D01*
X80092000Y-73346000D02*
X68280000Y-73346000D01*
X63800000Y-73346000D02*
X51988000Y-73346000D01*
X80077000Y-73386000D02*
X68280000Y-73386000D01*
X63800000Y-73386000D02*
X52003000Y-73386000D01*
X80061000Y-73426000D02*
X68280000Y-73426000D01*
X63800000Y-73426000D02*
X52019000Y-73426000D01*
X80045000Y-73466000D02*
X68280000Y-73466000D01*
X63800000Y-73466000D02*
X52035000Y-73466000D01*
X80029000Y-73506000D02*
X68280000Y-73506000D01*
X63800000Y-73506000D02*
X52051000Y-73506000D01*
X80013000Y-73546000D02*
X68280000Y-73546000D01*
X63800000Y-73546000D02*
X52067000Y-73546000D01*
X79997000Y-73586000D02*
X68280000Y-73586000D01*
X63800000Y-73586000D02*
X52083000Y-73586000D01*
X79980000Y-73626000D02*
X68280000Y-73626000D01*
X63800000Y-73626000D02*
X52100000Y-73626000D01*
X79964000Y-73666000D02*
X68280000Y-73666000D01*
X63800000Y-73666000D02*
X52116000Y-73666000D01*
X79947000Y-73706000D02*
X68280000Y-73706000D01*
X63800000Y-73706000D02*
X52133000Y-73706000D01*
X79930000Y-73746000D02*
X68280000Y-73746000D01*
X63800000Y-73746000D02*
X52150000Y-73746000D01*
X79913000Y-73786000D02*
X68280000Y-73786000D01*
X63800000Y-73786000D02*
X52167000Y-73786000D01*
X79896000Y-73826000D02*
X68280000Y-73826000D01*
X63800000Y-73826000D02*
X52184000Y-73826000D01*
X79879000Y-73866000D02*
X68280000Y-73866000D01*
X63800000Y-73866000D02*
X52201000Y-73866000D01*
X79862000Y-73906000D02*
X68280000Y-73906000D01*
X63800000Y-73906000D02*
X52218000Y-73906000D01*
X79844000Y-73946000D02*
X68280000Y-73946000D01*
X63800000Y-73946000D02*
X52236000Y-73946000D01*
X79827000Y-73986000D02*
X68280000Y-73986000D01*
X63800000Y-73986000D02*
X52253000Y-73986000D01*
X79809000Y-74026000D02*
X68280000Y-74026000D01*
X63800000Y-74026000D02*
X52271000Y-74026000D01*
X79791000Y-74066000D02*
X68280000Y-74066000D01*
X63800000Y-74066000D02*
X52289000Y-74066000D01*
X79773000Y-74106000D02*
X68280000Y-74106000D01*
X63800000Y-74106000D02*
X52307000Y-74106000D01*
X79755000Y-74146000D02*
X68280000Y-74146000D01*
X63800000Y-74146000D02*
X52325000Y-74146000D01*
X79736000Y-74186000D02*
X68280000Y-74186000D01*
X63800000Y-74186000D02*
X52344000Y-74186000D01*
X79718000Y-74226000D02*
X68280000Y-74226000D01*
X63800000Y-74226000D02*
X52362000Y-74226000D01*
X79699000Y-74266000D02*
X68280000Y-74266000D01*
X63800000Y-74266000D02*
X52381000Y-74266000D01*
X79680000Y-74306000D02*
X68280000Y-74306000D01*
X63800000Y-74306000D02*
X52400000Y-74306000D01*
X79662000Y-74346000D02*
X68280000Y-74346000D01*
X63800000Y-74346000D02*
X52418000Y-74346000D01*
X79642000Y-74386000D02*
X68280000Y-74386000D01*
X63800000Y-74386000D02*
X52438000Y-74386000D01*
X79623000Y-74426000D02*
X68280000Y-74426000D01*
X63800000Y-74426000D02*
X52457000Y-74426000D01*
X79604000Y-74466000D02*
X68280000Y-74466000D01*
X63800000Y-74466000D02*
X52476000Y-74466000D01*
X79584000Y-74506000D02*
X68280000Y-74506000D01*
X63800000Y-74506000D02*
X52496000Y-74506000D01*
X79565000Y-74546000D02*
X68280000Y-74546000D01*
X63800000Y-74546000D02*
X52515000Y-74546000D01*
X79545000Y-74586000D02*
X68280000Y-74586000D01*
X63800000Y-74586000D02*
X52535000Y-74586000D01*
X79525000Y-74626000D02*
X68280000Y-74626000D01*
X63800000Y-74626000D02*
X52555000Y-74626000D01*
X79505000Y-74666000D02*
X68280000Y-74666000D01*
X63800000Y-74666000D02*
X52575000Y-74666000D01*
X79485000Y-74706000D02*
X68280000Y-74706000D01*
X63800000Y-74706000D02*
X52595000Y-74706000D01*
X79465000Y-74746000D02*
X68280000Y-74746000D01*
X63800000Y-74746000D02*
X52615000Y-74746000D01*
X79444000Y-74786000D02*
X68280000Y-74786000D01*
X63800000Y-74786000D02*
X52636000Y-74786000D01*
X79423000Y-74826000D02*
X68280000Y-74826000D01*
X63800000Y-74826000D02*
X52657000Y-74826000D01*
X79403000Y-74866000D02*
X68280000Y-74866000D01*
X63800000Y-74866000D02*
X52677000Y-74866000D01*
X79382000Y-74906000D02*
X68280000Y-74906000D01*
X63800000Y-74906000D02*
X52698000Y-74906000D01*
X79360000Y-74946000D02*
X68280000Y-74946000D01*
X63800000Y-74946000D02*
X52720000Y-74946000D01*
X79339000Y-74986000D02*
X68280000Y-74986000D01*
X63800000Y-74986000D02*
X52741000Y-74986000D01*
X79318000Y-75026000D02*
X68280000Y-75026000D01*
X63800000Y-75026000D02*
X52762000Y-75026000D01*
X79296000Y-75066000D02*
X68280000Y-75066000D01*
X63800000Y-75066000D02*
X52784000Y-75066000D01*
X79274000Y-75106000D02*
X52806000Y-75106000D01*
X79253000Y-75146000D02*
X52827000Y-75146000D01*
X79230000Y-75186000D02*
X52850000Y-75186000D01*
X79208000Y-75226000D02*
X52872000Y-75226000D01*
X79186000Y-75266000D02*
X52894000Y-75266000D01*
X79163000Y-75306000D02*
X52917000Y-75306000D01*
X79141000Y-75346000D02*
X52939000Y-75346000D01*
X79118000Y-75386000D02*
X52962000Y-75386000D01*
X79095000Y-75426000D02*
X52985000Y-75426000D01*
X79072000Y-75466000D02*
X53008000Y-75466000D01*
X79048000Y-75506000D02*
X53032000Y-75506000D01*
X79025000Y-75546000D02*
X53055000Y-75546000D01*
X79001000Y-75586000D02*
X53079000Y-75586000D01*
X78977000Y-75626000D02*
X53103000Y-75626000D01*
X78953000Y-75666000D02*
X53127000Y-75666000D01*
X78929000Y-75706000D02*
X53151000Y-75706000D01*
X78905000Y-75746000D02*
X53175000Y-75746000D01*
X78880000Y-75786000D02*
X53200000Y-75786000D01*
X78856000Y-75826000D02*
X53224000Y-75826000D01*
X78831000Y-75866000D02*
X53249000Y-75866000D01*
X78806000Y-75906000D02*
X53274000Y-75906000D01*
X78780000Y-75946000D02*
X53300000Y-75946000D01*
X78755000Y-75986000D02*
X53325000Y-75986000D01*
X78730000Y-76026000D02*
X53350000Y-76026000D01*
X78704000Y-76065000D02*
X53376000Y-76065000D01*
X78678000Y-76105000D02*
X53402000Y-76105000D01*
X78652000Y-76145000D02*
X53428000Y-76145000D01*
X78626000Y-76185000D02*
X53454000Y-76185000D01*
X78599000Y-76225000D02*
X53481000Y-76225000D01*
X78572000Y-76265000D02*
X53508000Y-76265000D01*
X78546000Y-76305000D02*
X53534000Y-76305000D01*
X78519000Y-76345000D02*
X53561000Y-76345000D01*
X78491000Y-76385000D02*
X53589000Y-76385000D01*
X78464000Y-76425000D02*
X53616000Y-76425000D01*
X78437000Y-76465000D02*
X53643000Y-76465000D01*
X78409000Y-76505000D02*
X53671000Y-76505000D01*
X78381000Y-76545000D02*
X53699000Y-76545000D01*
X78353000Y-76585000D02*
X53727000Y-76585000D01*
X78324000Y-76625000D02*
X53756000Y-76625000D01*
X78296000Y-76665000D02*
X53784000Y-76665000D01*
X78267000Y-76705000D02*
X53813000Y-76705000D01*
X78238000Y-76745000D02*
X53842000Y-76745000D01*
X78209000Y-76785000D02*
X53871000Y-76785000D01*
X78180000Y-76825000D02*
X53900000Y-76825000D01*
X78150000Y-76865000D02*
X53930000Y-76865000D01*
X78120000Y-76905000D02*
X53960000Y-76905000D01*
X78090000Y-76945000D02*
X53990000Y-76945000D01*
X78060000Y-76985000D02*
X54020000Y-76985000D01*
X78030000Y-77025000D02*
X54050000Y-77025000D01*
X77999000Y-77065000D02*
X54081000Y-77065000D01*
X77969000Y-77105000D02*
X54111000Y-77105000D01*
X77938000Y-77145000D02*
X54142000Y-77145000D01*
X77906000Y-77185000D02*
X54174000Y-77185000D01*
X77875000Y-77225000D02*
X54205000Y-77225000D01*
X77843000Y-77265000D02*
X54237000Y-77265000D01*
X77812000Y-77305000D02*
X54268000Y-77305000D01*
X77779000Y-77345000D02*
X54301000Y-77345000D01*
X77747000Y-77385000D02*
X54333000Y-77385000D01*
X77715000Y-77425000D02*
X54365000Y-77425000D01*
X77682000Y-77465000D02*
X54398000Y-77465000D01*
X77649000Y-77505000D02*
X54431000Y-77505000D01*
X77616000Y-77545000D02*
X54464000Y-77545000D01*
X77582000Y-77585000D02*
X54498000Y-77585000D01*
X77549000Y-77625000D02*
X54531000Y-77625000D01*
X77515000Y-77665000D02*
X54565000Y-77665000D01*
X77480000Y-77705000D02*
X54600000Y-77705000D01*
X77446000Y-77745000D02*
X54634000Y-77745000D01*
X77411000Y-77785000D02*
X54669000Y-77785000D01*
X77376000Y-77825000D02*
X54704000Y-77825000D01*
X77341000Y-77865000D02*
X54739000Y-77865000D01*
X77306000Y-77905000D02*
X54774000Y-77905000D01*
X77270000Y-77945000D02*
X54810000Y-77945000D01*
X77234000Y-77985000D02*
X54846000Y-77985000D01*
X77198000Y-78025000D02*
X54882000Y-78025000D01*
X77162000Y-78065000D02*
X54918000Y-78065000D01*
X77125000Y-78105000D02*
X54955000Y-78105000D01*
X77088000Y-78145000D02*
X54992000Y-78145000D01*
X77051000Y-78185000D02*
X55029000Y-78185000D01*
X77013000Y-78225000D02*
X55067000Y-78225000D01*
X76976000Y-78265000D02*
X55104000Y-78265000D01*
X76938000Y-78305000D02*
X55142000Y-78305000D01*
X76899000Y-78345000D02*
X55181000Y-78345000D01*
X76861000Y-78385000D02*
X55219000Y-78385000D01*
X76822000Y-78425000D02*
X55258000Y-78425000D01*
X76783000Y-78465000D02*
X55297000Y-78465000D01*
X76743000Y-78505000D02*
X55337000Y-78505000D01*
X76703000Y-78545000D02*
X55377000Y-78545000D01*
X76663000Y-78585000D02*
X55417000Y-78585000D01*
X76623000Y-78625000D02*
X55457000Y-78625000D01*
X76582000Y-78665000D02*
X55498000Y-78665000D01*
X76541000Y-78705000D02*
X55539000Y-78705000D01*
X76500000Y-78745000D02*
X55580000Y-78745000D01*
X76458000Y-78785000D02*
X55622000Y-78785000D01*
X76416000Y-78825000D02*
X55664000Y-78825000D01*
X76374000Y-78865000D02*
X55706000Y-78865000D01*
X76332000Y-78905000D02*
X55748000Y-78905000D01*
X76289000Y-78945000D02*
X55791000Y-78945000D01*
X76245000Y-78985000D02*
X55835000Y-78985000D01*
X76202000Y-79025000D02*
X55878000Y-79025000D01*
X76158000Y-79065000D02*
X55922000Y-79065000D01*
X76114000Y-79105000D02*
X55966000Y-79105000D01*
X76069000Y-79145000D02*
X56011000Y-79145000D01*
X76024000Y-79185000D02*
X56056000Y-79185000D01*
X75979000Y-79225000D02*
X56101000Y-79225000D01*
X75933000Y-79265000D02*
X56147000Y-79265000D01*
X75887000Y-79305000D02*
X56193000Y-79305000D01*
X75840000Y-79345000D02*
X56240000Y-79345000D01*
X75794000Y-79385000D02*
X56286000Y-79385000D01*
X75746000Y-79425000D02*
X56334000Y-79425000D01*
X75699000Y-79465000D02*
X56381000Y-79465000D01*
X75651000Y-79505000D02*
X56429000Y-79505000D01*
X75602000Y-79545000D02*
X56478000Y-79545000D01*
X75553000Y-79585000D02*
X56527000Y-79585000D01*
X75504000Y-79625000D02*
X56576000Y-79625000D01*
X75454000Y-79665000D02*
X56626000Y-79665000D01*
X75404000Y-79705000D02*
X56676000Y-79705000D01*
X75354000Y-79745000D02*
X56726000Y-79745000D01*
X75303000Y-79785000D02*
X56777000Y-79785000D01*
X75251000Y-79825000D02*
X56829000Y-79825000D01*
X75199000Y-79865000D02*
X56881000Y-79865000D01*
X75147000Y-79905000D02*
X56933000Y-79905000D01*
X75094000Y-79945000D02*
X56986000Y-79945000D01*
X75040000Y-79985000D02*
X57040000Y-79985000D01*
X74987000Y-80025000D02*
X57093000Y-80025000D01*
X74932000Y-80065000D02*
X57148000Y-80065000D01*
X74877000Y-80105000D02*
X57203000Y-80105000D01*
X74822000Y-80145000D02*
X57258000Y-80145000D01*
X74766000Y-80185000D02*
X57314000Y-80185000D01*
X74709000Y-80225000D02*
X57371000Y-80225000D01*
X74652000Y-80265000D02*
X57428000Y-80265000D01*
X74595000Y-80305000D02*
X57485000Y-80305000D01*
X74537000Y-80345000D02*
X57543000Y-80345000D01*
X74478000Y-80385000D02*
X57602000Y-80385000D01*
X74418000Y-80425000D02*
X57662000Y-80425000D01*
X74358000Y-80465000D02*
X57722000Y-80465000D01*
X74298000Y-80505000D02*
X57782000Y-80505000D01*
X74237000Y-80545000D02*
X57843000Y-80545000D01*
X74175000Y-80585000D02*
X57905000Y-80585000D01*
X74112000Y-80625000D02*
X57968000Y-80625000D01*
X74049000Y-80665000D02*
X58031000Y-80665000D01*
X73985000Y-80705000D02*
X58095000Y-80705000D01*
X73920000Y-80745000D02*
X58160000Y-80745000D01*
X73855000Y-80785000D02*
X58225000Y-80785000D01*
X73788000Y-80825000D02*
X58292000Y-80825000D01*
X73722000Y-80865000D02*
X58358000Y-80865000D01*
X73654000Y-80905000D02*
X58426000Y-80905000D01*
X73585000Y-80945000D02*
X58495000Y-80945000D01*
X73516000Y-80985000D02*
X58564000Y-80985000D01*
X73446000Y-81025000D02*
X58634000Y-81025000D01*
X73374000Y-81065000D02*
X58706000Y-81065000D01*
X73302000Y-81105000D02*
X58778000Y-81105000D01*
X73229000Y-81145000D02*
X58851000Y-81145000D01*
X73155000Y-81185000D02*
X58925000Y-81185000D01*
X73080000Y-81225000D02*
X59000000Y-81225000D01*
X73004000Y-81265000D02*
X59076000Y-81265000D01*
X72927000Y-81305000D02*
X59153000Y-81305000D01*
X72849000Y-81345000D02*
X59231000Y-81345000D01*
X72770000Y-81385000D02*
X59310000Y-81385000D01*
X72689000Y-81425000D02*
X59391000Y-81425000D01*
X72608000Y-81465000D02*
X59472000Y-81465000D01*
X72525000Y-81505000D02*
X59555000Y-81505000D01*
X72440000Y-81545000D02*
X59640000Y-81545000D01*
X72355000Y-81585000D02*
X59725000Y-81585000D01*
X72268000Y-81625000D02*
X59812000Y-81625000D01*
X72179000Y-81665000D02*
X59901000Y-81665000D01*
X72089000Y-81705000D02*
X59991000Y-81705000D01*
X71997000Y-81745000D02*
X60083000Y-81745000D01*
X71904000Y-81785000D02*
X60176000Y-81785000D01*
X71808000Y-81825000D02*
X60272000Y-81825000D01*
X71711000Y-81865000D02*
X60369000Y-81865000D01*
X71612000Y-81905000D02*
X60468000Y-81905000D01*
X71511000Y-81945000D02*
X60569000Y-81945000D01*
X71408000Y-81985000D02*
X60672000Y-81985000D01*
X71302000Y-82025000D02*
X60778000Y-82025000D01*
X71194000Y-82065000D02*
X60886000Y-82065000D01*
X71083000Y-82105000D02*
X60997000Y-82105000D01*
X70970000Y-82145000D02*
X61110000Y-82145000D01*
X70854000Y-82185000D02*
X61226000Y-82185000D01*
X70734000Y-82225000D02*
X61346000Y-82225000D01*
X70611000Y-82265000D02*
X61469000Y-82265000D01*
X70484000Y-82305000D02*
X61596000Y-82305000D01*
X70353000Y-82345000D02*
X61727000Y-82345000D01*
X70218000Y-82385000D02*
X61862000Y-82385000D01*
X70077000Y-82425000D02*
X62003000Y-82425000D01*
X69932000Y-82465000D02*
X62148000Y-82465000D01*
X69780000Y-82505000D02*
X62300000Y-82505000D01*
X69622000Y-82545000D02*
X62458000Y-82545000D01*
X69455000Y-82585000D02*
X62625000Y-82585000D01*
X69280000Y-82625000D02*
X62800000Y-82625000D01*
X69095000Y-82665000D02*
X62985000Y-82665000D01*
X68897000Y-82705000D02*
X63183000Y-82705000D01*
X68684000Y-82745000D02*
X63396000Y-82745000D01*
X68452000Y-82785000D02*
X63628000Y-82785000D01*
X68194000Y-82825000D02*
X63886000Y-82825000D01*
X67902000Y-82865000D02*
X64178000Y-82865000D01*
X67554000Y-82905000D02*
X64526000Y-82905000D01*
X67100000Y-82945000D02*
X64980000Y-82945000D01*
X66080000Y-82985000D02*
X66000000Y-82985000D01*
X74515000Y-51685869D02*
X74515000Y-54685869D01*
X76015000Y-53185869D02*
X73015000Y-53185869D01*
X81840000Y-63241422D02*
X81840000Y-63758578D01*
X83260000Y-63241422D02*
X83260000Y-63758578D01*
X76610000Y-79630000D02*
X82010000Y-79630000D01*
X76610000Y-82930000D02*
X82010000Y-82930000D01*
X76610000Y-79630000D02*
X76610000Y-82930000D01*
X80900000Y-60550000D02*
X84200000Y-60550000D01*
X84200000Y-60550000D02*
X84200000Y-55150000D01*
X80900000Y-60550000D02*
X80900000Y-55150000D01*
X116130000Y-69570000D02*
X116130000Y-61170000D01*
X122630000Y-69570000D02*
X122630000Y-61170000D01*
X122630000Y-69570000D02*
X116130000Y-69570000D01*
X84680000Y-52450000D02*
X79280000Y-52450000D01*
X84680000Y-49150000D02*
X79280000Y-49150000D01*
X84680000Y-52450000D02*
X84680000Y-49150000D01*
X70260000Y-49150000D02*
X70260000Y-52450000D01*
X70260000Y-52450000D02*
X75660000Y-52450000D01*
X70260000Y-49150000D02*
X75660000Y-49150000D01*
X55630000Y-92540000D02*
X55630000Y-89380000D01*
X55630000Y-85880000D02*
X55630000Y-82720000D01*
X32910000Y-85880000D02*
X32910000Y-82720000D01*
X32910000Y-82720000D02*
X55630000Y-82720000D01*
X32910000Y-92540000D02*
X55630000Y-92540000D01*
X32910000Y-92540000D02*
X32910000Y-89380000D01*
X31920000Y-57675000D02*
X35080000Y-57675000D01*
X31920000Y-57675000D02*
X31920000Y-80395000D01*
X41740000Y-57675000D02*
X41740000Y-80395000D01*
X38580000Y-57675000D02*
X41740000Y-57675000D01*
X38580000Y-80395000D02*
X41740000Y-80395000D01*
X31920000Y-80395000D02*
X35080000Y-80395000D01*
X85665000Y-81220000D02*
X86995000Y-81220000D01*
X85665000Y-82550000D02*
X85665000Y-81220000D01*
X85665000Y-83820000D02*
X88325000Y-83820000D01*
X88325000Y-83820000D02*
X88325000Y-91500000D01*
X85665000Y-83820000D02*
X85665000Y-91500000D01*
X85665000Y-91500000D02*
X88325000Y-91500000D01*
X95945000Y-97850000D02*
X95945000Y-95190000D01*
X88265000Y-97850000D02*
X95945000Y-97850000D01*
X88265000Y-95190000D02*
X95945000Y-95190000D01*
X88265000Y-97850000D02*
X88265000Y-95190000D01*
X86995000Y-97850000D02*
X85665000Y-97850000D01*
X85665000Y-97850000D02*
X85665000Y-96520000D01*
X92015000Y-81220000D02*
X92015000Y-83880000D01*
X99695000Y-81220000D02*
X92015000Y-81220000D01*
X99695000Y-83880000D02*
X92015000Y-83880000D01*
X99695000Y-81220000D02*
X99695000Y-83880000D01*
X100965000Y-81220000D02*
X102295000Y-81220000D01*
X102295000Y-81220000D02*
X102295000Y-82550000D01*
X102295000Y-97850000D02*
X100965000Y-97850000D01*
X102295000Y-96520000D02*
X102295000Y-97850000D01*
X102295000Y-95250000D02*
X99635000Y-95250000D01*
X99635000Y-95250000D02*
X99635000Y-87570000D01*
X102295000Y-95250000D02*
X102295000Y-87570000D01*
X102295000Y-87570000D02*
X99635000Y-87570000D01*
X110430000Y-52130000D02*
X110430000Y-50800000D01*
X111760000Y-52130000D02*
X110430000Y-52130000D01*
X113030000Y-52130000D02*
X113030000Y-49470000D01*
X113030000Y-49470000D02*
X120710000Y-49470000D01*
X113030000Y-52130000D02*
X120710000Y-52130000D01*
X120710000Y-52130000D02*
X120710000Y-49470000D01*
X32720000Y-92340000D02*
X33320000Y-92340000D01*
X33020000Y-92940000D02*
X32720000Y-92340000D01*
X33320000Y-92340000D02*
X33020000Y-92940000D01*
X47510000Y-103860000D02*
X47260000Y-105360000D01*
X49010000Y-103860000D02*
X47510000Y-103860000D01*
X49260000Y-105360000D02*
X49010000Y-103860000D01*
X47260000Y-105360000D02*
X49260000Y-105360000D01*
X39890000Y-103860000D02*
X39640000Y-105360000D01*
X41390000Y-103860000D02*
X39890000Y-103860000D01*
X41640000Y-105360000D02*
X41390000Y-103860000D01*
X39640000Y-105360000D02*
X41640000Y-105360000D01*
X32270000Y-103860000D02*
X32020000Y-105360000D01*
X33770000Y-103860000D02*
X32270000Y-103860000D01*
X34020000Y-105360000D02*
X33770000Y-103860000D01*
X32020000Y-105360000D02*
X34020000Y-105360000D01*
X53610000Y-103860000D02*
X53360000Y-105360000D01*
X55110000Y-103860000D02*
X53610000Y-103860000D01*
X55360000Y-105360000D02*
X55110000Y-103860000D01*
X53360000Y-105360000D02*
X55360000Y-105360000D01*
X26170000Y-103860000D02*
X25920000Y-105360000D01*
X27670000Y-103860000D02*
X26170000Y-103860000D01*
X27920000Y-105360000D02*
X27670000Y-103860000D01*
X25920000Y-105360000D02*
X27920000Y-105360000D01*
X57470000Y-103860000D02*
X23810000Y-103860000D01*
X57470000Y-102060000D02*
X57470000Y-103860000D01*
X23810000Y-102060000D02*
X57470000Y-102060000D01*
X23810000Y-103860000D02*
X23810000Y-102060000D01*
X57470000Y-93140000D02*
X23810000Y-93140000D01*
X57470000Y-105360000D02*
X57470000Y-93140000D01*
X23810000Y-105360000D02*
X57470000Y-105360000D01*
X23810000Y-93140000D02*
X23810000Y-105360000D01*
X90170000Y-52130000D02*
X90170000Y-49470000D01*
X90170000Y-52130000D02*
X108010000Y-52130000D01*
X108010000Y-52130000D02*
X108010000Y-49470000D01*
X90170000Y-49470000D02*
X108010000Y-49470000D01*
X87570000Y-49470000D02*
X88900000Y-49470000D01*
X87570000Y-50800000D02*
X87570000Y-49470000D01*
X81965000Y-96155000D02*
G75*
G02X82665000Y-96855000I0J-700000D01*
G01*
X82665000Y-97455000D02*
G75*
G02X81965000Y-98155000I-700000J0D01*
G01*
X80565000Y-98155000D02*
G75*
G02X79865000Y-97455000I0J700000D01*
G01*
X79865000Y-96855000D02*
G75*
G02X80565000Y-96155000I700000J0D01*
G01*
X79865000Y-97455000D02*
X79865000Y-96855000D01*
X81965000Y-98155000D02*
X80565000Y-98155000D01*
X82665000Y-96855000D02*
X82665000Y-97455000D01*
X80565000Y-96155000D02*
X81965000Y-96155000D01*
X76770000Y-96155000D02*
X78170000Y-96155000D01*
X78870000Y-96855000D02*
X78870000Y-97455000D01*
X78170000Y-98155000D02*
X76770000Y-98155000D01*
X76070000Y-97455000D02*
X76070000Y-96855000D01*
X76070000Y-96855000D02*
G75*
G02X76770000Y-96155000I700000J0D01*
G01*
X76770000Y-98155000D02*
G75*
G02X76070000Y-97455000I0J700000D01*
G01*
X78870000Y-97455000D02*
G75*
G02X78170000Y-98155000I-700000J0D01*
G01*
X78170000Y-96155000D02*
G75*
G02X78870000Y-96855000I0J-700000D01*
G01*
X50960000Y-52966252D02*
X50960000Y-52443748D01*
X53180000Y-52966252D02*
X53180000Y-52443748D01*
X30050000Y-49210000D02*
X17830000Y-49210000D01*
X17830000Y-49210000D02*
X17830000Y-82870000D01*
X17830000Y-82870000D02*
X30050000Y-82870000D01*
X30050000Y-82870000D02*
X30050000Y-49210000D01*
X19330000Y-49210000D02*
X21130000Y-49210000D01*
X21130000Y-49210000D02*
X21130000Y-82870000D01*
X21130000Y-82870000D02*
X19330000Y-82870000D01*
X19330000Y-82870000D02*
X19330000Y-49210000D01*
X17830000Y-51320000D02*
X17830000Y-53320000D01*
X17830000Y-53320000D02*
X19330000Y-53070000D01*
X19330000Y-53070000D02*
X19330000Y-51570000D01*
X19330000Y-51570000D02*
X17830000Y-51320000D01*
X17830000Y-78760000D02*
X17830000Y-80760000D01*
X17830000Y-80760000D02*
X19330000Y-80510000D01*
X19330000Y-80510000D02*
X19330000Y-79010000D01*
X19330000Y-79010000D02*
X17830000Y-78760000D01*
X17830000Y-57420000D02*
X17830000Y-59420000D01*
X17830000Y-59420000D02*
X19330000Y-59170000D01*
X19330000Y-59170000D02*
X19330000Y-57670000D01*
X19330000Y-57670000D02*
X17830000Y-57420000D01*
X17830000Y-65040000D02*
X17830000Y-67040000D01*
X17830000Y-67040000D02*
X19330000Y-66790000D01*
X19330000Y-66790000D02*
X19330000Y-65290000D01*
X19330000Y-65290000D02*
X17830000Y-65040000D01*
X17830000Y-72660000D02*
X17830000Y-74660000D01*
X17830000Y-74660000D02*
X19330000Y-74410000D01*
X19330000Y-74410000D02*
X19330000Y-72910000D01*
X19330000Y-72910000D02*
X17830000Y-72660000D01*
X30850000Y-58720000D02*
X30250000Y-58420000D01*
X30250000Y-58420000D02*
X30850000Y-58120000D01*
X30850000Y-58120000D02*
X30850000Y-58720000D01*
X68305000Y-91970000D02*
X68305000Y-93470000D01*
X68305000Y-93470000D02*
X68575000Y-93470000D01*
X68575000Y-93470000D02*
X68575000Y-96300000D01*
X75205000Y-91970000D02*
X75205000Y-93470000D01*
X75205000Y-93470000D02*
X74935000Y-93470000D01*
X74935000Y-93470000D02*
X74935000Y-94570000D01*
X81840000Y-92968578D02*
X81840000Y-92451422D01*
X83260000Y-92968578D02*
X83260000Y-92451422D01*
X112018578Y-82625000D02*
X111501422Y-82625000D01*
X112018578Y-81205000D02*
X111501422Y-81205000D01*
X112018578Y-83745000D02*
X111501422Y-83745000D01*
X112018578Y-85165000D02*
X111501422Y-85165000D01*
X112018578Y-86285000D02*
X111501422Y-86285000D01*
X112018578Y-87705000D02*
X111501422Y-87705000D01*
X82062064Y-86800000D02*
X77957936Y-86800000D01*
X82062064Y-83380000D02*
X77957936Y-83380000D01*
X111501422Y-95325000D02*
X112018578Y-95325000D01*
X111501422Y-93905000D02*
X112018578Y-93905000D01*
X54535000Y-51058578D02*
X54535000Y-50541422D01*
X55955000Y-51058578D02*
X55955000Y-50541422D01*
X48186078Y-49455000D02*
X47668922Y-49455000D01*
X48186078Y-50875000D02*
X47668922Y-50875000D01*
X111501422Y-96445000D02*
X112018578Y-96445000D01*
X111501422Y-97865000D02*
X112018578Y-97865000D01*
X66298578Y-86435000D02*
X65781422Y-86435000D01*
X66298578Y-85015000D02*
X65781422Y-85015000D01*
X66298578Y-88975000D02*
X65781422Y-88975000D01*
X66298578Y-87555000D02*
X65781422Y-87555000D01*
X66298578Y-91515000D02*
X65781422Y-91515000D01*
X66298578Y-90095000D02*
X65781422Y-90095000D01*
X66298578Y-92635000D02*
X65781422Y-92635000D01*
X66298578Y-94055000D02*
X65781422Y-94055000D01*
X66298578Y-95175000D02*
X65781422Y-95175000D01*
X66298578Y-96595000D02*
X65781422Y-96595000D01*
X58678578Y-49455000D02*
X58161422Y-49455000D01*
X58678578Y-50875000D02*
X58161422Y-50875000D01*
X84830000Y-54310000D02*
X84830000Y-80310000D01*
X84830000Y-80310000D02*
X114830000Y-80310000D01*
X114830000Y-80310000D02*
X114830000Y-55310000D01*
X114830000Y-55310000D02*
X114830000Y-54310000D01*
X114830000Y-54310000D02*
X84830000Y-54310000D01*
X90330000Y-57310000D02*
X98330000Y-57310000D01*
X98330000Y-57310000D02*
X98330000Y-61310000D01*
X98330000Y-61310000D02*
X97330000Y-61310000D01*
X97330000Y-61310000D02*
X97330000Y-57310000D01*
X97330000Y-57310000D02*
X97330000Y-61310000D01*
X97330000Y-61310000D02*
X90330000Y-61310000D01*
X90330000Y-69310000D02*
X98330000Y-69310000D01*
X98330000Y-69310000D02*
X98330000Y-77310000D01*
X98330000Y-77310000D02*
X97330000Y-77310000D01*
X97330000Y-77310000D02*
X97330000Y-69310000D01*
X97330000Y-69310000D02*
X97330000Y-73310000D01*
X97330000Y-73310000D02*
X90330000Y-73310000D01*
X90330000Y-73310000D02*
X97330000Y-73310000D01*
X97330000Y-73310000D02*
X97330000Y-77310000D01*
X97330000Y-77310000D02*
X90330000Y-77310000D01*
X102330000Y-61310000D02*
X109330000Y-61310000D01*
X101330000Y-61310000D02*
X102330000Y-61310000D01*
X101330000Y-65310000D02*
X101330000Y-61310000D01*
X109330000Y-77310000D02*
X101330000Y-77310000D01*
X101330000Y-77310000D02*
X101330000Y-65310000D01*
X102330000Y-61310000D02*
X102330000Y-77310000D01*
X109330000Y-65310000D02*
X103330000Y-65310000D01*
X103330000Y-65310000D02*
X103330000Y-73310000D01*
X103330000Y-73310000D02*
X110330000Y-73310000D01*
X104330000Y-65310000D02*
X104330000Y-73310000D01*
X103830000Y-62310000D02*
G75*
G03X103830000Y-62310000I-500000J0D01*
G01*
X105830000Y-66310000D02*
G75*
G03X105830000Y-66310000I-500000J0D01*
G01*
X96830000Y-58310000D02*
G75*
G03X96830000Y-58310000I-500000J0D01*
G01*
X96830000Y-70310000D02*
G75*
G03X96830000Y-70310000I-500000J0D01*
G01*
X96830000Y-74310000D02*
G75*
G03X96830000Y-74310000I-500000J0D01*
G01*
X48910000Y-64420000D02*
X45070000Y-64420000D01*
X48910000Y-62580000D02*
X45070000Y-62580000D01*
X21820000Y-98425000D02*
G75*
G03X21820000Y-98425000I-1500000J0D01*
G01*
X92370000Y-88400000D02*
X92370000Y-87925000D01*
X92370000Y-87925000D02*
X92845000Y-87925000D01*
X95590000Y-90670000D02*
X95590000Y-91145000D01*
X95590000Y-91145000D02*
X95115000Y-91145000D01*
X95590000Y-88400000D02*
X95590000Y-87925000D01*
X95590000Y-87925000D02*
X95115000Y-87925000D01*
X92370000Y-90670000D02*
X92370000Y-91145000D01*
X120077500Y-57460000D02*
X117392500Y-57460000D01*
X117392500Y-57460000D02*
X117392500Y-59380000D01*
X117392500Y-59380000D02*
X120077500Y-59380000D01*
X118867422Y-55170000D02*
X119384578Y-55170000D01*
X118867422Y-56590000D02*
X119384578Y-56590000D01*
D12*
X49982380Y-76938095D02*
X48982380Y-76938095D01*
X48982380Y-76700000D01*
X49030000Y-76557142D01*
X49125238Y-76461904D01*
X49220476Y-76414285D01*
X49410952Y-76366666D01*
X49553809Y-76366666D01*
X49744285Y-76414285D01*
X49839523Y-76461904D01*
X49934761Y-76557142D01*
X49982380Y-76700000D01*
X49982380Y-76938095D01*
X49982380Y-75414285D02*
X49982380Y-75985714D01*
X49982380Y-75700000D02*
X48982380Y-75700000D01*
X49125238Y-75795238D01*
X49220476Y-75890476D01*
X49268095Y-75985714D01*
X84557142Y-89066666D02*
X84604761Y-89114285D01*
X84652380Y-89257142D01*
X84652380Y-89352380D01*
X84604761Y-89495238D01*
X84509523Y-89590476D01*
X84414285Y-89638095D01*
X84223809Y-89685714D01*
X84080952Y-89685714D01*
X83890476Y-89638095D01*
X83795238Y-89590476D01*
X83700000Y-89495238D01*
X83652380Y-89352380D01*
X83652380Y-89257142D01*
X83700000Y-89114285D01*
X83747619Y-89066666D01*
X84652380Y-88114285D02*
X84652380Y-88685714D01*
X84652380Y-88400000D02*
X83652380Y-88400000D01*
X83795238Y-88495238D01*
X83890476Y-88590476D01*
X83938095Y-88685714D01*
X106402142Y-96686666D02*
X106449761Y-96734285D01*
X106497380Y-96877142D01*
X106497380Y-96972380D01*
X106449761Y-97115238D01*
X106354523Y-97210476D01*
X106259285Y-97258095D01*
X106068809Y-97305714D01*
X105925952Y-97305714D01*
X105735476Y-97258095D01*
X105640238Y-97210476D01*
X105545000Y-97115238D01*
X105497380Y-96972380D01*
X105497380Y-96877142D01*
X105545000Y-96734285D01*
X105592619Y-96686666D01*
X105592619Y-96305714D02*
X105545000Y-96258095D01*
X105497380Y-96162857D01*
X105497380Y-95924761D01*
X105545000Y-95829523D01*
X105592619Y-95781904D01*
X105687857Y-95734285D01*
X105783095Y-95734285D01*
X105925952Y-95781904D01*
X106497380Y-96353333D01*
X106497380Y-95734285D01*
X98893333Y-86082142D02*
X98845714Y-86129761D01*
X98702857Y-86177380D01*
X98607619Y-86177380D01*
X98464761Y-86129761D01*
X98369523Y-86034523D01*
X98321904Y-85939285D01*
X98274285Y-85748809D01*
X98274285Y-85605952D01*
X98321904Y-85415476D01*
X98369523Y-85320238D01*
X98464761Y-85225000D01*
X98607619Y-85177380D01*
X98702857Y-85177380D01*
X98845714Y-85225000D01*
X98893333Y-85272619D01*
X99226666Y-85177380D02*
X99845714Y-85177380D01*
X99512380Y-85558333D01*
X99655238Y-85558333D01*
X99750476Y-85605952D01*
X99798095Y-85653571D01*
X99845714Y-85748809D01*
X99845714Y-85986904D01*
X99798095Y-86082142D01*
X99750476Y-86129761D01*
X99655238Y-86177380D01*
X99369523Y-86177380D01*
X99274285Y-86129761D01*
X99226666Y-86082142D01*
X107783333Y-91162142D02*
X107735714Y-91209761D01*
X107592857Y-91257380D01*
X107497619Y-91257380D01*
X107354761Y-91209761D01*
X107259523Y-91114523D01*
X107211904Y-91019285D01*
X107164285Y-90828809D01*
X107164285Y-90685952D01*
X107211904Y-90495476D01*
X107259523Y-90400238D01*
X107354761Y-90305000D01*
X107497619Y-90257380D01*
X107592857Y-90257380D01*
X107735714Y-90305000D01*
X107783333Y-90352619D01*
X108640476Y-90590714D02*
X108640476Y-91257380D01*
X108402380Y-90209761D02*
X108164285Y-90924047D01*
X108783333Y-90924047D01*
X77938333Y-91162142D02*
X77890714Y-91209761D01*
X77747857Y-91257380D01*
X77652619Y-91257380D01*
X77509761Y-91209761D01*
X77414523Y-91114523D01*
X77366904Y-91019285D01*
X77319285Y-90828809D01*
X77319285Y-90685952D01*
X77366904Y-90495476D01*
X77414523Y-90400238D01*
X77509761Y-90305000D01*
X77652619Y-90257380D01*
X77747857Y-90257380D01*
X77890714Y-90305000D01*
X77938333Y-90352619D01*
X78843095Y-90257380D02*
X78366904Y-90257380D01*
X78319285Y-90733571D01*
X78366904Y-90685952D01*
X78462142Y-90638333D01*
X78700238Y-90638333D01*
X78795476Y-90685952D01*
X78843095Y-90733571D01*
X78890714Y-90828809D01*
X78890714Y-91066904D01*
X78843095Y-91162142D01*
X78795476Y-91209761D01*
X78700238Y-91257380D01*
X78462142Y-91257380D01*
X78366904Y-91209761D01*
X78319285Y-91162142D01*
X51157142Y-57316666D02*
X51204761Y-57364285D01*
X51252380Y-57507142D01*
X51252380Y-57602380D01*
X51204761Y-57745238D01*
X51109523Y-57840476D01*
X51014285Y-57888095D01*
X50823809Y-57935714D01*
X50680952Y-57935714D01*
X50490476Y-57888095D01*
X50395238Y-57840476D01*
X50300000Y-57745238D01*
X50252380Y-57602380D01*
X50252380Y-57507142D01*
X50300000Y-57364285D01*
X50347619Y-57316666D01*
X50252380Y-56459523D02*
X50252380Y-56650000D01*
X50300000Y-56745238D01*
X50347619Y-56792857D01*
X50490476Y-56888095D01*
X50680952Y-56935714D01*
X51061904Y-56935714D01*
X51157142Y-56888095D01*
X51204761Y-56840476D01*
X51252380Y-56745238D01*
X51252380Y-56554761D01*
X51204761Y-56459523D01*
X51157142Y-56411904D01*
X51061904Y-56364285D01*
X50823809Y-56364285D01*
X50728571Y-56411904D01*
X50680952Y-56459523D01*
X50633333Y-56554761D01*
X50633333Y-56745238D01*
X50680952Y-56840476D01*
X50728571Y-56888095D01*
X50823809Y-56935714D01*
X121769142Y-79922666D02*
X121816761Y-79970285D01*
X121864380Y-80113142D01*
X121864380Y-80208380D01*
X121816761Y-80351238D01*
X121721523Y-80446476D01*
X121626285Y-80494095D01*
X121435809Y-80541714D01*
X121292952Y-80541714D01*
X121102476Y-80494095D01*
X121007238Y-80446476D01*
X120912000Y-80351238D01*
X120864380Y-80208380D01*
X120864380Y-80113142D01*
X120912000Y-79970285D01*
X120959619Y-79922666D01*
X120864380Y-79589333D02*
X120864380Y-78922666D01*
X121864380Y-79351238D01*
X77827142Y-56046666D02*
X77874761Y-56094285D01*
X77922380Y-56237142D01*
X77922380Y-56332380D01*
X77874761Y-56475238D01*
X77779523Y-56570476D01*
X77684285Y-56618095D01*
X77493809Y-56665714D01*
X77350952Y-56665714D01*
X77160476Y-56618095D01*
X77065238Y-56570476D01*
X76970000Y-56475238D01*
X76922380Y-56332380D01*
X76922380Y-56237142D01*
X76970000Y-56094285D01*
X77017619Y-56046666D01*
X77350952Y-55475238D02*
X77303333Y-55570476D01*
X77255714Y-55618095D01*
X77160476Y-55665714D01*
X77112857Y-55665714D01*
X77017619Y-55618095D01*
X76970000Y-55570476D01*
X76922380Y-55475238D01*
X76922380Y-55284761D01*
X76970000Y-55189523D01*
X77017619Y-55141904D01*
X77112857Y-55094285D01*
X77160476Y-55094285D01*
X77255714Y-55141904D01*
X77303333Y-55189523D01*
X77350952Y-55284761D01*
X77350952Y-55475238D01*
X77398571Y-55570476D01*
X77446190Y-55618095D01*
X77541428Y-55665714D01*
X77731904Y-55665714D01*
X77827142Y-55618095D01*
X77874761Y-55570476D01*
X77922380Y-55475238D01*
X77922380Y-55284761D01*
X77874761Y-55189523D01*
X77827142Y-55141904D01*
X77731904Y-55094285D01*
X77541428Y-55094285D01*
X77446190Y-55141904D01*
X77398571Y-55189523D01*
X77350952Y-55284761D01*
X82907142Y-66841666D02*
X82954761Y-66889285D01*
X83002380Y-67032142D01*
X83002380Y-67127380D01*
X82954761Y-67270238D01*
X82859523Y-67365476D01*
X82764285Y-67413095D01*
X82573809Y-67460714D01*
X82430952Y-67460714D01*
X82240476Y-67413095D01*
X82145238Y-67365476D01*
X82050000Y-67270238D01*
X82002380Y-67127380D01*
X82002380Y-67032142D01*
X82050000Y-66889285D01*
X82097619Y-66841666D01*
X83002380Y-66365476D02*
X83002380Y-66175000D01*
X82954761Y-66079761D01*
X82907142Y-66032142D01*
X82764285Y-65936904D01*
X82573809Y-65889285D01*
X82192857Y-65889285D01*
X82097619Y-65936904D01*
X82050000Y-65984523D01*
X82002380Y-66079761D01*
X82002380Y-66270238D01*
X82050000Y-66365476D01*
X82097619Y-66413095D01*
X82192857Y-66460714D01*
X82430952Y-66460714D01*
X82526190Y-66413095D01*
X82573809Y-66365476D01*
X82621428Y-66270238D01*
X82621428Y-66079761D01*
X82573809Y-65984523D01*
X82526190Y-65936904D01*
X82430952Y-65889285D01*
X79271904Y-79232380D02*
X79271904Y-78232380D01*
X79510000Y-78232380D01*
X79652857Y-78280000D01*
X79748095Y-78375238D01*
X79795714Y-78470476D01*
X79843333Y-78660952D01*
X79843333Y-78803809D01*
X79795714Y-78994285D01*
X79748095Y-79089523D01*
X79652857Y-79184761D01*
X79510000Y-79232380D01*
X79271904Y-79232380D01*
X80224285Y-78327619D02*
X80271904Y-78280000D01*
X80367142Y-78232380D01*
X80605238Y-78232380D01*
X80700476Y-78280000D01*
X80748095Y-78327619D01*
X80795714Y-78422857D01*
X80795714Y-78518095D01*
X80748095Y-78660952D01*
X80176666Y-79232380D01*
X80795714Y-79232380D01*
X80502380Y-57888095D02*
X79502380Y-57888095D01*
X79502380Y-57650000D01*
X79550000Y-57507142D01*
X79645238Y-57411904D01*
X79740476Y-57364285D01*
X79930952Y-57316666D01*
X80073809Y-57316666D01*
X80264285Y-57364285D01*
X80359523Y-57411904D01*
X80454761Y-57507142D01*
X80502380Y-57650000D01*
X80502380Y-57888095D01*
X79502380Y-56983333D02*
X79502380Y-56364285D01*
X79883333Y-56697619D01*
X79883333Y-56554761D01*
X79930952Y-56459523D01*
X79978571Y-56411904D01*
X80073809Y-56364285D01*
X80311904Y-56364285D01*
X80407142Y-56411904D01*
X80454761Y-56459523D01*
X80502380Y-56554761D01*
X80502380Y-56840476D01*
X80454761Y-56935714D01*
X80407142Y-56983333D01*
X115732380Y-65508095D02*
X114732380Y-65508095D01*
X114732380Y-65270000D01*
X114780000Y-65127142D01*
X114875238Y-65031904D01*
X114970476Y-64984285D01*
X115160952Y-64936666D01*
X115303809Y-64936666D01*
X115494285Y-64984285D01*
X115589523Y-65031904D01*
X115684761Y-65127142D01*
X115732380Y-65270000D01*
X115732380Y-65508095D01*
X115065714Y-64079523D02*
X115732380Y-64079523D01*
X114684761Y-64317619D02*
X115399047Y-64555714D01*
X115399047Y-63936666D01*
X78001904Y-53792380D02*
X78001904Y-52792380D01*
X78240000Y-52792380D01*
X78382857Y-52840000D01*
X78478095Y-52935238D01*
X78525714Y-53030476D01*
X78573333Y-53220952D01*
X78573333Y-53363809D01*
X78525714Y-53554285D01*
X78478095Y-53649523D01*
X78382857Y-53744761D01*
X78240000Y-53792380D01*
X78001904Y-53792380D01*
X79478095Y-52792380D02*
X79001904Y-52792380D01*
X78954285Y-53268571D01*
X79001904Y-53220952D01*
X79097142Y-53173333D01*
X79335238Y-53173333D01*
X79430476Y-53220952D01*
X79478095Y-53268571D01*
X79525714Y-53363809D01*
X79525714Y-53601904D01*
X79478095Y-53697142D01*
X79430476Y-53744761D01*
X79335238Y-53792380D01*
X79097142Y-53792380D01*
X79001904Y-53744761D01*
X78954285Y-53697142D01*
X73937904Y-53792380D02*
X73937904Y-52792380D01*
X74176000Y-52792380D01*
X74318857Y-52840000D01*
X74414095Y-52935238D01*
X74461714Y-53030476D01*
X74509333Y-53220952D01*
X74509333Y-53363809D01*
X74461714Y-53554285D01*
X74414095Y-53649523D01*
X74318857Y-53744761D01*
X74176000Y-53792380D01*
X73937904Y-53792380D01*
X75366476Y-52792380D02*
X75176000Y-52792380D01*
X75080761Y-52840000D01*
X75033142Y-52887619D01*
X74937904Y-53030476D01*
X74890285Y-53220952D01*
X74890285Y-53601904D01*
X74937904Y-53697142D01*
X74985523Y-53744761D01*
X75080761Y-53792380D01*
X75271238Y-53792380D01*
X75366476Y-53744761D01*
X75414095Y-53697142D01*
X75461714Y-53601904D01*
X75461714Y-53363809D01*
X75414095Y-53268571D01*
X75366476Y-53220952D01*
X75271238Y-53173333D01*
X75080761Y-53173333D01*
X74985523Y-53220952D01*
X74937904Y-53268571D01*
X74890285Y-53363809D01*
X30146666Y-85018571D02*
X29813333Y-85018571D01*
X29813333Y-85542380D02*
X29813333Y-84542380D01*
X30289523Y-84542380D01*
X31194285Y-85542380D02*
X30622857Y-85542380D01*
X30908571Y-85542380D02*
X30908571Y-84542380D01*
X30813333Y-84685238D01*
X30718095Y-84780476D01*
X30622857Y-84828095D01*
X43108571Y-80343333D02*
X43108571Y-80676666D01*
X43632380Y-80676666D02*
X42632380Y-80676666D01*
X42632380Y-80200476D01*
X42727619Y-79867142D02*
X42680000Y-79819523D01*
X42632380Y-79724285D01*
X42632380Y-79486190D01*
X42680000Y-79390952D01*
X42727619Y-79343333D01*
X42822857Y-79295714D01*
X42918095Y-79295714D01*
X43060952Y-79343333D01*
X43632380Y-79914761D01*
X43632380Y-79295714D01*
X86661666Y-79672380D02*
X86661666Y-80386666D01*
X86614047Y-80529523D01*
X86518809Y-80624761D01*
X86375952Y-80672380D01*
X86280714Y-80672380D01*
X87661666Y-80672380D02*
X87090238Y-80672380D01*
X87375952Y-80672380D02*
X87375952Y-79672380D01*
X87280714Y-79815238D01*
X87185476Y-79910476D01*
X87090238Y-79958095D01*
X85177380Y-94313333D02*
X85891666Y-94313333D01*
X86034523Y-94360952D01*
X86129761Y-94456190D01*
X86177380Y-94599047D01*
X86177380Y-94694285D01*
X85272619Y-93884761D02*
X85225000Y-93837142D01*
X85177380Y-93741904D01*
X85177380Y-93503809D01*
X85225000Y-93408571D01*
X85272619Y-93360952D01*
X85367857Y-93313333D01*
X85463095Y-93313333D01*
X85605952Y-93360952D01*
X86177380Y-93932380D01*
X86177380Y-93313333D01*
X102747380Y-82883333D02*
X103461666Y-82883333D01*
X103604523Y-82930952D01*
X103699761Y-83026190D01*
X103747380Y-83169047D01*
X103747380Y-83264285D01*
X102747380Y-82502380D02*
X102747380Y-81883333D01*
X103128333Y-82216666D01*
X103128333Y-82073809D01*
X103175952Y-81978571D01*
X103223571Y-81930952D01*
X103318809Y-81883333D01*
X103556904Y-81883333D01*
X103652142Y-81930952D01*
X103699761Y-81978571D01*
X103747380Y-82073809D01*
X103747380Y-82359523D01*
X103699761Y-82454761D01*
X103652142Y-82502380D01*
X97710666Y-97496380D02*
X97710666Y-98210666D01*
X97663047Y-98353523D01*
X97567809Y-98448761D01*
X97424952Y-98496380D01*
X97329714Y-98496380D01*
X98615428Y-97829714D02*
X98615428Y-98496380D01*
X98377333Y-97448761D02*
X98139238Y-98163047D01*
X98758285Y-98163047D01*
X108882380Y-51133333D02*
X109596666Y-51133333D01*
X109739523Y-51180952D01*
X109834761Y-51276190D01*
X109882380Y-51419047D01*
X109882380Y-51514285D01*
X108882380Y-50180952D02*
X108882380Y-50657142D01*
X109358571Y-50704761D01*
X109310952Y-50657142D01*
X109263333Y-50561904D01*
X109263333Y-50323809D01*
X109310952Y-50228571D01*
X109358571Y-50180952D01*
X109453809Y-50133333D01*
X109691904Y-50133333D01*
X109787142Y-50180952D01*
X109834761Y-50228571D01*
X109882380Y-50323809D01*
X109882380Y-50561904D01*
X109834761Y-50657142D01*
X109787142Y-50704761D01*
X29511666Y-91527380D02*
X29511666Y-92241666D01*
X29464047Y-92384523D01*
X29368809Y-92479761D01*
X29225952Y-92527380D01*
X29130714Y-92527380D01*
X30416428Y-91527380D02*
X30225952Y-91527380D01*
X30130714Y-91575000D01*
X30083095Y-91622619D01*
X29987857Y-91765476D01*
X29940238Y-91955952D01*
X29940238Y-92336904D01*
X29987857Y-92432142D01*
X30035476Y-92479761D01*
X30130714Y-92527380D01*
X30321190Y-92527380D01*
X30416428Y-92479761D01*
X30464047Y-92432142D01*
X30511666Y-92336904D01*
X30511666Y-92098809D01*
X30464047Y-92003571D01*
X30416428Y-91955952D01*
X30321190Y-91908333D01*
X30130714Y-91908333D01*
X30035476Y-91955952D01*
X29987857Y-92003571D01*
X29940238Y-92098809D01*
X85582380Y-51133333D02*
X86296666Y-51133333D01*
X86439523Y-51180952D01*
X86534761Y-51276190D01*
X86582380Y-51419047D01*
X86582380Y-51514285D01*
X85582380Y-50752380D02*
X85582380Y-50085714D01*
X86582380Y-50514285D01*
X79430666Y-93432380D02*
X79430666Y-94146666D01*
X79383047Y-94289523D01*
X79287809Y-94384761D01*
X79144952Y-94432380D01*
X79049714Y-94432380D01*
X79906857Y-94432380D02*
X79906857Y-93432380D01*
X80287809Y-93432380D01*
X80383047Y-93480000D01*
X80430666Y-93527619D01*
X80478285Y-93622857D01*
X80478285Y-93765714D01*
X80430666Y-93860952D01*
X80383047Y-93908571D01*
X80287809Y-93956190D01*
X79906857Y-93956190D01*
X81430666Y-94432380D02*
X80859238Y-94432380D01*
X81144952Y-94432380D02*
X81144952Y-93432380D01*
X81049714Y-93575238D01*
X80954476Y-93670476D01*
X80859238Y-93718095D01*
X75874666Y-93432380D02*
X75874666Y-94146666D01*
X75827047Y-94289523D01*
X75731809Y-94384761D01*
X75588952Y-94432380D01*
X75493714Y-94432380D01*
X76350857Y-94432380D02*
X76350857Y-93432380D01*
X76731809Y-93432380D01*
X76827047Y-93480000D01*
X76874666Y-93527619D01*
X76922285Y-93622857D01*
X76922285Y-93765714D01*
X76874666Y-93860952D01*
X76827047Y-93908571D01*
X76731809Y-93956190D01*
X76350857Y-93956190D01*
X77303238Y-93527619D02*
X77350857Y-93480000D01*
X77446095Y-93432380D01*
X77684190Y-93432380D01*
X77779428Y-93480000D01*
X77827047Y-93527619D01*
X77874666Y-93622857D01*
X77874666Y-93718095D01*
X77827047Y-93860952D01*
X77255619Y-94432380D01*
X77874666Y-94432380D01*
X52157333Y-50236380D02*
X51681142Y-50236380D01*
X51681142Y-49236380D01*
X53014476Y-50236380D02*
X52443047Y-50236380D01*
X52728761Y-50236380D02*
X52728761Y-49236380D01*
X52633523Y-49379238D01*
X52538285Y-49474476D01*
X52443047Y-49522095D01*
X31567380Y-55348095D02*
X30567380Y-55348095D01*
X30567380Y-54967142D01*
X30615000Y-54871904D01*
X30662619Y-54824285D01*
X30757857Y-54776666D01*
X30900714Y-54776666D01*
X30995952Y-54824285D01*
X31043571Y-54871904D01*
X31091190Y-54967142D01*
X31091190Y-55348095D01*
X31567380Y-53824285D02*
X31567380Y-54395714D01*
X31567380Y-54110000D02*
X30567380Y-54110000D01*
X30710238Y-54205238D01*
X30805476Y-54300476D01*
X30853095Y-54395714D01*
X69119761Y-85002619D02*
X69024523Y-84955000D01*
X68929285Y-84859761D01*
X68786428Y-84716904D01*
X68691190Y-84669285D01*
X68595952Y-84669285D01*
X68643571Y-84907380D02*
X68548333Y-84859761D01*
X68453095Y-84764523D01*
X68405476Y-84574047D01*
X68405476Y-84240714D01*
X68453095Y-84050238D01*
X68548333Y-83955000D01*
X68643571Y-83907380D01*
X68834047Y-83907380D01*
X68929285Y-83955000D01*
X69024523Y-84050238D01*
X69072142Y-84240714D01*
X69072142Y-84574047D01*
X69024523Y-84764523D01*
X68929285Y-84859761D01*
X68834047Y-84907380D01*
X68643571Y-84907380D01*
X70024523Y-84907380D02*
X69453095Y-84907380D01*
X69738809Y-84907380D02*
X69738809Y-83907380D01*
X69643571Y-84050238D01*
X69548333Y-84145476D01*
X69453095Y-84193095D01*
X84780380Y-92622666D02*
X84304190Y-92956000D01*
X84780380Y-93194095D02*
X83780380Y-93194095D01*
X83780380Y-92813142D01*
X83828000Y-92717904D01*
X83875619Y-92670285D01*
X83970857Y-92622666D01*
X84113714Y-92622666D01*
X84208952Y-92670285D01*
X84256571Y-92717904D01*
X84304190Y-92813142D01*
X84304190Y-93194095D01*
X84780380Y-91670285D02*
X84780380Y-92241714D01*
X84780380Y-91956000D02*
X83780380Y-91956000D01*
X83923238Y-92051238D01*
X84018476Y-92146476D01*
X84066095Y-92241714D01*
X107783333Y-82367380D02*
X107450000Y-81891190D01*
X107211904Y-82367380D02*
X107211904Y-81367380D01*
X107592857Y-81367380D01*
X107688095Y-81415000D01*
X107735714Y-81462619D01*
X107783333Y-81557857D01*
X107783333Y-81700714D01*
X107735714Y-81795952D01*
X107688095Y-81843571D01*
X107592857Y-81891190D01*
X107211904Y-81891190D01*
X108164285Y-81462619D02*
X108211904Y-81415000D01*
X108307142Y-81367380D01*
X108545238Y-81367380D01*
X108640476Y-81415000D01*
X108688095Y-81462619D01*
X108735714Y-81557857D01*
X108735714Y-81653095D01*
X108688095Y-81795952D01*
X108116666Y-82367380D01*
X108735714Y-82367380D01*
X107783333Y-84907380D02*
X107450000Y-84431190D01*
X107211904Y-84907380D02*
X107211904Y-83907380D01*
X107592857Y-83907380D01*
X107688095Y-83955000D01*
X107735714Y-84002619D01*
X107783333Y-84097857D01*
X107783333Y-84240714D01*
X107735714Y-84335952D01*
X107688095Y-84383571D01*
X107592857Y-84431190D01*
X107211904Y-84431190D01*
X108116666Y-83907380D02*
X108735714Y-83907380D01*
X108402380Y-84288333D01*
X108545238Y-84288333D01*
X108640476Y-84335952D01*
X108688095Y-84383571D01*
X108735714Y-84478809D01*
X108735714Y-84716904D01*
X108688095Y-84812142D01*
X108640476Y-84859761D01*
X108545238Y-84907380D01*
X108259523Y-84907380D01*
X108164285Y-84859761D01*
X108116666Y-84812142D01*
X107783333Y-87447380D02*
X107450000Y-86971190D01*
X107211904Y-87447380D02*
X107211904Y-86447380D01*
X107592857Y-86447380D01*
X107688095Y-86495000D01*
X107735714Y-86542619D01*
X107783333Y-86637857D01*
X107783333Y-86780714D01*
X107735714Y-86875952D01*
X107688095Y-86923571D01*
X107592857Y-86971190D01*
X107211904Y-86971190D01*
X108640476Y-86780714D02*
X108640476Y-87447380D01*
X108402380Y-86399761D02*
X108164285Y-87114047D01*
X108783333Y-87114047D01*
X74763333Y-84272380D02*
X74430000Y-83796190D01*
X74191904Y-84272380D02*
X74191904Y-83272380D01*
X74572857Y-83272380D01*
X74668095Y-83320000D01*
X74715714Y-83367619D01*
X74763333Y-83462857D01*
X74763333Y-83605714D01*
X74715714Y-83700952D01*
X74668095Y-83748571D01*
X74572857Y-83796190D01*
X74191904Y-83796190D01*
X75668095Y-83272380D02*
X75191904Y-83272380D01*
X75144285Y-83748571D01*
X75191904Y-83700952D01*
X75287142Y-83653333D01*
X75525238Y-83653333D01*
X75620476Y-83700952D01*
X75668095Y-83748571D01*
X75715714Y-83843809D01*
X75715714Y-84081904D01*
X75668095Y-84177142D01*
X75620476Y-84224761D01*
X75525238Y-84272380D01*
X75287142Y-84272380D01*
X75191904Y-84224761D01*
X75144285Y-84177142D01*
X107783333Y-95067380D02*
X107450000Y-94591190D01*
X107211904Y-95067380D02*
X107211904Y-94067380D01*
X107592857Y-94067380D01*
X107688095Y-94115000D01*
X107735714Y-94162619D01*
X107783333Y-94257857D01*
X107783333Y-94400714D01*
X107735714Y-94495952D01*
X107688095Y-94543571D01*
X107592857Y-94591190D01*
X107211904Y-94591190D01*
X108640476Y-94067380D02*
X108450000Y-94067380D01*
X108354761Y-94115000D01*
X108307142Y-94162619D01*
X108211904Y-94305476D01*
X108164285Y-94495952D01*
X108164285Y-94876904D01*
X108211904Y-94972142D01*
X108259523Y-95019761D01*
X108354761Y-95067380D01*
X108545238Y-95067380D01*
X108640476Y-95019761D01*
X108688095Y-94972142D01*
X108735714Y-94876904D01*
X108735714Y-94638809D01*
X108688095Y-94543571D01*
X108640476Y-94495952D01*
X108545238Y-94448333D01*
X108354761Y-94448333D01*
X108259523Y-94495952D01*
X108211904Y-94543571D01*
X108164285Y-94638809D01*
X55824380Y-54014666D02*
X55348190Y-54348000D01*
X55824380Y-54586095D02*
X54824380Y-54586095D01*
X54824380Y-54205142D01*
X54872000Y-54109904D01*
X54919619Y-54062285D01*
X55014857Y-54014666D01*
X55157714Y-54014666D01*
X55252952Y-54062285D01*
X55300571Y-54109904D01*
X55348190Y-54205142D01*
X55348190Y-54586095D01*
X54824380Y-53681333D02*
X54824380Y-53014666D01*
X55824380Y-53443238D01*
X44918333Y-50617380D02*
X44585000Y-50141190D01*
X44346904Y-50617380D02*
X44346904Y-49617380D01*
X44727857Y-49617380D01*
X44823095Y-49665000D01*
X44870714Y-49712619D01*
X44918333Y-49807857D01*
X44918333Y-49950714D01*
X44870714Y-50045952D01*
X44823095Y-50093571D01*
X44727857Y-50141190D01*
X44346904Y-50141190D01*
X45489761Y-50045952D02*
X45394523Y-49998333D01*
X45346904Y-49950714D01*
X45299285Y-49855476D01*
X45299285Y-49807857D01*
X45346904Y-49712619D01*
X45394523Y-49665000D01*
X45489761Y-49617380D01*
X45680238Y-49617380D01*
X45775476Y-49665000D01*
X45823095Y-49712619D01*
X45870714Y-49807857D01*
X45870714Y-49855476D01*
X45823095Y-49950714D01*
X45775476Y-49998333D01*
X45680238Y-50045952D01*
X45489761Y-50045952D01*
X45394523Y-50093571D01*
X45346904Y-50141190D01*
X45299285Y-50236428D01*
X45299285Y-50426904D01*
X45346904Y-50522142D01*
X45394523Y-50569761D01*
X45489761Y-50617380D01*
X45680238Y-50617380D01*
X45775476Y-50569761D01*
X45823095Y-50522142D01*
X45870714Y-50426904D01*
X45870714Y-50236428D01*
X45823095Y-50141190D01*
X45775476Y-50093571D01*
X45680238Y-50045952D01*
X107783333Y-97607380D02*
X107450000Y-97131190D01*
X107211904Y-97607380D02*
X107211904Y-96607380D01*
X107592857Y-96607380D01*
X107688095Y-96655000D01*
X107735714Y-96702619D01*
X107783333Y-96797857D01*
X107783333Y-96940714D01*
X107735714Y-97035952D01*
X107688095Y-97083571D01*
X107592857Y-97131190D01*
X107211904Y-97131190D01*
X108259523Y-97607380D02*
X108450000Y-97607380D01*
X108545238Y-97559761D01*
X108592857Y-97512142D01*
X108688095Y-97369285D01*
X108735714Y-97178809D01*
X108735714Y-96797857D01*
X108688095Y-96702619D01*
X108640476Y-96655000D01*
X108545238Y-96607380D01*
X108354761Y-96607380D01*
X108259523Y-96655000D01*
X108211904Y-96702619D01*
X108164285Y-96797857D01*
X108164285Y-97035952D01*
X108211904Y-97131190D01*
X108259523Y-97178809D01*
X108354761Y-97226428D01*
X108545238Y-97226428D01*
X108640476Y-97178809D01*
X108688095Y-97131190D01*
X108735714Y-97035952D01*
X61587142Y-86177380D02*
X61253809Y-85701190D01*
X61015714Y-86177380D02*
X61015714Y-85177380D01*
X61396666Y-85177380D01*
X61491904Y-85225000D01*
X61539523Y-85272619D01*
X61587142Y-85367857D01*
X61587142Y-85510714D01*
X61539523Y-85605952D01*
X61491904Y-85653571D01*
X61396666Y-85701190D01*
X61015714Y-85701190D01*
X62539523Y-86177380D02*
X61968095Y-86177380D01*
X62253809Y-86177380D02*
X62253809Y-85177380D01*
X62158571Y-85320238D01*
X62063333Y-85415476D01*
X61968095Y-85463095D01*
X63158571Y-85177380D02*
X63253809Y-85177380D01*
X63349047Y-85225000D01*
X63396666Y-85272619D01*
X63444285Y-85367857D01*
X63491904Y-85558333D01*
X63491904Y-85796428D01*
X63444285Y-85986904D01*
X63396666Y-86082142D01*
X63349047Y-86129761D01*
X63253809Y-86177380D01*
X63158571Y-86177380D01*
X63063333Y-86129761D01*
X63015714Y-86082142D01*
X62968095Y-85986904D01*
X62920476Y-85796428D01*
X62920476Y-85558333D01*
X62968095Y-85367857D01*
X63015714Y-85272619D01*
X63063333Y-85225000D01*
X63158571Y-85177380D01*
X61587142Y-88717380D02*
X61253809Y-88241190D01*
X61015714Y-88717380D02*
X61015714Y-87717380D01*
X61396666Y-87717380D01*
X61491904Y-87765000D01*
X61539523Y-87812619D01*
X61587142Y-87907857D01*
X61587142Y-88050714D01*
X61539523Y-88145952D01*
X61491904Y-88193571D01*
X61396666Y-88241190D01*
X61015714Y-88241190D01*
X62539523Y-88717380D02*
X61968095Y-88717380D01*
X62253809Y-88717380D02*
X62253809Y-87717380D01*
X62158571Y-87860238D01*
X62063333Y-87955476D01*
X61968095Y-88003095D01*
X63491904Y-88717380D02*
X62920476Y-88717380D01*
X63206190Y-88717380D02*
X63206190Y-87717380D01*
X63110952Y-87860238D01*
X63015714Y-87955476D01*
X62920476Y-88003095D01*
X61587142Y-91257380D02*
X61253809Y-90781190D01*
X61015714Y-91257380D02*
X61015714Y-90257380D01*
X61396666Y-90257380D01*
X61491904Y-90305000D01*
X61539523Y-90352619D01*
X61587142Y-90447857D01*
X61587142Y-90590714D01*
X61539523Y-90685952D01*
X61491904Y-90733571D01*
X61396666Y-90781190D01*
X61015714Y-90781190D01*
X62539523Y-91257380D02*
X61968095Y-91257380D01*
X62253809Y-91257380D02*
X62253809Y-90257380D01*
X62158571Y-90400238D01*
X62063333Y-90495476D01*
X61968095Y-90543095D01*
X62920476Y-90352619D02*
X62968095Y-90305000D01*
X63063333Y-90257380D01*
X63301428Y-90257380D01*
X63396666Y-90305000D01*
X63444285Y-90352619D01*
X63491904Y-90447857D01*
X63491904Y-90543095D01*
X63444285Y-90685952D01*
X62872857Y-91257380D01*
X63491904Y-91257380D01*
X61587142Y-93797380D02*
X61253809Y-93321190D01*
X61015714Y-93797380D02*
X61015714Y-92797380D01*
X61396666Y-92797380D01*
X61491904Y-92845000D01*
X61539523Y-92892619D01*
X61587142Y-92987857D01*
X61587142Y-93130714D01*
X61539523Y-93225952D01*
X61491904Y-93273571D01*
X61396666Y-93321190D01*
X61015714Y-93321190D01*
X62539523Y-93797380D02*
X61968095Y-93797380D01*
X62253809Y-93797380D02*
X62253809Y-92797380D01*
X62158571Y-92940238D01*
X62063333Y-93035476D01*
X61968095Y-93083095D01*
X62872857Y-92797380D02*
X63491904Y-92797380D01*
X63158571Y-93178333D01*
X63301428Y-93178333D01*
X63396666Y-93225952D01*
X63444285Y-93273571D01*
X63491904Y-93368809D01*
X63491904Y-93606904D01*
X63444285Y-93702142D01*
X63396666Y-93749761D01*
X63301428Y-93797380D01*
X63015714Y-93797380D01*
X62920476Y-93749761D01*
X62872857Y-93702142D01*
X61587142Y-96337380D02*
X61253809Y-95861190D01*
X61015714Y-96337380D02*
X61015714Y-95337380D01*
X61396666Y-95337380D01*
X61491904Y-95385000D01*
X61539523Y-95432619D01*
X61587142Y-95527857D01*
X61587142Y-95670714D01*
X61539523Y-95765952D01*
X61491904Y-95813571D01*
X61396666Y-95861190D01*
X61015714Y-95861190D01*
X62539523Y-96337380D02*
X61968095Y-96337380D01*
X62253809Y-96337380D02*
X62253809Y-95337380D01*
X62158571Y-95480238D01*
X62063333Y-95575476D01*
X61968095Y-95623095D01*
X63396666Y-95670714D02*
X63396666Y-96337380D01*
X63158571Y-95289761D02*
X62920476Y-96004047D01*
X63539523Y-96004047D01*
X57777142Y-52267380D02*
X57443809Y-51791190D01*
X57205714Y-52267380D02*
X57205714Y-51267380D01*
X57586666Y-51267380D01*
X57681904Y-51315000D01*
X57729523Y-51362619D01*
X57777142Y-51457857D01*
X57777142Y-51600714D01*
X57729523Y-51695952D01*
X57681904Y-51743571D01*
X57586666Y-51791190D01*
X57205714Y-51791190D01*
X58729523Y-52267380D02*
X58158095Y-52267380D01*
X58443809Y-52267380D02*
X58443809Y-51267380D01*
X58348571Y-51410238D01*
X58253333Y-51505476D01*
X58158095Y-51553095D01*
X59634285Y-51267380D02*
X59158095Y-51267380D01*
X59110476Y-51743571D01*
X59158095Y-51695952D01*
X59253333Y-51648333D01*
X59491428Y-51648333D01*
X59586666Y-51695952D01*
X59634285Y-51743571D01*
X59681904Y-51838809D01*
X59681904Y-52076904D01*
X59634285Y-52172142D01*
X59586666Y-52219761D01*
X59491428Y-52267380D01*
X59253333Y-52267380D01*
X59158095Y-52219761D01*
X59110476Y-52172142D01*
X82782380Y-69976904D02*
X82782380Y-69405476D01*
X83782380Y-69691190D02*
X82782380Y-69691190D01*
X83782380Y-68548333D02*
X83782380Y-69119761D01*
X83782380Y-68834047D02*
X82782380Y-68834047D01*
X82925238Y-68929285D01*
X83020476Y-69024523D01*
X83068095Y-69119761D01*
X47609285Y-61047380D02*
X48180714Y-61047380D01*
X47895000Y-62047380D02*
X47895000Y-61047380D01*
X48514047Y-62047380D02*
X48514047Y-61047380D01*
X48514047Y-61523571D02*
X49085476Y-61523571D01*
X49085476Y-62047380D02*
X49085476Y-61047380D01*
X50085476Y-62047380D02*
X49514047Y-62047380D01*
X49799761Y-62047380D02*
X49799761Y-61047380D01*
X49704523Y-61190238D01*
X49609285Y-61285476D01*
X49514047Y-61333095D01*
X19058095Y-100417380D02*
X19629523Y-100417380D01*
X19343809Y-101417380D02*
X19343809Y-100417380D01*
X19962857Y-101417380D02*
X19962857Y-100417380D01*
X20343809Y-100417380D01*
X20439047Y-100465000D01*
X20486666Y-100512619D01*
X20534285Y-100607857D01*
X20534285Y-100750714D01*
X20486666Y-100845952D01*
X20439047Y-100893571D01*
X20343809Y-100941190D01*
X19962857Y-100941190D01*
X21486666Y-101417380D02*
X20915238Y-101417380D01*
X21200952Y-101417380D02*
X21200952Y-100417380D01*
X21105714Y-100560238D01*
X21010476Y-100655476D01*
X20915238Y-100703095D01*
X90632380Y-90296904D02*
X91441904Y-90296904D01*
X91537142Y-90249285D01*
X91584761Y-90201666D01*
X91632380Y-90106428D01*
X91632380Y-89915952D01*
X91584761Y-89820714D01*
X91537142Y-89773095D01*
X91441904Y-89725476D01*
X90632380Y-89725476D01*
X91632380Y-88725476D02*
X91632380Y-89296904D01*
X91632380Y-89011190D02*
X90632380Y-89011190D01*
X90775238Y-89106428D01*
X90870476Y-89201666D01*
X90918095Y-89296904D01*
X115164404Y-58872380D02*
X115164404Y-57872380D01*
X115402500Y-57872380D01*
X115545357Y-57920000D01*
X115640595Y-58015238D01*
X115688214Y-58110476D01*
X115735833Y-58300952D01*
X115735833Y-58443809D01*
X115688214Y-58634285D01*
X115640595Y-58729523D01*
X115545357Y-58824761D01*
X115402500Y-58872380D01*
X115164404Y-58872380D01*
X116069166Y-57872380D02*
X116735833Y-57872380D01*
X116307261Y-58872380D01*
X115562142Y-56332380D02*
X115228809Y-55856190D01*
X114990714Y-56332380D02*
X114990714Y-55332380D01*
X115371666Y-55332380D01*
X115466904Y-55380000D01*
X115514523Y-55427619D01*
X115562142Y-55522857D01*
X115562142Y-55665714D01*
X115514523Y-55760952D01*
X115466904Y-55808571D01*
X115371666Y-55856190D01*
X114990714Y-55856190D01*
X116514523Y-56332380D02*
X115943095Y-56332380D01*
X116228809Y-56332380D02*
X116228809Y-55332380D01*
X116133571Y-55475238D01*
X116038333Y-55570476D01*
X115943095Y-55618095D01*
X117371666Y-55332380D02*
X117181190Y-55332380D01*
X117085952Y-55380000D01*
X117038333Y-55427619D01*
X116943095Y-55570476D01*
X116895476Y-55760952D01*
X116895476Y-56141904D01*
X116943095Y-56237142D01*
X116990714Y-56284761D01*
X117085952Y-56332380D01*
X117276428Y-56332380D01*
X117371666Y-56284761D01*
X117419285Y-56237142D01*
X117466904Y-56141904D01*
X117466904Y-55903809D01*
X117419285Y-55808571D01*
X117371666Y-55760952D01*
X117276428Y-55713333D01*
X117085952Y-55713333D01*
X116990714Y-55760952D01*
X116943095Y-55808571D01*
X116895476Y-55903809D01*
X39878095Y-49982380D02*
X39878095Y-48982380D01*
X39878095Y-49458571D02*
X40449523Y-49458571D01*
X40449523Y-49982380D02*
X40449523Y-48982380D01*
X41449523Y-49982380D02*
X40878095Y-49982380D01*
X41163809Y-49982380D02*
X41163809Y-48982380D01*
X41068571Y-49125238D01*
X40973333Y-49220476D01*
X40878095Y-49268095D01*
X115443095Y-86812380D02*
X115443095Y-85812380D01*
X115443095Y-86288571D02*
X116014523Y-86288571D01*
X116014523Y-86812380D02*
X116014523Y-85812380D01*
X116443095Y-85907619D02*
X116490714Y-85860000D01*
X116585952Y-85812380D01*
X116824047Y-85812380D01*
X116919285Y-85860000D01*
X116966904Y-85907619D01*
X117014523Y-86002857D01*
X117014523Y-86098095D01*
X116966904Y-86240952D01*
X116395476Y-86812380D01*
X117014523Y-86812380D01*
X60833095Y-98837380D02*
X60833095Y-97837380D01*
X60833095Y-98313571D02*
X61404523Y-98313571D01*
X61404523Y-98837380D02*
X61404523Y-97837380D01*
X61785476Y-97837380D02*
X62404523Y-97837380D01*
X62071190Y-98218333D01*
X62214047Y-98218333D01*
X62309285Y-98265952D01*
X62356904Y-98313571D01*
X62404523Y-98408809D01*
X62404523Y-98646904D01*
X62356904Y-98742142D01*
X62309285Y-98789761D01*
X62214047Y-98837380D01*
X61928333Y-98837380D01*
X61833095Y-98789761D01*
X61785476Y-98742142D01*
X18288095Y-86177380D02*
X18288095Y-85177380D01*
X18288095Y-85653571D02*
X18859523Y-85653571D01*
X18859523Y-86177380D02*
X18859523Y-85177380D01*
X19764285Y-85510714D02*
X19764285Y-86177380D01*
X19526190Y-85129761D02*
X19288095Y-85844047D01*
X19907142Y-85844047D01*
M02*
