%FSLAX45Y45*%
G04 Gerber Fmt 4.5, Leading zero omitted, Abs format (unit mm)*
G04 Created by KiCad (PCBNEW 5.1.5) date 2020-04-03 19:56:20*
%MOMM*%
%LPD*%
G04 APERTURE LIST*
%TA.AperFunction,Profile*%
%ADD10C,0.050000*%
%TD*%
%ADD11C,0.200000*%
%ADD12C,0.300000*%
G04 APERTURE END LIST*
D10*
X1778000Y-10350500D02*
X1778000Y-5080000D01*
X6286500Y-10604500D02*
X2032000Y-10604500D01*
X11303000Y-10096500D02*
X6794500Y-10096500D01*
X11557000Y-9017000D02*
X11557000Y-9842500D01*
X12065000Y-8763000D02*
X11811000Y-8763000D01*
X12319000Y-5080000D02*
X12319000Y-8509000D01*
X2032000Y-4826000D02*
X12065000Y-4826000D01*
X1778000Y-5080000D02*
G75*
G02X2032000Y-4826000I254000J0D01*
G01*
X2032000Y-10604500D02*
G75*
G02X1778000Y-10350500I0J254000D01*
G01*
X6540500Y-10350500D02*
G75*
G02X6286500Y-10604500I-254000J0D01*
G01*
X6540500Y-10350500D02*
G75*
G02X6794500Y-10096500I254000J0D01*
G01*
X11557000Y-9842500D02*
G75*
G02X11303000Y-10096500I-254000J0D01*
G01*
X11557000Y-9017000D02*
G75*
G02X11811000Y-8763000I254000J0D01*
G01*
X12319000Y-8509000D02*
G75*
G02X12065000Y-8763000I-254000J0D01*
G01*
X12065000Y-4826000D02*
G75*
G02X12319000Y-5080000I0J-254000D01*
G01*
D11*
X5695000Y-5822000D02*
X5735000Y-5862000D01*
X5735000Y-5822000D02*
X5695000Y-5862000D01*
X6203000Y-5441000D02*
X6243000Y-5481000D01*
X6243000Y-5441000D02*
X6203000Y-5481000D01*
X6266500Y-4869500D02*
X6306500Y-4909500D01*
X6306500Y-4869500D02*
X6266500Y-4909500D01*
X6520500Y-4869500D02*
X6560500Y-4909500D01*
X6560500Y-4869500D02*
X6520500Y-4909500D01*
X6584000Y-5441000D02*
X6624000Y-5481000D01*
X6624000Y-5441000D02*
X6584000Y-5481000D01*
X6584000Y-5695000D02*
X6624000Y-5735000D01*
X6624000Y-5695000D02*
X6584000Y-5735000D01*
X6584000Y-9886000D02*
X6624000Y-9926000D01*
X6624000Y-9886000D02*
X6584000Y-9926000D01*
X6838000Y-5441000D02*
X6878000Y-5481000D01*
X6878000Y-5441000D02*
X6838000Y-5481000D01*
X6838000Y-6584000D02*
X6878000Y-6624000D01*
X6878000Y-6584000D02*
X6838000Y-6624000D01*
X6888800Y-4907600D02*
X6928800Y-4947600D01*
X6928800Y-4907600D02*
X6888800Y-4947600D01*
X6965000Y-7600000D02*
X7005000Y-7640000D01*
X7005000Y-7600000D02*
X6965000Y-7640000D01*
X6965000Y-8362000D02*
X7005000Y-8402000D01*
X7005000Y-8362000D02*
X6965000Y-8402000D01*
X6965000Y-9822500D02*
X7005000Y-9862500D01*
X7005000Y-9822500D02*
X6965000Y-9862500D01*
X7015800Y-9301800D02*
X7055800Y-9341800D01*
X7055800Y-9301800D02*
X7015800Y-9341800D01*
X7092000Y-9568500D02*
X7132000Y-9608500D01*
X7132000Y-9568500D02*
X7092000Y-9608500D01*
X7282500Y-9314500D02*
X7322500Y-9354500D01*
X7322500Y-9314500D02*
X7282500Y-9354500D01*
X7346000Y-7473000D02*
X7386000Y-7513000D01*
X7386000Y-7473000D02*
X7346000Y-7513000D01*
X7484050Y-6366450D02*
X7524050Y-6406450D01*
X7524050Y-6366450D02*
X7484050Y-6406450D01*
X7536500Y-8235000D02*
X7576500Y-8275000D01*
X7576500Y-8235000D02*
X7536500Y-8275000D01*
X7592000Y-6258500D02*
X7632000Y-6298500D01*
X7632000Y-6258500D02*
X7592000Y-6298500D01*
X7600000Y-8806500D02*
X7640000Y-8846500D01*
X7640000Y-8806500D02*
X7600000Y-8846500D01*
X7600000Y-9124000D02*
X7640000Y-9164000D01*
X7640000Y-9124000D02*
X7600000Y-9164000D01*
X7600000Y-9378000D02*
X7640000Y-9418000D01*
X7640000Y-9378000D02*
X7600000Y-9418000D01*
X7854000Y-7727000D02*
X7894000Y-7767000D01*
X7894000Y-7727000D02*
X7854000Y-7767000D01*
X7917500Y-9187500D02*
X7957500Y-9227500D01*
X7957500Y-9187500D02*
X7917500Y-9227500D01*
X7917500Y-9822500D02*
X7957500Y-9862500D01*
X7957500Y-9822500D02*
X7917500Y-9862500D01*
X7965500Y-9463000D02*
X8005500Y-9503000D01*
X8005500Y-9463000D02*
X7965500Y-9503000D01*
X7981000Y-6711000D02*
X8021000Y-6751000D01*
X8021000Y-6711000D02*
X7981000Y-6751000D01*
X7981000Y-8489000D02*
X8021000Y-8529000D01*
X8021000Y-8489000D02*
X7981000Y-8529000D01*
X8114000Y-9314500D02*
X8154000Y-9354500D01*
X8154000Y-9314500D02*
X8114000Y-9354500D01*
X8171500Y-7790500D02*
X8211500Y-7830500D01*
X8211500Y-7790500D02*
X8171500Y-7830500D01*
X8362000Y-7854000D02*
X8402000Y-7894000D01*
X8402000Y-7854000D02*
X8362000Y-7894000D01*
X8489000Y-5949000D02*
X8529000Y-5989000D01*
X8529000Y-5949000D02*
X8489000Y-5989000D01*
X8552500Y-5250500D02*
X8592500Y-5290500D01*
X8592500Y-5250500D02*
X8552500Y-5290500D01*
X8679500Y-9378000D02*
X8719500Y-9418000D01*
X8719500Y-9378000D02*
X8679500Y-9418000D01*
X8870000Y-7981000D02*
X8910000Y-8021000D01*
X8910000Y-7981000D02*
X8870000Y-8021000D01*
X8997000Y-8235000D02*
X9037000Y-8275000D01*
X9037000Y-8235000D02*
X8997000Y-8275000D01*
X9022400Y-8886000D02*
X9062400Y-8926000D01*
X9062400Y-8886000D02*
X9022400Y-8926000D01*
X9060500Y-8616000D02*
X9100500Y-8656000D01*
X9100500Y-8616000D02*
X9060500Y-8656000D01*
X9098600Y-9047800D02*
X9138600Y-9087800D01*
X9138600Y-9047800D02*
X9098600Y-9087800D01*
X9124000Y-5568000D02*
X9164000Y-5608000D01*
X9164000Y-5568000D02*
X9124000Y-5608000D01*
X9124000Y-9187500D02*
X9164000Y-9227500D01*
X9164000Y-9187500D02*
X9124000Y-9227500D01*
X9200200Y-9967500D02*
X9240200Y-10007500D01*
X9240200Y-9967500D02*
X9200200Y-10007500D01*
X9251000Y-7917500D02*
X9291000Y-7957500D01*
X9291000Y-7917500D02*
X9251000Y-7957500D01*
X9505000Y-5314000D02*
X9545000Y-5354000D01*
X9545000Y-5314000D02*
X9505000Y-5354000D01*
X9632000Y-5949000D02*
X9672000Y-5989000D01*
X9672000Y-5949000D02*
X9632000Y-5989000D01*
X9632000Y-6203000D02*
X9672000Y-6243000D01*
X9672000Y-6203000D02*
X9632000Y-6243000D01*
X9632000Y-6457000D02*
X9672000Y-6497000D01*
X9672000Y-6457000D02*
X9632000Y-6497000D01*
X9632000Y-6711000D02*
X9672000Y-6751000D01*
X9672000Y-6711000D02*
X9632000Y-6751000D01*
X9632000Y-6965000D02*
X9672000Y-7005000D01*
X9672000Y-6965000D02*
X9632000Y-7005000D01*
X9632000Y-7219000D02*
X9672000Y-7259000D01*
X9672000Y-7219000D02*
X9632000Y-7259000D01*
X9632000Y-7473000D02*
X9672000Y-7513000D01*
X9672000Y-7473000D02*
X9632000Y-7513000D01*
X9632000Y-7727000D02*
X9672000Y-7767000D01*
X9672000Y-7727000D02*
X9632000Y-7767000D01*
X9682800Y-8717600D02*
X9722800Y-8757600D01*
X9722800Y-8717600D02*
X9682800Y-8757600D01*
X9682800Y-9967500D02*
X9722800Y-10007500D01*
X9722800Y-9967500D02*
X9682800Y-10007500D01*
X9809800Y-9301800D02*
X9849800Y-9341800D01*
X9849800Y-9301800D02*
X9809800Y-9341800D01*
X9822500Y-9695500D02*
X9862500Y-9735500D01*
X9862500Y-9695500D02*
X9822500Y-9735500D01*
X10902000Y-9314500D02*
X10942000Y-9354500D01*
X10942000Y-9314500D02*
X10902000Y-9354500D01*
X4480000Y-6350000D02*
G75*
G03X4480000Y-6350000I-35000J0D01*
G01*
X4988000Y-6350000D02*
G75*
G03X4988000Y-6350000I-35000J0D01*
G01*
X8699500Y-8205000D02*
X8699500Y-8305000D01*
X8649500Y-8255000D02*
X8749500Y-8255000D01*
X8699500Y-8459000D02*
X8699500Y-8559000D01*
X8649500Y-8509000D02*
X8749500Y-8509000D01*
X8699500Y-8713000D02*
X8699500Y-8813000D01*
X8649500Y-8763000D02*
X8749500Y-8763000D01*
X8699500Y-8967000D02*
X8699500Y-9067000D01*
X8649500Y-9017000D02*
X8749500Y-9017000D01*
X9334500Y-8205000D02*
X9334500Y-8305000D01*
X9284500Y-8255000D02*
X9384500Y-8255000D01*
X9588500Y-8205000D02*
X9588500Y-8305000D01*
X9538500Y-8255000D02*
X9638500Y-8255000D01*
X9842500Y-8205000D02*
X9842500Y-8305000D01*
X9792500Y-8255000D02*
X9892500Y-8255000D01*
X10096500Y-8205000D02*
X10096500Y-8305000D01*
X10046500Y-8255000D02*
X10146500Y-8255000D01*
X8890000Y-5030000D02*
X8890000Y-5130000D01*
X8840000Y-5080000D02*
X8940000Y-5080000D01*
X9144000Y-5030000D02*
X9144000Y-5130000D01*
X9094000Y-5080000D02*
X9194000Y-5080000D01*
X9398000Y-5030000D02*
X9398000Y-5130000D01*
X9348000Y-5080000D02*
X9448000Y-5080000D01*
X9652000Y-5030000D02*
X9652000Y-5130000D01*
X9602000Y-5080000D02*
X9702000Y-5080000D01*
X9906000Y-5030000D02*
X9906000Y-5130000D01*
X9856000Y-5080000D02*
X9956000Y-5080000D01*
X10160000Y-5030000D02*
X10160000Y-5130000D01*
X10110000Y-5080000D02*
X10210000Y-5080000D01*
X10414000Y-5030000D02*
X10414000Y-5130000D01*
X10364000Y-5080000D02*
X10464000Y-5080000D01*
X10668000Y-5030000D02*
X10668000Y-5130000D01*
X10618000Y-5080000D02*
X10718000Y-5080000D01*
X8699500Y-9602000D02*
X8699500Y-9702000D01*
X8649500Y-9652000D02*
X8749500Y-9652000D01*
X8953500Y-9602000D02*
X8953500Y-9702000D01*
X8903500Y-9652000D02*
X9003500Y-9652000D01*
X9207500Y-9602000D02*
X9207500Y-9702000D01*
X9157500Y-9652000D02*
X9257500Y-9652000D01*
X9461500Y-9602000D02*
X9461500Y-9702000D01*
X9411500Y-9652000D02*
X9511500Y-9652000D01*
X10096500Y-8840000D02*
X10096500Y-8940000D01*
X10046500Y-8890000D02*
X10146500Y-8890000D01*
X10096500Y-9094000D02*
X10096500Y-9194000D01*
X10046500Y-9144000D02*
X10146500Y-9144000D01*
X10096500Y-9348000D02*
X10096500Y-9448000D01*
X10046500Y-9398000D02*
X10146500Y-9398000D01*
X10096500Y-9602000D02*
X10096500Y-9702000D01*
X10046500Y-9652000D02*
X10146500Y-9652000D01*
X11176000Y-5030000D02*
X11176000Y-5130000D01*
X11126000Y-5080000D02*
X11226000Y-5080000D01*
X11430000Y-5030000D02*
X11430000Y-5130000D01*
X11380000Y-5080000D02*
X11480000Y-5080000D01*
X11684000Y-5030000D02*
X11684000Y-5130000D01*
X11634000Y-5080000D02*
X11734000Y-5080000D01*
X11938000Y-5030000D02*
X11938000Y-5130000D01*
X11888000Y-5080000D02*
X11988000Y-5080000D01*
X2032000Y-9792500D02*
X2032000Y-9892500D01*
X1982000Y-9842500D02*
X2082000Y-9842500D01*
X3347962Y-8808962D02*
X3347962Y-8717038D01*
X3256038Y-8717038D01*
X3256038Y-8808962D01*
X3347962Y-8808962D01*
X5597962Y-8808962D02*
X5597962Y-8717038D01*
X5506038Y-8717038D01*
X5506038Y-8808962D01*
X5597962Y-8808962D01*
X8778962Y-5776962D02*
X8778962Y-5685038D01*
X8687038Y-5685038D01*
X8687038Y-5776962D01*
X8778962Y-5776962D01*
X8778962Y-6176962D02*
X8778962Y-6085038D01*
X8687038Y-6085038D01*
X8687038Y-6176962D01*
X8778962Y-6176962D01*
X8778962Y-6576962D02*
X8778962Y-6485038D01*
X8687038Y-6485038D01*
X8687038Y-6576962D01*
X8778962Y-6576962D01*
X8778962Y-6976962D02*
X8778962Y-6885038D01*
X8687038Y-6885038D01*
X8687038Y-6976962D01*
X8778962Y-6976962D01*
X8778962Y-7376962D02*
X8778962Y-7285038D01*
X8687038Y-7285038D01*
X8687038Y-7376962D01*
X8778962Y-7376962D01*
X8778962Y-7776962D02*
X8778962Y-7685038D01*
X8687038Y-7685038D01*
X8687038Y-7776962D01*
X8778962Y-7776962D01*
X11278962Y-5776962D02*
X11278962Y-5685038D01*
X11187038Y-5685038D01*
X11187038Y-5776962D01*
X11278962Y-5776962D01*
X11278962Y-6176962D02*
X11278962Y-6085038D01*
X11187038Y-6085038D01*
X11187038Y-6176962D01*
X11278962Y-6176962D01*
X11278962Y-6576962D02*
X11278962Y-6485038D01*
X11187038Y-6485038D01*
X11187038Y-6576962D01*
X11278962Y-6576962D01*
X11278962Y-6976962D02*
X11278962Y-6885038D01*
X11187038Y-6885038D01*
X11187038Y-6976962D01*
X11278962Y-6976962D01*
X11278962Y-7376962D02*
X11278962Y-7285038D01*
X11187038Y-7285038D01*
X11187038Y-7376962D01*
X11278962Y-7376962D01*
X11278962Y-7776962D02*
X11278962Y-7685038D01*
X11187038Y-7685038D01*
X11187038Y-7776962D01*
X11278962Y-7776962D01*
X3728962Y-5824462D02*
X3728962Y-5732538D01*
X3637038Y-5732538D01*
X3637038Y-5824462D01*
X3728962Y-5824462D01*
X3728962Y-8074462D02*
X3728962Y-7982538D01*
X3637038Y-7982538D01*
X3637038Y-8074462D01*
X3728962Y-8074462D01*
X2794000Y-5912000D02*
X2864000Y-5842000D01*
X2794000Y-5772000D01*
X2724000Y-5842000D01*
X2794000Y-5912000D01*
X2794000Y-6674000D02*
X2864000Y-6604000D01*
X2794000Y-6534000D01*
X2724000Y-6604000D01*
X2794000Y-6674000D01*
X2794000Y-7436000D02*
X2864000Y-7366000D01*
X2794000Y-7296000D01*
X2724000Y-7366000D01*
X2794000Y-7436000D01*
X3302000Y-9595000D02*
X3372000Y-9525000D01*
X3302000Y-9455000D01*
X3232000Y-9525000D01*
X3302000Y-9595000D01*
X4064000Y-9595000D02*
X4134000Y-9525000D01*
X4064000Y-9455000D01*
X3994000Y-9525000D01*
X4064000Y-9595000D01*
X4826000Y-9595000D02*
X4896000Y-9525000D01*
X4826000Y-9455000D01*
X4756000Y-9525000D01*
X4826000Y-9595000D01*
X6504000Y-6186500D02*
X6704000Y-6386500D01*
X6704000Y-6186500D02*
X6504000Y-6386500D01*
X6704000Y-6286500D02*
G75*
G03X6704000Y-6286500I-100000J0D01*
G01*
X6504000Y-7186500D02*
X6704000Y-7386500D01*
X6704000Y-7186500D02*
X6504000Y-7386500D01*
X6704000Y-7286500D02*
G75*
G03X6704000Y-7286500I-100000J0D01*
G01*
D12*
X2061928Y-11072714D02*
X2061928Y-10772714D01*
X2133357Y-10772714D01*
X2176214Y-10787000D01*
X2204786Y-10815572D01*
X2219071Y-10844143D01*
X2233357Y-10901286D01*
X2233357Y-10944143D01*
X2219071Y-11001286D01*
X2204786Y-11029857D01*
X2176214Y-11058429D01*
X2133357Y-11072714D01*
X2061928Y-11072714D01*
X2361928Y-11072714D02*
X2361928Y-10872714D01*
X2361928Y-10929857D02*
X2376214Y-10901286D01*
X2390500Y-10887000D01*
X2419071Y-10872714D01*
X2447643Y-10872714D01*
X2547643Y-11072714D02*
X2547643Y-10872714D01*
X2547643Y-10772714D02*
X2533357Y-10787000D01*
X2547643Y-10801286D01*
X2561928Y-10787000D01*
X2547643Y-10772714D01*
X2547643Y-10801286D01*
X2733357Y-11072714D02*
X2704786Y-11058429D01*
X2690500Y-11029857D01*
X2690500Y-10772714D01*
X2890500Y-11072714D02*
X2861928Y-11058429D01*
X2847643Y-11029857D01*
X2847643Y-10772714D01*
X3233357Y-11072714D02*
X3233357Y-10772714D01*
X3333357Y-10987000D01*
X3433357Y-10772714D01*
X3433357Y-11072714D01*
X3704786Y-11072714D02*
X3704786Y-10915572D01*
X3690500Y-10887000D01*
X3661928Y-10872714D01*
X3604786Y-10872714D01*
X3576214Y-10887000D01*
X3704786Y-11058429D02*
X3676214Y-11072714D01*
X3604786Y-11072714D01*
X3576214Y-11058429D01*
X3561928Y-11029857D01*
X3561928Y-11001286D01*
X3576214Y-10972714D01*
X3604786Y-10958429D01*
X3676214Y-10958429D01*
X3704786Y-10944143D01*
X3847643Y-10872714D02*
X3847643Y-11172714D01*
X3847643Y-10887000D02*
X3876214Y-10872714D01*
X3933357Y-10872714D01*
X3961928Y-10887000D01*
X3976214Y-10901286D01*
X3990500Y-10929857D01*
X3990500Y-11015572D01*
X3976214Y-11044143D01*
X3961928Y-11058429D01*
X3933357Y-11072714D01*
X3876214Y-11072714D01*
X3847643Y-11058429D01*
X4119071Y-11044143D02*
X4133357Y-11058429D01*
X4119071Y-11072714D01*
X4104786Y-11058429D01*
X4119071Y-11044143D01*
X4119071Y-11072714D01*
X4119071Y-10887000D02*
X4133357Y-10901286D01*
X4119071Y-10915572D01*
X4104786Y-10901286D01*
X4119071Y-10887000D01*
X4119071Y-10915572D01*
X1735500Y-11547000D02*
X1775500Y-11587000D01*
X1775500Y-11547000D02*
X1735500Y-11587000D01*
X2119071Y-11402714D02*
X2147643Y-11402714D01*
X2176214Y-11417000D01*
X2190500Y-11431286D01*
X2204786Y-11459857D01*
X2219071Y-11517000D01*
X2219071Y-11588429D01*
X2204786Y-11645571D01*
X2190500Y-11674143D01*
X2176214Y-11688429D01*
X2147643Y-11702714D01*
X2119071Y-11702714D01*
X2090500Y-11688429D01*
X2076214Y-11674143D01*
X2061928Y-11645571D01*
X2047643Y-11588429D01*
X2047643Y-11517000D01*
X2061928Y-11459857D01*
X2076214Y-11431286D01*
X2090500Y-11417000D01*
X2119071Y-11402714D01*
X2347643Y-11674143D02*
X2361928Y-11688429D01*
X2347643Y-11702714D01*
X2333357Y-11688429D01*
X2347643Y-11674143D01*
X2347643Y-11702714D01*
X2619071Y-11502714D02*
X2619071Y-11702714D01*
X2547643Y-11388429D02*
X2476214Y-11602714D01*
X2661928Y-11602714D01*
X2833357Y-11402714D02*
X2861928Y-11402714D01*
X2890500Y-11417000D01*
X2904786Y-11431286D01*
X2919071Y-11459857D01*
X2933357Y-11517000D01*
X2933357Y-11588429D01*
X2919071Y-11645571D01*
X2904786Y-11674143D01*
X2890500Y-11688429D01*
X2861928Y-11702714D01*
X2833357Y-11702714D01*
X2804786Y-11688429D01*
X2790500Y-11674143D01*
X2776214Y-11645571D01*
X2761928Y-11588429D01*
X2761928Y-11517000D01*
X2776214Y-11459857D01*
X2790500Y-11431286D01*
X2804786Y-11417000D01*
X2833357Y-11402714D01*
X3061928Y-11702714D02*
X3061928Y-11502714D01*
X3061928Y-11531286D02*
X3076214Y-11517000D01*
X3104786Y-11502714D01*
X3147643Y-11502714D01*
X3176214Y-11517000D01*
X3190500Y-11545571D01*
X3190500Y-11702714D01*
X3190500Y-11545571D02*
X3204786Y-11517000D01*
X3233357Y-11502714D01*
X3276214Y-11502714D01*
X3304786Y-11517000D01*
X3319071Y-11545571D01*
X3319071Y-11702714D01*
X3461928Y-11702714D02*
X3461928Y-11502714D01*
X3461928Y-11531286D02*
X3476214Y-11517000D01*
X3504786Y-11502714D01*
X3547643Y-11502714D01*
X3576214Y-11517000D01*
X3590500Y-11545571D01*
X3590500Y-11702714D01*
X3590500Y-11545571D02*
X3604786Y-11517000D01*
X3633357Y-11502714D01*
X3676214Y-11502714D01*
X3704786Y-11517000D01*
X3719071Y-11545571D01*
X3719071Y-11702714D01*
X4304786Y-11388429D02*
X4047643Y-11774143D01*
X4690500Y-11402714D02*
X4719071Y-11402714D01*
X4747643Y-11417000D01*
X4761928Y-11431286D01*
X4776214Y-11459857D01*
X4790500Y-11517000D01*
X4790500Y-11588429D01*
X4776214Y-11645571D01*
X4761928Y-11674143D01*
X4747643Y-11688429D01*
X4719071Y-11702714D01*
X4690500Y-11702714D01*
X4661928Y-11688429D01*
X4647643Y-11674143D01*
X4633357Y-11645571D01*
X4619071Y-11588429D01*
X4619071Y-11517000D01*
X4633357Y-11459857D01*
X4647643Y-11431286D01*
X4661928Y-11417000D01*
X4690500Y-11402714D01*
X4919071Y-11674143D02*
X4933357Y-11688429D01*
X4919071Y-11702714D01*
X4904786Y-11688429D01*
X4919071Y-11674143D01*
X4919071Y-11702714D01*
X5119071Y-11402714D02*
X5147643Y-11402714D01*
X5176214Y-11417000D01*
X5190500Y-11431286D01*
X5204786Y-11459857D01*
X5219071Y-11517000D01*
X5219071Y-11588429D01*
X5204786Y-11645571D01*
X5190500Y-11674143D01*
X5176214Y-11688429D01*
X5147643Y-11702714D01*
X5119071Y-11702714D01*
X5090500Y-11688429D01*
X5076214Y-11674143D01*
X5061928Y-11645571D01*
X5047643Y-11588429D01*
X5047643Y-11517000D01*
X5061928Y-11459857D01*
X5076214Y-11431286D01*
X5090500Y-11417000D01*
X5119071Y-11402714D01*
X5504786Y-11702714D02*
X5333357Y-11702714D01*
X5419071Y-11702714D02*
X5419071Y-11402714D01*
X5390500Y-11445571D01*
X5361928Y-11474143D01*
X5333357Y-11488429D01*
X5761928Y-11402714D02*
X5704786Y-11402714D01*
X5676214Y-11417000D01*
X5661928Y-11431286D01*
X5633357Y-11474143D01*
X5619071Y-11531286D01*
X5619071Y-11645571D01*
X5633357Y-11674143D01*
X5647643Y-11688429D01*
X5676214Y-11702714D01*
X5733357Y-11702714D01*
X5761928Y-11688429D01*
X5776214Y-11674143D01*
X5790500Y-11645571D01*
X5790500Y-11574143D01*
X5776214Y-11545571D01*
X5761928Y-11531286D01*
X5733357Y-11517000D01*
X5676214Y-11517000D01*
X5647643Y-11531286D01*
X5633357Y-11545571D01*
X5619071Y-11574143D01*
X5904786Y-11402714D02*
X5904786Y-11459857D01*
X6019071Y-11402714D02*
X6019071Y-11459857D01*
X6461928Y-11817000D02*
X6447643Y-11802714D01*
X6419071Y-11759857D01*
X6404786Y-11731286D01*
X6390500Y-11688429D01*
X6376214Y-11617000D01*
X6376214Y-11559857D01*
X6390500Y-11488429D01*
X6404786Y-11445571D01*
X6419071Y-11417000D01*
X6447643Y-11374143D01*
X6461928Y-11359857D01*
X6719071Y-11402714D02*
X6576214Y-11402714D01*
X6561928Y-11545571D01*
X6576214Y-11531286D01*
X6604786Y-11517000D01*
X6676214Y-11517000D01*
X6704786Y-11531286D01*
X6719071Y-11545571D01*
X6733357Y-11574143D01*
X6733357Y-11645571D01*
X6719071Y-11674143D01*
X6704786Y-11688429D01*
X6676214Y-11702714D01*
X6604786Y-11702714D01*
X6576214Y-11688429D01*
X6561928Y-11674143D01*
X6904786Y-11531286D02*
X6876214Y-11517000D01*
X6861928Y-11502714D01*
X6847643Y-11474143D01*
X6847643Y-11459857D01*
X6861928Y-11431286D01*
X6876214Y-11417000D01*
X6904786Y-11402714D01*
X6961928Y-11402714D01*
X6990500Y-11417000D01*
X7004786Y-11431286D01*
X7019071Y-11459857D01*
X7019071Y-11474143D01*
X7004786Y-11502714D01*
X6990500Y-11517000D01*
X6961928Y-11531286D01*
X6904786Y-11531286D01*
X6876214Y-11545571D01*
X6861928Y-11559857D01*
X6847643Y-11588429D01*
X6847643Y-11645571D01*
X6861928Y-11674143D01*
X6876214Y-11688429D01*
X6904786Y-11702714D01*
X6961928Y-11702714D01*
X6990500Y-11688429D01*
X7004786Y-11674143D01*
X7019071Y-11645571D01*
X7019071Y-11588429D01*
X7004786Y-11559857D01*
X6990500Y-11545571D01*
X6961928Y-11531286D01*
X7376214Y-11702714D02*
X7376214Y-11402714D01*
X7504786Y-11702714D02*
X7504786Y-11545571D01*
X7490500Y-11517000D01*
X7461928Y-11502714D01*
X7419071Y-11502714D01*
X7390500Y-11517000D01*
X7376214Y-11531286D01*
X7690500Y-11702714D02*
X7661928Y-11688429D01*
X7647643Y-11674143D01*
X7633357Y-11645571D01*
X7633357Y-11559857D01*
X7647643Y-11531286D01*
X7661928Y-11517000D01*
X7690500Y-11502714D01*
X7733357Y-11502714D01*
X7761928Y-11517000D01*
X7776214Y-11531286D01*
X7790500Y-11559857D01*
X7790500Y-11645571D01*
X7776214Y-11674143D01*
X7761928Y-11688429D01*
X7733357Y-11702714D01*
X7690500Y-11702714D01*
X7961928Y-11702714D02*
X7933357Y-11688429D01*
X7919071Y-11659857D01*
X7919071Y-11402714D01*
X8190500Y-11688429D02*
X8161928Y-11702714D01*
X8104786Y-11702714D01*
X8076214Y-11688429D01*
X8061928Y-11659857D01*
X8061928Y-11545571D01*
X8076214Y-11517000D01*
X8104786Y-11502714D01*
X8161928Y-11502714D01*
X8190500Y-11517000D01*
X8204786Y-11545571D01*
X8204786Y-11574143D01*
X8061928Y-11602714D01*
X8319071Y-11688429D02*
X8347643Y-11702714D01*
X8404786Y-11702714D01*
X8433357Y-11688429D01*
X8447643Y-11659857D01*
X8447643Y-11645571D01*
X8433357Y-11617000D01*
X8404786Y-11602714D01*
X8361928Y-11602714D01*
X8333357Y-11588429D01*
X8319071Y-11559857D01*
X8319071Y-11545571D01*
X8333357Y-11517000D01*
X8361928Y-11502714D01*
X8404786Y-11502714D01*
X8433357Y-11517000D01*
X8547643Y-11817000D02*
X8561928Y-11802714D01*
X8590500Y-11759857D01*
X8604786Y-11731286D01*
X8619071Y-11688429D01*
X8633357Y-11617000D01*
X8633357Y-11559857D01*
X8619071Y-11488429D01*
X8604786Y-11445571D01*
X8590500Y-11417000D01*
X8561928Y-11374143D01*
X8547643Y-11359857D01*
X1775500Y-11963000D02*
G75*
G03X1775500Y-11963000I-35000J0D01*
G01*
X2119071Y-11798714D02*
X2147643Y-11798714D01*
X2176214Y-11813000D01*
X2190500Y-11827286D01*
X2204786Y-11855857D01*
X2219071Y-11913000D01*
X2219071Y-11984429D01*
X2204786Y-12041571D01*
X2190500Y-12070143D01*
X2176214Y-12084429D01*
X2147643Y-12098714D01*
X2119071Y-12098714D01*
X2090500Y-12084429D01*
X2076214Y-12070143D01*
X2061928Y-12041571D01*
X2047643Y-11984429D01*
X2047643Y-11913000D01*
X2061928Y-11855857D01*
X2076214Y-11827286D01*
X2090500Y-11813000D01*
X2119071Y-11798714D01*
X2347643Y-12070143D02*
X2361928Y-12084429D01*
X2347643Y-12098714D01*
X2333357Y-12084429D01*
X2347643Y-12070143D01*
X2347643Y-12098714D01*
X2461928Y-11798714D02*
X2661928Y-11798714D01*
X2533357Y-12098714D01*
X2833357Y-11798714D02*
X2861928Y-11798714D01*
X2890500Y-11813000D01*
X2904786Y-11827286D01*
X2919071Y-11855857D01*
X2933357Y-11913000D01*
X2933357Y-11984429D01*
X2919071Y-12041571D01*
X2904786Y-12070143D01*
X2890500Y-12084429D01*
X2861928Y-12098714D01*
X2833357Y-12098714D01*
X2804786Y-12084429D01*
X2790500Y-12070143D01*
X2776214Y-12041571D01*
X2761928Y-11984429D01*
X2761928Y-11913000D01*
X2776214Y-11855857D01*
X2790500Y-11827286D01*
X2804786Y-11813000D01*
X2833357Y-11798714D01*
X3061928Y-12098714D02*
X3061928Y-11898714D01*
X3061928Y-11927286D02*
X3076214Y-11913000D01*
X3104786Y-11898714D01*
X3147643Y-11898714D01*
X3176214Y-11913000D01*
X3190500Y-11941571D01*
X3190500Y-12098714D01*
X3190500Y-11941571D02*
X3204786Y-11913000D01*
X3233357Y-11898714D01*
X3276214Y-11898714D01*
X3304786Y-11913000D01*
X3319071Y-11941571D01*
X3319071Y-12098714D01*
X3461928Y-12098714D02*
X3461928Y-11898714D01*
X3461928Y-11927286D02*
X3476214Y-11913000D01*
X3504786Y-11898714D01*
X3547643Y-11898714D01*
X3576214Y-11913000D01*
X3590500Y-11941571D01*
X3590500Y-12098714D01*
X3590500Y-11941571D02*
X3604786Y-11913000D01*
X3633357Y-11898714D01*
X3676214Y-11898714D01*
X3704786Y-11913000D01*
X3719071Y-11941571D01*
X3719071Y-12098714D01*
X4304786Y-11784429D02*
X4047643Y-12170143D01*
X4690500Y-11798714D02*
X4719071Y-11798714D01*
X4747643Y-11813000D01*
X4761928Y-11827286D01*
X4776214Y-11855857D01*
X4790500Y-11913000D01*
X4790500Y-11984429D01*
X4776214Y-12041571D01*
X4761928Y-12070143D01*
X4747643Y-12084429D01*
X4719071Y-12098714D01*
X4690500Y-12098714D01*
X4661928Y-12084429D01*
X4647643Y-12070143D01*
X4633357Y-12041571D01*
X4619071Y-11984429D01*
X4619071Y-11913000D01*
X4633357Y-11855857D01*
X4647643Y-11827286D01*
X4661928Y-11813000D01*
X4690500Y-11798714D01*
X4919071Y-12070143D02*
X4933357Y-12084429D01*
X4919071Y-12098714D01*
X4904786Y-12084429D01*
X4919071Y-12070143D01*
X4919071Y-12098714D01*
X5119071Y-11798714D02*
X5147643Y-11798714D01*
X5176214Y-11813000D01*
X5190500Y-11827286D01*
X5204786Y-11855857D01*
X5219071Y-11913000D01*
X5219071Y-11984429D01*
X5204786Y-12041571D01*
X5190500Y-12070143D01*
X5176214Y-12084429D01*
X5147643Y-12098714D01*
X5119071Y-12098714D01*
X5090500Y-12084429D01*
X5076214Y-12070143D01*
X5061928Y-12041571D01*
X5047643Y-11984429D01*
X5047643Y-11913000D01*
X5061928Y-11855857D01*
X5076214Y-11827286D01*
X5090500Y-11813000D01*
X5119071Y-11798714D01*
X5333357Y-11827286D02*
X5347643Y-11813000D01*
X5376214Y-11798714D01*
X5447643Y-11798714D01*
X5476214Y-11813000D01*
X5490500Y-11827286D01*
X5504786Y-11855857D01*
X5504786Y-11884429D01*
X5490500Y-11927286D01*
X5319071Y-12098714D01*
X5504786Y-12098714D01*
X5676214Y-11927286D02*
X5647643Y-11913000D01*
X5633357Y-11898714D01*
X5619071Y-11870143D01*
X5619071Y-11855857D01*
X5633357Y-11827286D01*
X5647643Y-11813000D01*
X5676214Y-11798714D01*
X5733357Y-11798714D01*
X5761928Y-11813000D01*
X5776214Y-11827286D01*
X5790500Y-11855857D01*
X5790500Y-11870143D01*
X5776214Y-11898714D01*
X5761928Y-11913000D01*
X5733357Y-11927286D01*
X5676214Y-11927286D01*
X5647643Y-11941571D01*
X5633357Y-11955857D01*
X5619071Y-11984429D01*
X5619071Y-12041571D01*
X5633357Y-12070143D01*
X5647643Y-12084429D01*
X5676214Y-12098714D01*
X5733357Y-12098714D01*
X5761928Y-12084429D01*
X5776214Y-12070143D01*
X5790500Y-12041571D01*
X5790500Y-11984429D01*
X5776214Y-11955857D01*
X5761928Y-11941571D01*
X5733357Y-11927286D01*
X5904786Y-11798714D02*
X5904786Y-11855857D01*
X6019071Y-11798714D02*
X6019071Y-11855857D01*
X6461928Y-12213000D02*
X6447643Y-12198714D01*
X6419071Y-12155857D01*
X6404786Y-12127286D01*
X6390500Y-12084429D01*
X6376214Y-12013000D01*
X6376214Y-11955857D01*
X6390500Y-11884429D01*
X6404786Y-11841571D01*
X6419071Y-11813000D01*
X6447643Y-11770143D01*
X6461928Y-11755857D01*
X6561928Y-11827286D02*
X6576214Y-11813000D01*
X6604786Y-11798714D01*
X6676214Y-11798714D01*
X6704786Y-11813000D01*
X6719071Y-11827286D01*
X6733357Y-11855857D01*
X6733357Y-11884429D01*
X6719071Y-11927286D01*
X6547643Y-12098714D01*
X6733357Y-12098714D01*
X7090500Y-12098714D02*
X7090500Y-11798714D01*
X7219071Y-12098714D02*
X7219071Y-11941571D01*
X7204786Y-11913000D01*
X7176214Y-11898714D01*
X7133357Y-11898714D01*
X7104786Y-11913000D01*
X7090500Y-11927286D01*
X7404786Y-12098714D02*
X7376214Y-12084429D01*
X7361928Y-12070143D01*
X7347643Y-12041571D01*
X7347643Y-11955857D01*
X7361928Y-11927286D01*
X7376214Y-11913000D01*
X7404786Y-11898714D01*
X7447643Y-11898714D01*
X7476214Y-11913000D01*
X7490500Y-11927286D01*
X7504786Y-11955857D01*
X7504786Y-12041571D01*
X7490500Y-12070143D01*
X7476214Y-12084429D01*
X7447643Y-12098714D01*
X7404786Y-12098714D01*
X7676214Y-12098714D02*
X7647643Y-12084429D01*
X7633357Y-12055857D01*
X7633357Y-11798714D01*
X7904786Y-12084429D02*
X7876214Y-12098714D01*
X7819071Y-12098714D01*
X7790500Y-12084429D01*
X7776214Y-12055857D01*
X7776214Y-11941571D01*
X7790500Y-11913000D01*
X7819071Y-11898714D01*
X7876214Y-11898714D01*
X7904786Y-11913000D01*
X7919071Y-11941571D01*
X7919071Y-11970143D01*
X7776214Y-11998714D01*
X8033357Y-12084429D02*
X8061928Y-12098714D01*
X8119071Y-12098714D01*
X8147643Y-12084429D01*
X8161928Y-12055857D01*
X8161928Y-12041571D01*
X8147643Y-12013000D01*
X8119071Y-11998714D01*
X8076214Y-11998714D01*
X8047643Y-11984429D01*
X8033357Y-11955857D01*
X8033357Y-11941571D01*
X8047643Y-11913000D01*
X8076214Y-11898714D01*
X8119071Y-11898714D01*
X8147643Y-11913000D01*
X8261928Y-12213000D02*
X8276214Y-12198714D01*
X8304786Y-12155857D01*
X8319071Y-12127286D01*
X8333357Y-12084429D01*
X8347643Y-12013000D01*
X8347643Y-11955857D01*
X8333357Y-11884429D01*
X8319071Y-11841571D01*
X8304786Y-11813000D01*
X8276214Y-11770143D01*
X8261928Y-11755857D01*
X1725500Y-12309000D02*
X1725500Y-12409000D01*
X1675500Y-12359000D02*
X1775500Y-12359000D01*
X2219071Y-12494714D02*
X2047643Y-12494714D01*
X2133357Y-12494714D02*
X2133357Y-12194714D01*
X2104786Y-12237571D01*
X2076214Y-12266143D01*
X2047643Y-12280429D01*
X2347643Y-12466143D02*
X2361928Y-12480429D01*
X2347643Y-12494714D01*
X2333357Y-12480429D01*
X2347643Y-12466143D01*
X2347643Y-12494714D01*
X2547643Y-12194714D02*
X2576214Y-12194714D01*
X2604786Y-12209000D01*
X2619071Y-12223286D01*
X2633357Y-12251857D01*
X2647643Y-12309000D01*
X2647643Y-12380429D01*
X2633357Y-12437571D01*
X2619071Y-12466143D01*
X2604786Y-12480429D01*
X2576214Y-12494714D01*
X2547643Y-12494714D01*
X2519071Y-12480429D01*
X2504786Y-12466143D01*
X2490500Y-12437571D01*
X2476214Y-12380429D01*
X2476214Y-12309000D01*
X2490500Y-12251857D01*
X2504786Y-12223286D01*
X2519071Y-12209000D01*
X2547643Y-12194714D01*
X2833357Y-12194714D02*
X2861928Y-12194714D01*
X2890500Y-12209000D01*
X2904786Y-12223286D01*
X2919071Y-12251857D01*
X2933357Y-12309000D01*
X2933357Y-12380429D01*
X2919071Y-12437571D01*
X2904786Y-12466143D01*
X2890500Y-12480429D01*
X2861928Y-12494714D01*
X2833357Y-12494714D01*
X2804786Y-12480429D01*
X2790500Y-12466143D01*
X2776214Y-12437571D01*
X2761928Y-12380429D01*
X2761928Y-12309000D01*
X2776214Y-12251857D01*
X2790500Y-12223286D01*
X2804786Y-12209000D01*
X2833357Y-12194714D01*
X3061928Y-12494714D02*
X3061928Y-12294714D01*
X3061928Y-12323286D02*
X3076214Y-12309000D01*
X3104786Y-12294714D01*
X3147643Y-12294714D01*
X3176214Y-12309000D01*
X3190500Y-12337571D01*
X3190500Y-12494714D01*
X3190500Y-12337571D02*
X3204786Y-12309000D01*
X3233357Y-12294714D01*
X3276214Y-12294714D01*
X3304786Y-12309000D01*
X3319071Y-12337571D01*
X3319071Y-12494714D01*
X3461928Y-12494714D02*
X3461928Y-12294714D01*
X3461928Y-12323286D02*
X3476214Y-12309000D01*
X3504786Y-12294714D01*
X3547643Y-12294714D01*
X3576214Y-12309000D01*
X3590500Y-12337571D01*
X3590500Y-12494714D01*
X3590500Y-12337571D02*
X3604786Y-12309000D01*
X3633357Y-12294714D01*
X3676214Y-12294714D01*
X3704786Y-12309000D01*
X3719071Y-12337571D01*
X3719071Y-12494714D01*
X4304786Y-12180429D02*
X4047643Y-12566143D01*
X4690500Y-12194714D02*
X4719071Y-12194714D01*
X4747643Y-12209000D01*
X4761928Y-12223286D01*
X4776214Y-12251857D01*
X4790500Y-12309000D01*
X4790500Y-12380429D01*
X4776214Y-12437571D01*
X4761928Y-12466143D01*
X4747643Y-12480429D01*
X4719071Y-12494714D01*
X4690500Y-12494714D01*
X4661928Y-12480429D01*
X4647643Y-12466143D01*
X4633357Y-12437571D01*
X4619071Y-12380429D01*
X4619071Y-12309000D01*
X4633357Y-12251857D01*
X4647643Y-12223286D01*
X4661928Y-12209000D01*
X4690500Y-12194714D01*
X4919071Y-12466143D02*
X4933357Y-12480429D01*
X4919071Y-12494714D01*
X4904786Y-12480429D01*
X4919071Y-12466143D01*
X4919071Y-12494714D01*
X5119071Y-12194714D02*
X5147643Y-12194714D01*
X5176214Y-12209000D01*
X5190500Y-12223286D01*
X5204786Y-12251857D01*
X5219071Y-12309000D01*
X5219071Y-12380429D01*
X5204786Y-12437571D01*
X5190500Y-12466143D01*
X5176214Y-12480429D01*
X5147643Y-12494714D01*
X5119071Y-12494714D01*
X5090500Y-12480429D01*
X5076214Y-12466143D01*
X5061928Y-12437571D01*
X5047643Y-12380429D01*
X5047643Y-12309000D01*
X5061928Y-12251857D01*
X5076214Y-12223286D01*
X5090500Y-12209000D01*
X5119071Y-12194714D01*
X5319071Y-12194714D02*
X5504786Y-12194714D01*
X5404786Y-12309000D01*
X5447643Y-12309000D01*
X5476214Y-12323286D01*
X5490500Y-12337571D01*
X5504786Y-12366143D01*
X5504786Y-12437571D01*
X5490500Y-12466143D01*
X5476214Y-12480429D01*
X5447643Y-12494714D01*
X5361928Y-12494714D01*
X5333357Y-12480429D01*
X5319071Y-12466143D01*
X5647643Y-12494714D02*
X5704786Y-12494714D01*
X5733357Y-12480429D01*
X5747643Y-12466143D01*
X5776214Y-12423286D01*
X5790500Y-12366143D01*
X5790500Y-12251857D01*
X5776214Y-12223286D01*
X5761928Y-12209000D01*
X5733357Y-12194714D01*
X5676214Y-12194714D01*
X5647643Y-12209000D01*
X5633357Y-12223286D01*
X5619071Y-12251857D01*
X5619071Y-12323286D01*
X5633357Y-12351857D01*
X5647643Y-12366143D01*
X5676214Y-12380429D01*
X5733357Y-12380429D01*
X5761928Y-12366143D01*
X5776214Y-12351857D01*
X5790500Y-12323286D01*
X5904786Y-12194714D02*
X5904786Y-12251857D01*
X6019071Y-12194714D02*
X6019071Y-12251857D01*
X6461928Y-12609000D02*
X6447643Y-12594714D01*
X6419071Y-12551857D01*
X6404786Y-12523286D01*
X6390500Y-12480429D01*
X6376214Y-12409000D01*
X6376214Y-12351857D01*
X6390500Y-12280429D01*
X6404786Y-12237571D01*
X6419071Y-12209000D01*
X6447643Y-12166143D01*
X6461928Y-12151857D01*
X6561928Y-12223286D02*
X6576214Y-12209000D01*
X6604786Y-12194714D01*
X6676214Y-12194714D01*
X6704786Y-12209000D01*
X6719071Y-12223286D01*
X6733357Y-12251857D01*
X6733357Y-12280429D01*
X6719071Y-12323286D01*
X6547643Y-12494714D01*
X6733357Y-12494714D01*
X6876214Y-12494714D02*
X6933357Y-12494714D01*
X6961928Y-12480429D01*
X6976214Y-12466143D01*
X7004786Y-12423286D01*
X7019071Y-12366143D01*
X7019071Y-12251857D01*
X7004786Y-12223286D01*
X6990500Y-12209000D01*
X6961928Y-12194714D01*
X6904786Y-12194714D01*
X6876214Y-12209000D01*
X6861928Y-12223286D01*
X6847643Y-12251857D01*
X6847643Y-12323286D01*
X6861928Y-12351857D01*
X6876214Y-12366143D01*
X6904786Y-12380429D01*
X6961928Y-12380429D01*
X6990500Y-12366143D01*
X7004786Y-12351857D01*
X7019071Y-12323286D01*
X7376214Y-12494714D02*
X7376214Y-12194714D01*
X7504786Y-12494714D02*
X7504786Y-12337571D01*
X7490500Y-12309000D01*
X7461928Y-12294714D01*
X7419071Y-12294714D01*
X7390500Y-12309000D01*
X7376214Y-12323286D01*
X7690500Y-12494714D02*
X7661928Y-12480429D01*
X7647643Y-12466143D01*
X7633357Y-12437571D01*
X7633357Y-12351857D01*
X7647643Y-12323286D01*
X7661928Y-12309000D01*
X7690500Y-12294714D01*
X7733357Y-12294714D01*
X7761928Y-12309000D01*
X7776214Y-12323286D01*
X7790500Y-12351857D01*
X7790500Y-12437571D01*
X7776214Y-12466143D01*
X7761928Y-12480429D01*
X7733357Y-12494714D01*
X7690500Y-12494714D01*
X7961928Y-12494714D02*
X7933357Y-12480429D01*
X7919071Y-12451857D01*
X7919071Y-12194714D01*
X8190500Y-12480429D02*
X8161928Y-12494714D01*
X8104786Y-12494714D01*
X8076214Y-12480429D01*
X8061928Y-12451857D01*
X8061928Y-12337571D01*
X8076214Y-12309000D01*
X8104786Y-12294714D01*
X8161928Y-12294714D01*
X8190500Y-12309000D01*
X8204786Y-12337571D01*
X8204786Y-12366143D01*
X8061928Y-12394714D01*
X8319071Y-12480429D02*
X8347643Y-12494714D01*
X8404786Y-12494714D01*
X8433357Y-12480429D01*
X8447643Y-12451857D01*
X8447643Y-12437571D01*
X8433357Y-12409000D01*
X8404786Y-12394714D01*
X8361928Y-12394714D01*
X8333357Y-12380429D01*
X8319071Y-12351857D01*
X8319071Y-12337571D01*
X8333357Y-12309000D01*
X8361928Y-12294714D01*
X8404786Y-12294714D01*
X8433357Y-12309000D01*
X8547643Y-12609000D02*
X8561928Y-12594714D01*
X8590500Y-12551857D01*
X8604786Y-12523286D01*
X8619071Y-12480429D01*
X8633357Y-12409000D01*
X8633357Y-12351857D01*
X8619071Y-12280429D01*
X8604786Y-12237571D01*
X8590500Y-12209000D01*
X8561928Y-12166143D01*
X8547643Y-12151857D01*
X1756462Y-12800962D02*
X1756462Y-12709038D01*
X1664537Y-12709038D01*
X1664537Y-12800962D01*
X1756462Y-12800962D01*
X2219071Y-12890714D02*
X2047643Y-12890714D01*
X2133357Y-12890714D02*
X2133357Y-12590714D01*
X2104786Y-12633571D01*
X2076214Y-12662143D01*
X2047643Y-12676429D01*
X2347643Y-12862143D02*
X2361928Y-12876429D01*
X2347643Y-12890714D01*
X2333357Y-12876429D01*
X2347643Y-12862143D01*
X2347643Y-12890714D01*
X2461928Y-12590714D02*
X2647643Y-12590714D01*
X2547643Y-12705000D01*
X2590500Y-12705000D01*
X2619071Y-12719286D01*
X2633357Y-12733571D01*
X2647643Y-12762143D01*
X2647643Y-12833571D01*
X2633357Y-12862143D01*
X2619071Y-12876429D01*
X2590500Y-12890714D01*
X2504786Y-12890714D01*
X2476214Y-12876429D01*
X2461928Y-12862143D01*
X2833357Y-12590714D02*
X2861928Y-12590714D01*
X2890500Y-12605000D01*
X2904786Y-12619286D01*
X2919071Y-12647857D01*
X2933357Y-12705000D01*
X2933357Y-12776429D01*
X2919071Y-12833571D01*
X2904786Y-12862143D01*
X2890500Y-12876429D01*
X2861928Y-12890714D01*
X2833357Y-12890714D01*
X2804786Y-12876429D01*
X2790500Y-12862143D01*
X2776214Y-12833571D01*
X2761928Y-12776429D01*
X2761928Y-12705000D01*
X2776214Y-12647857D01*
X2790500Y-12619286D01*
X2804786Y-12605000D01*
X2833357Y-12590714D01*
X3061928Y-12890714D02*
X3061928Y-12690714D01*
X3061928Y-12719286D02*
X3076214Y-12705000D01*
X3104786Y-12690714D01*
X3147643Y-12690714D01*
X3176214Y-12705000D01*
X3190500Y-12733571D01*
X3190500Y-12890714D01*
X3190500Y-12733571D02*
X3204786Y-12705000D01*
X3233357Y-12690714D01*
X3276214Y-12690714D01*
X3304786Y-12705000D01*
X3319071Y-12733571D01*
X3319071Y-12890714D01*
X3461928Y-12890714D02*
X3461928Y-12690714D01*
X3461928Y-12719286D02*
X3476214Y-12705000D01*
X3504786Y-12690714D01*
X3547643Y-12690714D01*
X3576214Y-12705000D01*
X3590500Y-12733571D01*
X3590500Y-12890714D01*
X3590500Y-12733571D02*
X3604786Y-12705000D01*
X3633357Y-12690714D01*
X3676214Y-12690714D01*
X3704786Y-12705000D01*
X3719071Y-12733571D01*
X3719071Y-12890714D01*
X4304786Y-12576429D02*
X4047643Y-12962143D01*
X4690500Y-12590714D02*
X4719071Y-12590714D01*
X4747643Y-12605000D01*
X4761928Y-12619286D01*
X4776214Y-12647857D01*
X4790500Y-12705000D01*
X4790500Y-12776429D01*
X4776214Y-12833571D01*
X4761928Y-12862143D01*
X4747643Y-12876429D01*
X4719071Y-12890714D01*
X4690500Y-12890714D01*
X4661928Y-12876429D01*
X4647643Y-12862143D01*
X4633357Y-12833571D01*
X4619071Y-12776429D01*
X4619071Y-12705000D01*
X4633357Y-12647857D01*
X4647643Y-12619286D01*
X4661928Y-12605000D01*
X4690500Y-12590714D01*
X4919071Y-12862143D02*
X4933357Y-12876429D01*
X4919071Y-12890714D01*
X4904786Y-12876429D01*
X4919071Y-12862143D01*
X4919071Y-12890714D01*
X5119071Y-12590714D02*
X5147643Y-12590714D01*
X5176214Y-12605000D01*
X5190500Y-12619286D01*
X5204786Y-12647857D01*
X5219071Y-12705000D01*
X5219071Y-12776429D01*
X5204786Y-12833571D01*
X5190500Y-12862143D01*
X5176214Y-12876429D01*
X5147643Y-12890714D01*
X5119071Y-12890714D01*
X5090500Y-12876429D01*
X5076214Y-12862143D01*
X5061928Y-12833571D01*
X5047643Y-12776429D01*
X5047643Y-12705000D01*
X5061928Y-12647857D01*
X5076214Y-12619286D01*
X5090500Y-12605000D01*
X5119071Y-12590714D01*
X5490500Y-12590714D02*
X5347643Y-12590714D01*
X5333357Y-12733571D01*
X5347643Y-12719286D01*
X5376214Y-12705000D01*
X5447643Y-12705000D01*
X5476214Y-12719286D01*
X5490500Y-12733571D01*
X5504786Y-12762143D01*
X5504786Y-12833571D01*
X5490500Y-12862143D01*
X5476214Y-12876429D01*
X5447643Y-12890714D01*
X5376214Y-12890714D01*
X5347643Y-12876429D01*
X5333357Y-12862143D01*
X5790500Y-12890714D02*
X5619071Y-12890714D01*
X5704786Y-12890714D02*
X5704786Y-12590714D01*
X5676214Y-12633571D01*
X5647643Y-12662143D01*
X5619071Y-12676429D01*
X5904786Y-12590714D02*
X5904786Y-12647857D01*
X6019071Y-12590714D02*
X6019071Y-12647857D01*
X6461928Y-13005000D02*
X6447643Y-12990714D01*
X6419071Y-12947857D01*
X6404786Y-12919286D01*
X6390500Y-12876429D01*
X6376214Y-12805000D01*
X6376214Y-12747857D01*
X6390500Y-12676429D01*
X6404786Y-12633571D01*
X6419071Y-12605000D01*
X6447643Y-12562143D01*
X6461928Y-12547857D01*
X6733357Y-12890714D02*
X6561928Y-12890714D01*
X6647643Y-12890714D02*
X6647643Y-12590714D01*
X6619071Y-12633571D01*
X6590500Y-12662143D01*
X6561928Y-12676429D01*
X6990500Y-12590714D02*
X6933357Y-12590714D01*
X6904786Y-12605000D01*
X6890500Y-12619286D01*
X6861928Y-12662143D01*
X6847643Y-12719286D01*
X6847643Y-12833571D01*
X6861928Y-12862143D01*
X6876214Y-12876429D01*
X6904786Y-12890714D01*
X6961928Y-12890714D01*
X6990500Y-12876429D01*
X7004786Y-12862143D01*
X7019071Y-12833571D01*
X7019071Y-12762143D01*
X7004786Y-12733571D01*
X6990500Y-12719286D01*
X6961928Y-12705000D01*
X6904786Y-12705000D01*
X6876214Y-12719286D01*
X6861928Y-12733571D01*
X6847643Y-12762143D01*
X7376214Y-12890714D02*
X7376214Y-12590714D01*
X7504786Y-12890714D02*
X7504786Y-12733571D01*
X7490500Y-12705000D01*
X7461928Y-12690714D01*
X7419071Y-12690714D01*
X7390500Y-12705000D01*
X7376214Y-12719286D01*
X7690500Y-12890714D02*
X7661928Y-12876429D01*
X7647643Y-12862143D01*
X7633357Y-12833571D01*
X7633357Y-12747857D01*
X7647643Y-12719286D01*
X7661928Y-12705000D01*
X7690500Y-12690714D01*
X7733357Y-12690714D01*
X7761928Y-12705000D01*
X7776214Y-12719286D01*
X7790500Y-12747857D01*
X7790500Y-12833571D01*
X7776214Y-12862143D01*
X7761928Y-12876429D01*
X7733357Y-12890714D01*
X7690500Y-12890714D01*
X7961928Y-12890714D02*
X7933357Y-12876429D01*
X7919071Y-12847857D01*
X7919071Y-12590714D01*
X8190500Y-12876429D02*
X8161928Y-12890714D01*
X8104786Y-12890714D01*
X8076214Y-12876429D01*
X8061928Y-12847857D01*
X8061928Y-12733571D01*
X8076214Y-12705000D01*
X8104786Y-12690714D01*
X8161928Y-12690714D01*
X8190500Y-12705000D01*
X8204786Y-12733571D01*
X8204786Y-12762143D01*
X8061928Y-12790714D01*
X8319071Y-12876429D02*
X8347643Y-12890714D01*
X8404786Y-12890714D01*
X8433357Y-12876429D01*
X8447643Y-12847857D01*
X8447643Y-12833571D01*
X8433357Y-12805000D01*
X8404786Y-12790714D01*
X8361928Y-12790714D01*
X8333357Y-12776429D01*
X8319071Y-12747857D01*
X8319071Y-12733571D01*
X8333357Y-12705000D01*
X8361928Y-12690714D01*
X8404786Y-12690714D01*
X8433357Y-12705000D01*
X8547643Y-13005000D02*
X8561928Y-12990714D01*
X8590500Y-12947857D01*
X8604786Y-12919286D01*
X8619071Y-12876429D01*
X8633357Y-12805000D01*
X8633357Y-12747857D01*
X8619071Y-12676429D01*
X8604786Y-12633571D01*
X8590500Y-12605000D01*
X8561928Y-12562143D01*
X8547643Y-12547857D01*
X1705500Y-13221000D02*
X1775500Y-13151000D01*
X1705500Y-13081000D01*
X1635500Y-13151000D01*
X1705500Y-13221000D01*
X2219071Y-13286714D02*
X2047643Y-13286714D01*
X2133357Y-13286714D02*
X2133357Y-12986714D01*
X2104786Y-13029571D01*
X2076214Y-13058143D01*
X2047643Y-13072429D01*
X2347643Y-13258143D02*
X2361928Y-13272429D01*
X2347643Y-13286714D01*
X2333357Y-13272429D01*
X2347643Y-13258143D01*
X2347643Y-13286714D01*
X2619071Y-13086714D02*
X2619071Y-13286714D01*
X2547643Y-12972429D02*
X2476214Y-13186714D01*
X2661928Y-13186714D01*
X2833357Y-12986714D02*
X2861928Y-12986714D01*
X2890500Y-13001000D01*
X2904786Y-13015286D01*
X2919071Y-13043857D01*
X2933357Y-13101000D01*
X2933357Y-13172429D01*
X2919071Y-13229571D01*
X2904786Y-13258143D01*
X2890500Y-13272429D01*
X2861928Y-13286714D01*
X2833357Y-13286714D01*
X2804786Y-13272429D01*
X2790500Y-13258143D01*
X2776214Y-13229571D01*
X2761928Y-13172429D01*
X2761928Y-13101000D01*
X2776214Y-13043857D01*
X2790500Y-13015286D01*
X2804786Y-13001000D01*
X2833357Y-12986714D01*
X3061928Y-13286714D02*
X3061928Y-13086714D01*
X3061928Y-13115286D02*
X3076214Y-13101000D01*
X3104786Y-13086714D01*
X3147643Y-13086714D01*
X3176214Y-13101000D01*
X3190500Y-13129571D01*
X3190500Y-13286714D01*
X3190500Y-13129571D02*
X3204786Y-13101000D01*
X3233357Y-13086714D01*
X3276214Y-13086714D01*
X3304786Y-13101000D01*
X3319071Y-13129571D01*
X3319071Y-13286714D01*
X3461928Y-13286714D02*
X3461928Y-13086714D01*
X3461928Y-13115286D02*
X3476214Y-13101000D01*
X3504786Y-13086714D01*
X3547643Y-13086714D01*
X3576214Y-13101000D01*
X3590500Y-13129571D01*
X3590500Y-13286714D01*
X3590500Y-13129571D02*
X3604786Y-13101000D01*
X3633357Y-13086714D01*
X3676214Y-13086714D01*
X3704786Y-13101000D01*
X3719071Y-13129571D01*
X3719071Y-13286714D01*
X4304786Y-12972429D02*
X4047643Y-13358143D01*
X4690500Y-12986714D02*
X4719071Y-12986714D01*
X4747643Y-13001000D01*
X4761928Y-13015286D01*
X4776214Y-13043857D01*
X4790500Y-13101000D01*
X4790500Y-13172429D01*
X4776214Y-13229571D01*
X4761928Y-13258143D01*
X4747643Y-13272429D01*
X4719071Y-13286714D01*
X4690500Y-13286714D01*
X4661928Y-13272429D01*
X4647643Y-13258143D01*
X4633357Y-13229571D01*
X4619071Y-13172429D01*
X4619071Y-13101000D01*
X4633357Y-13043857D01*
X4647643Y-13015286D01*
X4661928Y-13001000D01*
X4690500Y-12986714D01*
X4919071Y-13258143D02*
X4933357Y-13272429D01*
X4919071Y-13286714D01*
X4904786Y-13272429D01*
X4919071Y-13258143D01*
X4919071Y-13286714D01*
X5119071Y-12986714D02*
X5147643Y-12986714D01*
X5176214Y-13001000D01*
X5190500Y-13015286D01*
X5204786Y-13043857D01*
X5219071Y-13101000D01*
X5219071Y-13172429D01*
X5204786Y-13229571D01*
X5190500Y-13258143D01*
X5176214Y-13272429D01*
X5147643Y-13286714D01*
X5119071Y-13286714D01*
X5090500Y-13272429D01*
X5076214Y-13258143D01*
X5061928Y-13229571D01*
X5047643Y-13172429D01*
X5047643Y-13101000D01*
X5061928Y-13043857D01*
X5076214Y-13015286D01*
X5090500Y-13001000D01*
X5119071Y-12986714D01*
X5490500Y-12986714D02*
X5347643Y-12986714D01*
X5333357Y-13129571D01*
X5347643Y-13115286D01*
X5376214Y-13101000D01*
X5447643Y-13101000D01*
X5476214Y-13115286D01*
X5490500Y-13129571D01*
X5504786Y-13158143D01*
X5504786Y-13229571D01*
X5490500Y-13258143D01*
X5476214Y-13272429D01*
X5447643Y-13286714D01*
X5376214Y-13286714D01*
X5347643Y-13272429D01*
X5333357Y-13258143D01*
X5776214Y-12986714D02*
X5633357Y-12986714D01*
X5619071Y-13129571D01*
X5633357Y-13115286D01*
X5661928Y-13101000D01*
X5733357Y-13101000D01*
X5761928Y-13115286D01*
X5776214Y-13129571D01*
X5790500Y-13158143D01*
X5790500Y-13229571D01*
X5776214Y-13258143D01*
X5761928Y-13272429D01*
X5733357Y-13286714D01*
X5661928Y-13286714D01*
X5633357Y-13272429D01*
X5619071Y-13258143D01*
X5904786Y-12986714D02*
X5904786Y-13043857D01*
X6019071Y-12986714D02*
X6019071Y-13043857D01*
X6461928Y-13401000D02*
X6447643Y-13386714D01*
X6419071Y-13343857D01*
X6404786Y-13315286D01*
X6390500Y-13272429D01*
X6376214Y-13201000D01*
X6376214Y-13143857D01*
X6390500Y-13072429D01*
X6404786Y-13029571D01*
X6419071Y-13001000D01*
X6447643Y-12958143D01*
X6461928Y-12943857D01*
X6704786Y-12986714D02*
X6647643Y-12986714D01*
X6619071Y-13001000D01*
X6604786Y-13015286D01*
X6576214Y-13058143D01*
X6561928Y-13115286D01*
X6561928Y-13229571D01*
X6576214Y-13258143D01*
X6590500Y-13272429D01*
X6619071Y-13286714D01*
X6676214Y-13286714D01*
X6704786Y-13272429D01*
X6719071Y-13258143D01*
X6733357Y-13229571D01*
X6733357Y-13158143D01*
X6719071Y-13129571D01*
X6704786Y-13115286D01*
X6676214Y-13101000D01*
X6619071Y-13101000D01*
X6590500Y-13115286D01*
X6576214Y-13129571D01*
X6561928Y-13158143D01*
X7090500Y-13286714D02*
X7090500Y-12986714D01*
X7219071Y-13286714D02*
X7219071Y-13129571D01*
X7204786Y-13101000D01*
X7176214Y-13086714D01*
X7133357Y-13086714D01*
X7104786Y-13101000D01*
X7090500Y-13115286D01*
X7404786Y-13286714D02*
X7376214Y-13272429D01*
X7361928Y-13258143D01*
X7347643Y-13229571D01*
X7347643Y-13143857D01*
X7361928Y-13115286D01*
X7376214Y-13101000D01*
X7404786Y-13086714D01*
X7447643Y-13086714D01*
X7476214Y-13101000D01*
X7490500Y-13115286D01*
X7504786Y-13143857D01*
X7504786Y-13229571D01*
X7490500Y-13258143D01*
X7476214Y-13272429D01*
X7447643Y-13286714D01*
X7404786Y-13286714D01*
X7676214Y-13286714D02*
X7647643Y-13272429D01*
X7633357Y-13243857D01*
X7633357Y-12986714D01*
X7904786Y-13272429D02*
X7876214Y-13286714D01*
X7819071Y-13286714D01*
X7790500Y-13272429D01*
X7776214Y-13243857D01*
X7776214Y-13129571D01*
X7790500Y-13101000D01*
X7819071Y-13086714D01*
X7876214Y-13086714D01*
X7904786Y-13101000D01*
X7919071Y-13129571D01*
X7919071Y-13158143D01*
X7776214Y-13186714D01*
X8033357Y-13272429D02*
X8061928Y-13286714D01*
X8119071Y-13286714D01*
X8147643Y-13272429D01*
X8161928Y-13243857D01*
X8161928Y-13229571D01*
X8147643Y-13201000D01*
X8119071Y-13186714D01*
X8076214Y-13186714D01*
X8047643Y-13172429D01*
X8033357Y-13143857D01*
X8033357Y-13129571D01*
X8047643Y-13101000D01*
X8076214Y-13086714D01*
X8119071Y-13086714D01*
X8147643Y-13101000D01*
X8261928Y-13401000D02*
X8276214Y-13386714D01*
X8304786Y-13343857D01*
X8319071Y-13315286D01*
X8333357Y-13272429D01*
X8347643Y-13201000D01*
X8347643Y-13143857D01*
X8333357Y-13072429D01*
X8319071Y-13029571D01*
X8304786Y-13001000D01*
X8276214Y-12958143D01*
X8261928Y-12943857D01*
X1575500Y-13447000D02*
X1775500Y-13647000D01*
X1775500Y-13447000D02*
X1575500Y-13647000D01*
X1775500Y-13547000D02*
G75*
G03X1775500Y-13547000I-100000J0D01*
G01*
X2047643Y-13411286D02*
X2061928Y-13397000D01*
X2090500Y-13382714D01*
X2161928Y-13382714D01*
X2190500Y-13397000D01*
X2204786Y-13411286D01*
X2219071Y-13439857D01*
X2219071Y-13468429D01*
X2204786Y-13511286D01*
X2033357Y-13682714D01*
X2219071Y-13682714D01*
X2347643Y-13654143D02*
X2361928Y-13668429D01*
X2347643Y-13682714D01*
X2333357Y-13668429D01*
X2347643Y-13654143D01*
X2347643Y-13682714D01*
X2547643Y-13382714D02*
X2576214Y-13382714D01*
X2604786Y-13397000D01*
X2619071Y-13411286D01*
X2633357Y-13439857D01*
X2647643Y-13497000D01*
X2647643Y-13568429D01*
X2633357Y-13625571D01*
X2619071Y-13654143D01*
X2604786Y-13668429D01*
X2576214Y-13682714D01*
X2547643Y-13682714D01*
X2519071Y-13668429D01*
X2504786Y-13654143D01*
X2490500Y-13625571D01*
X2476214Y-13568429D01*
X2476214Y-13497000D01*
X2490500Y-13439857D01*
X2504786Y-13411286D01*
X2519071Y-13397000D01*
X2547643Y-13382714D01*
X2833357Y-13382714D02*
X2861928Y-13382714D01*
X2890500Y-13397000D01*
X2904786Y-13411286D01*
X2919071Y-13439857D01*
X2933357Y-13497000D01*
X2933357Y-13568429D01*
X2919071Y-13625571D01*
X2904786Y-13654143D01*
X2890500Y-13668429D01*
X2861928Y-13682714D01*
X2833357Y-13682714D01*
X2804786Y-13668429D01*
X2790500Y-13654143D01*
X2776214Y-13625571D01*
X2761928Y-13568429D01*
X2761928Y-13497000D01*
X2776214Y-13439857D01*
X2790500Y-13411286D01*
X2804786Y-13397000D01*
X2833357Y-13382714D01*
X3061928Y-13682714D02*
X3061928Y-13482714D01*
X3061928Y-13511286D02*
X3076214Y-13497000D01*
X3104786Y-13482714D01*
X3147643Y-13482714D01*
X3176214Y-13497000D01*
X3190500Y-13525571D01*
X3190500Y-13682714D01*
X3190500Y-13525571D02*
X3204786Y-13497000D01*
X3233357Y-13482714D01*
X3276214Y-13482714D01*
X3304786Y-13497000D01*
X3319071Y-13525571D01*
X3319071Y-13682714D01*
X3461928Y-13682714D02*
X3461928Y-13482714D01*
X3461928Y-13511286D02*
X3476214Y-13497000D01*
X3504786Y-13482714D01*
X3547643Y-13482714D01*
X3576214Y-13497000D01*
X3590500Y-13525571D01*
X3590500Y-13682714D01*
X3590500Y-13525571D02*
X3604786Y-13497000D01*
X3633357Y-13482714D01*
X3676214Y-13482714D01*
X3704786Y-13497000D01*
X3719071Y-13525571D01*
X3719071Y-13682714D01*
X4304786Y-13368429D02*
X4047643Y-13754143D01*
X4690500Y-13382714D02*
X4719071Y-13382714D01*
X4747643Y-13397000D01*
X4761928Y-13411286D01*
X4776214Y-13439857D01*
X4790500Y-13497000D01*
X4790500Y-13568429D01*
X4776214Y-13625571D01*
X4761928Y-13654143D01*
X4747643Y-13668429D01*
X4719071Y-13682714D01*
X4690500Y-13682714D01*
X4661928Y-13668429D01*
X4647643Y-13654143D01*
X4633357Y-13625571D01*
X4619071Y-13568429D01*
X4619071Y-13497000D01*
X4633357Y-13439857D01*
X4647643Y-13411286D01*
X4661928Y-13397000D01*
X4690500Y-13382714D01*
X4919071Y-13654143D02*
X4933357Y-13668429D01*
X4919071Y-13682714D01*
X4904786Y-13668429D01*
X4919071Y-13654143D01*
X4919071Y-13682714D01*
X5119071Y-13382714D02*
X5147643Y-13382714D01*
X5176214Y-13397000D01*
X5190500Y-13411286D01*
X5204786Y-13439857D01*
X5219071Y-13497000D01*
X5219071Y-13568429D01*
X5204786Y-13625571D01*
X5190500Y-13654143D01*
X5176214Y-13668429D01*
X5147643Y-13682714D01*
X5119071Y-13682714D01*
X5090500Y-13668429D01*
X5076214Y-13654143D01*
X5061928Y-13625571D01*
X5047643Y-13568429D01*
X5047643Y-13497000D01*
X5061928Y-13439857D01*
X5076214Y-13411286D01*
X5090500Y-13397000D01*
X5119071Y-13382714D01*
X5319071Y-13382714D02*
X5519071Y-13382714D01*
X5390500Y-13682714D01*
X5647643Y-13682714D02*
X5704786Y-13682714D01*
X5733357Y-13668429D01*
X5747643Y-13654143D01*
X5776214Y-13611286D01*
X5790500Y-13554143D01*
X5790500Y-13439857D01*
X5776214Y-13411286D01*
X5761928Y-13397000D01*
X5733357Y-13382714D01*
X5676214Y-13382714D01*
X5647643Y-13397000D01*
X5633357Y-13411286D01*
X5619071Y-13439857D01*
X5619071Y-13511286D01*
X5633357Y-13539857D01*
X5647643Y-13554143D01*
X5676214Y-13568429D01*
X5733357Y-13568429D01*
X5761928Y-13554143D01*
X5776214Y-13539857D01*
X5790500Y-13511286D01*
X5904786Y-13382714D02*
X5904786Y-13439857D01*
X6019071Y-13382714D02*
X6019071Y-13439857D01*
X6461928Y-13797000D02*
X6447643Y-13782714D01*
X6419071Y-13739857D01*
X6404786Y-13711286D01*
X6390500Y-13668429D01*
X6376214Y-13597000D01*
X6376214Y-13539857D01*
X6390500Y-13468429D01*
X6404786Y-13425571D01*
X6419071Y-13397000D01*
X6447643Y-13354143D01*
X6461928Y-13339857D01*
X6561928Y-13411286D02*
X6576214Y-13397000D01*
X6604786Y-13382714D01*
X6676214Y-13382714D01*
X6704786Y-13397000D01*
X6719071Y-13411286D01*
X6733357Y-13439857D01*
X6733357Y-13468429D01*
X6719071Y-13511286D01*
X6547643Y-13682714D01*
X6733357Y-13682714D01*
X7090500Y-13682714D02*
X7090500Y-13382714D01*
X7219071Y-13682714D02*
X7219071Y-13525571D01*
X7204786Y-13497000D01*
X7176214Y-13482714D01*
X7133357Y-13482714D01*
X7104786Y-13497000D01*
X7090500Y-13511286D01*
X7404786Y-13682714D02*
X7376214Y-13668429D01*
X7361928Y-13654143D01*
X7347643Y-13625571D01*
X7347643Y-13539857D01*
X7361928Y-13511286D01*
X7376214Y-13497000D01*
X7404786Y-13482714D01*
X7447643Y-13482714D01*
X7476214Y-13497000D01*
X7490500Y-13511286D01*
X7504786Y-13539857D01*
X7504786Y-13625571D01*
X7490500Y-13654143D01*
X7476214Y-13668429D01*
X7447643Y-13682714D01*
X7404786Y-13682714D01*
X7676214Y-13682714D02*
X7647643Y-13668429D01*
X7633357Y-13639857D01*
X7633357Y-13382714D01*
X7904786Y-13668429D02*
X7876214Y-13682714D01*
X7819071Y-13682714D01*
X7790500Y-13668429D01*
X7776214Y-13639857D01*
X7776214Y-13525571D01*
X7790500Y-13497000D01*
X7819071Y-13482714D01*
X7876214Y-13482714D01*
X7904786Y-13497000D01*
X7919071Y-13525571D01*
X7919071Y-13554143D01*
X7776214Y-13582714D01*
X8033357Y-13668429D02*
X8061928Y-13682714D01*
X8119071Y-13682714D01*
X8147643Y-13668429D01*
X8161928Y-13639857D01*
X8161928Y-13625571D01*
X8147643Y-13597000D01*
X8119071Y-13582714D01*
X8076214Y-13582714D01*
X8047643Y-13568429D01*
X8033357Y-13539857D01*
X8033357Y-13525571D01*
X8047643Y-13497000D01*
X8076214Y-13482714D01*
X8119071Y-13482714D01*
X8147643Y-13497000D01*
X8261928Y-13797000D02*
X8276214Y-13782714D01*
X8304786Y-13739857D01*
X8319071Y-13711286D01*
X8333357Y-13668429D01*
X8347643Y-13597000D01*
X8347643Y-13539857D01*
X8333357Y-13468429D01*
X8319071Y-13425571D01*
X8304786Y-13397000D01*
X8276214Y-13354143D01*
X8261928Y-13339857D01*
M02*
